<?xml version="1.0" encoding="utf-8" standalone="yes"?>
<!DOCTYPE svg PUBLIC "-//W3C//DTD SVG 1.1//EN" "http://www.w3.org/Graphics/SVG/1.1/DTD/svg11.dtd">
<svg style="fill:none;stroke:none;fill-rule:evenodd;clip-rule:evenodd;stroke-linecap:round;stroke-linejoin:round;stroke-miterlimit:1.5;" version="1.1" xmlns="http://www.w3.org/2000/svg" xmlns:xlink="http://www.w3.org/1999/xlink" width="996" height="1128" viewBox="0 0 996 1128"><style class="text-font-style fontImports" data-font-family="Roboto">@import url(https://fonts.googleapis.com/css2?family=Roboto:wght@400;700&amp;amp;display=block);</style><g id="items" style="isolation: isolate"><g id="blend" style="mix-blend-mode: normal"><g id="g-root-cp_9_g-9_8vvxthq5ld71-fill" data-item-order="-978326" transform="translate(200.739990234375, 875)"><g id="cp_9_g-9_8vvxthq5ld71-fill-merged" stroke="none" fill="#8769fd" fill-opacity="1"><g><path d="M139.7 83.2C139.7 89.16 144.54 94 150.51 94 H182.93C188.9 94 193.74 89.16 193.74 83.2 V10 H139.7 V83.2 M10 83.2C10 89.16 14.84 94 20.81 94 H53.23C59.2 94 64.04 89.16 64.04 83.2 V10 H10 V83.2"></path></g></g></g><g id="g-root-cp_9_g-9_8vvxthq5ld71-stroke" data-item-order="-978326" transform="translate(200.739990234375, 875)"><g id="cp_9_g-9_8vvxthq5ld71-stroke" fill="none" stroke-linecap="round" stroke-linejoin="round" stroke-miterlimit="4" stroke="#2c2c2c" stroke-width="2" stroke-opacity="1"><g><path d="M 139.6997 83.2C 139.6997 89.16 144.5397 94 150.5097 94L 182.9297 94C 188.8997 94 193.7397 89.16 193.7397 83.2L 193.7397 10L 139.6997 10L 139.6997 83.2ZM 10 83.2C 10 89.16 14.84 94 20.81 94L 53.23 94C 59.2 94 64.04 89.16 64.04 83.2L 64.04 10L 10 10L 10 83.2Z"></path></g></g></g><g id="g-root-cp_8_g-8_8vvxthq5ld72-fill" data-item-order="-978322" transform="translate(38, 791)"><g id="cp_8_g-8_8vvxthq5ld72-fill-merged" stroke="none" fill="#cb68f9" fill-opacity="1"><g><path d="M543.11 10C535.75 19.89 527.12 28.99 517.35 37.06C490.14 59.9 456.15 73.65 421.32 79.62C421.3 79.62 421.27 79.63 421.25 79.63C416.49 80.44 411.66 80.8 406.83 80.8 H367.28C361.32 80.8 356.48 85.64 356.48 91.6 V94 H302.44 V91.6C302.44 85.64 297.6 80.8 291.63 80.8 H237.59C231.62 80.8 226.78 85.64 226.78 91.6 V94 H172.74 V91.6C172.74 85.64 167.9 80.8 161.93 80.8 H32.24C20.3 80.8 10.62 71.13 10.62 59.2L10 31.6C10 19.67 19.68 10 31.62 10 H543.11"></path></g></g></g><g id="g-root-cp_8_g-8_8vvxthq5ld72-stroke" data-item-order="-978322" transform="translate(38, 791)"><g id="cp_8_g-8_8vvxthq5ld72-stroke" fill="none" stroke-linecap="round" stroke-linejoin="round" stroke-miterlimit="4" stroke="#2c2c2c" stroke-width="2" stroke-opacity="1"><g><path d="M 543.11 10C 535.75 19.89 527.12 28.99 517.35 37.06C 490.14 59.9 456.15 73.65 421.32 79.62C 421.3 79.62 421.27 79.63 421.25 79.63C 416.49 80.44 411.66 80.8 406.83 80.8L 367.28 80.8C 361.32 80.8 356.48 85.64 356.48 91.6L 356.48 94L 302.44 94L 302.44 91.6C 302.44 85.64 297.6 80.8 291.63 80.8L 237.59 80.8C 231.62 80.8 226.78 85.64 226.78 91.6L 226.78 94L 172.74 94L 172.74 91.6C 172.74 85.64 167.9 80.8 161.93 80.8L 32.24 80.8C 20.3 80.8 10.62 71.13 10.62 59.2L 10 31.6C 10 19.67 19.68 10 31.62 10L 543.11 10Z"></path></g></g></g><g id="g-root-cp_7_g-7_4g2fp1q5ldzb-fill" data-item-order="-978318" transform="translate(124.47000122070312, 707)"><g id="cp_7_g-7_4g2fp1q5ldzb-fill-merged" stroke="none" fill="#f366bb" fill-opacity="1"><g><path d="M161.31 94 H10C21.94 94 31.61 84.33 31.61 72.4L31.72 10 H139.99L139.69 72.4C139.69 84.33 149.37 94 161.31 94 M486.1 10C485.34 40.22 474.88 69.51 456.64 94 H250.92C256.57 94 262.24 93.77 267.88 93.31C268.39 93.26 268.89 93.22 269.39 93.18C269.44 93.18 269.48 93.17 269.53 93.17C272.38 92.93 275.24 92.65 278.08 92.31C278.76 92.23 279.4 92.15 279.94 92.08L281.54 91.81L284.75 91.29C315.49 85.75 345.84 68.88 364.59 43.7C369.25 37.49 372.94 30.56 375.44 23.22C376.76 18.9 377.63 14.5 377.96 10 H486.1"></path></g></g></g><g id="g-root-cp_7_g-7_4g2fp1q5ldzb-stroke" data-item-order="-978318" transform="translate(124.47000122070312, 707)"><g id="cp_7_g-7_4g2fp1q5ldzb-stroke" fill="none" stroke-linecap="round" stroke-linejoin="round" stroke-miterlimit="4" stroke="#2c2c2c" stroke-width="2" stroke-opacity="1"><g><path d="M 161.31 94L 10 94C 21.94 94 31.61 84.33 31.61 72.4L 31.72 10L 139.99 10L 139.69 72.4C 139.69 84.33 149.37 94 161.31 94ZM 486.0999 10C 485.3399 40.22 474.8799 69.51 456.6399 94L 250.9199 94C 256.5699 94 262.2399 93.77 267.8799 93.31C 268.3899 93.26 268.8899 93.22 269.3899 93.18C 269.4399 93.18 269.4799 93.17 269.5299 93.17C 272.3799 92.93 275.2399 92.65 278.0799 92.31C 278.7599 92.23 279.3999 92.15 279.9399 92.08L 281.5399 91.81L 284.7499 91.29C 315.4899 85.75 345.8399 68.88 364.5899 43.7C 369.2499 37.49 372.9399 30.56 375.4399 23.22C 376.7599 18.9 377.6299 14.5 377.9599 10L 486.0999 10Z"></path></g></g></g><g id="g-root-cp_6_g-6_4g2fp1q5ldzc-fill" data-item-order="-978314" transform="translate(146.1900177001953, 623)"><g id="cp_6_g-6_4g2fp1q5ldzc-fill-merged" stroke="none" fill="#fb6762" fill-opacity="1"><g><path d="M125.28 10C121.17 13.93 118.59 19.46 118.59 25.6L118.27 94 H10L10.13 10 H125.28 M464.38 94 H356.24C356.25 93.86 356.28 93.72 356.29 93.58C357.47 68.36 340.87 46.34 321.11 31.13C309.3 21.94 294.35 14.58 278.75 10 H439.46C446.33 20.11 452.01 31.15 456.23 43.12C462.21 59.92 464.81 77.1 464.38 94"></path></g></g></g><g id="g-root-cp_6_g-6_4g2fp1q5ldzc-stroke" data-item-order="-978314" transform="translate(146.1900177001953, 623)"><g id="cp_6_g-6_4g2fp1q5ldzc-stroke" fill="none" stroke-linecap="round" stroke-linejoin="round" stroke-miterlimit="4" stroke="#2c2c2c" stroke-width="2" stroke-opacity="1"><g><path d="M 125.279985 10C 121.169985 13.93 118.589985 19.46 118.589985 25.6L 118.269985 94L 9.999985 94L 10.129985 10L 125.279985 10ZM 464.379985 94L 356.239985 94C 356.249985 93.86 356.279985 93.72 356.289985 93.58C 357.469985 68.36 340.869985 46.34 321.109985 31.13C 309.299985 21.94 294.349985 14.58 278.749985 10L 439.459985 10C 446.329985 20.11 452.009985 31.15 456.229985 43.12C 462.209985 59.92 464.809985 77.1 464.379985 94Z"></path></g></g></g><g id="g-root-cp_5_g-5_4g2fp1q5ldzd-fill" data-item-order="-978310" transform="translate(146.3199920654297, 539)"><g id="cp_5_g-5_4g2fp1q5ldzd-fill-merged" stroke="none" fill="#f79438" fill-opacity="1"><g><path d="M439.33 94 H278.62C271.66 91.96 264.58 90.46 257.58 89.6C256.65 89.48 255.72 89.38 254.8 89.29C252.6 89.06 250.38 88.85 248.16 88.67C244.73 88.38 241.3 88.14 237.87 88 H140.08C134.28 88 129.03 90.29 125.15 94 H10L10.14 10 H125.15C129.03 13.71 134.28 16 140.08 16 H223.45C228.58 16 233.7 15.77 238.81 15.36C238.83 15.35 238.85 15.35 238.88 15.35C242.02 15.15 245.11 14.78 248.16 14.24C251.13 13.7 254.06 13 256.95 12.11C258.96 11.49 260.92 10.78 262.84 10 H399.34C395.18 17.04 390.5 23.71 385.35 29.95C381.14 35.04 382.47 42.63 388.11 46.07C408.31 58.41 426.04 74.44 439.33 94"></path></g></g></g><g id="g-root-cp_5_g-5_4g2fp1q5ldzd-stroke" data-item-order="-978310" transform="translate(146.3199920654297, 539)"><g id="cp_5_g-5_4g2fp1q5ldzd-stroke" fill="none" stroke-linecap="round" stroke-linejoin="round" stroke-miterlimit="4" stroke="#2c2c2c" stroke-width="2" stroke-opacity="1"><g><path d="M 439.330015 94L 278.620015 94C 271.660015 91.96 264.580015 90.46 257.580015 89.6L 257.570015 89.6C 256.650015 89.48 255.720015 89.38 254.800015 89.29C 252.600015 89.06 250.380015 88.85 248.160015 88.67C 244.730015 88.38 241.300015 88.14 237.870015 88L 140.080015 88C 134.280015 88 129.030015 90.29 125.150015 94L 10.000015 94L 10.140015 10L 125.150015 10C 129.030015 13.71 134.280015 16 140.080015 16L 223.450015 16C 228.580015 16 233.700015 15.77 238.810015 15.36C 238.830015 15.35 238.850015 15.35 238.880015 15.35C 242.020015 15.15 245.110015 14.78 248.160015 14.24C 251.130015 13.7 254.060015 13 256.950015 12.11C 258.960015 11.49 260.920015 10.78 262.840015 10L 399.340015 10C 395.180015 17.04 390.500015 23.71 385.350015 29.95C 381.140015 35.04 382.470015 42.63 388.110015 46.07C 408.310015 58.41 426.040015 74.44 439.330015 94Z"></path></g></g></g><g id="g-root-cp_4_g-4_8xklq5lerm-fill" data-item-order="-978306" transform="translate(146.45997619628906, 455)"><g id="cp_4_g-4_8xklq5lerm-fill-merged" stroke="none" fill="#ffe711" fill-opacity="1"><g><path d="M416 53.02C412.32 67.77 406.59 81.49 399.2 94 H262.7C294.29 81.15 312.86 47.05 312.86 13.85C312.86 12.57 312.84 11.29 312.79 10 H420.98C421.26 23.97 419.67 38.38 416 53.02 M125.01 94 H10L10.14 10 H118.32 V78.4C118.32 84.54 120.9 90.07 125.01 94"></path></g></g></g><g id="g-root-cp_4_g-4_8xklq5lerm-stroke" data-item-order="-978306" transform="translate(146.45997619628906, 455)"><g id="cp_4_g-4_8xklq5lerm-stroke" fill="none" stroke-linecap="round" stroke-linejoin="round" stroke-miterlimit="4" stroke="#2c2c2c" stroke-width="2" stroke-opacity="1"><g><path d="M 416.000215 53.02C 412.320215 67.77 406.590215 81.49 399.200215 94L 262.700215 94C 294.290215 81.15 312.860215 47.05 312.860215 13.85C 312.860215 12.57 312.840215 11.29 312.790215 10L 420.980215 10C 421.260215 23.97 419.670215 38.38 416.000215 53.02ZM 125.010015 94L 10.000015 94L 10.140015 10L 118.320015 10L 118.320015 78.4C 118.320015 84.54 120.900015 90.07 125.010015 94Z"></path></g></g></g><g id="g-root-cp_3_g-3_8xklq5lern-fill" data-item-order="-978302" transform="translate(125.08000183105469, 371)"><g id="cp_3_g-3_8xklq5lern-fill-merged" stroke="none" fill="#a6da37" fill-opacity="1"><g><path d="M442.36 94 H334.17C332.97 59.74 313.04 23.73 278.91 13.27C275.79 12.33 272.61 11.55 269.4 10.99C267.75 10.7 266.09 10.48 264.42 10.31C262.15 10.1 259.9 10 257.65 10 H415.51C431.96 34.19 441.75 62.99 442.36 94 M161.32 10C149.38 10 139.7 19.67 139.7 31.6 V94 H31.52L31.62 31.6C31.62 19.67 21.94 10 10 10 H161.32"></path></g></g></g><g id="g-root-cp_3_g-3_8xklq5lern-stroke" data-item-order="-978302" transform="translate(125.08000183105469, 371)"><g id="cp_3_g-3_8xklq5lern-stroke" fill="none" stroke-linecap="round" stroke-linejoin="round" stroke-miterlimit="4" stroke="#2c2c2c" stroke-width="2" stroke-opacity="1"><g><path d="M 442.359885 94L 334.169885 94C 332.969885 59.74 313.039885 23.73 278.909885 13.27C 275.789885 12.33 272.609885 11.55 269.399885 10.99C 267.749885 10.7 266.089885 10.48 264.419885 10.31L 264.389885 10.31C 262.149885 10.1 259.899885 10 257.649885 10L 415.509885 10C 431.959885 34.19 441.749885 62.99 442.359885 94ZM 161.319985 10C 149.379985 10 139.699985 19.67 139.699985 31.6L 139.699985 94L 31.519985 94L 31.619985 31.6C 31.619985 19.67 21.939985 10 9.999985 10L 161.319985 10Z"></path></g></g></g><g id="g-root-cp_2_g-2_8xklq5lero-fill" data-item-order="-978298" transform="translate(38.62001037597656, 287)"><g id="cp_2_g-2_8xklq5lero-fill-merged" stroke="none" fill="#43dd93" fill-opacity="1"><g><path d="M420.7 31.88C419.67 31.51 418.62 31.16 417.57 30.81C401.75 25.61 385.15 23.2 368.49 23.2 H366.66C360.7 23.2 355.86 18.36 355.86 12.4 V10 H301.82 V12.4C301.82 18.36 296.98 23.2 291.01 23.2 H236.97C231 23.2 226.16 18.36 226.16 12.4 V10 H172.12 V12.4C172.12 18.36 167.28 23.2 161.31 23.2 H31.62C19.68 23.2 10 32.87 10 44.8 V72.4C10 84.33 19.68 94 31.62 94 H501.97C482.69 65.65 454.27 43.64 420.7 31.88"></path></g></g></g><g id="g-root-cp_2_g-2_8xklq5lero-stroke" data-item-order="-978298" transform="translate(38.62001037597656, 287)"><g id="cp_2_g-2_8xklq5lero-stroke" fill="none" stroke-linecap="round" stroke-linejoin="round" stroke-miterlimit="4" stroke="#2c2c2c" stroke-width="2" stroke-opacity="1"><g><path d="M 420.7 31.88C 419.67 31.51 418.62 31.16 417.57 30.81C 401.75 25.61 385.15 23.2 368.49 23.2L 366.66 23.2C 360.7 23.2 355.86 18.36 355.86 12.4L 355.86 10L 301.82 10L 301.82 12.4C 301.82 18.36 296.98 23.2 291.01 23.2L 236.97 23.2C 231 23.2 226.16 18.36 226.16 12.4L 226.16 10L 172.12 10L 172.12 12.4C 172.12 18.36 167.28 23.2 161.31 23.2L 31.62 23.2C 19.68 23.2 10 32.87 10 44.8L 10 72.4C 10 84.33 19.68 94 31.62 94L 501.97 94C 482.69 65.65 454.27 43.64 420.7 31.88Z"></path></g></g></g><g id="g-root-cp_1_g-1_8xklq5lerp-fill" data-item-order="-978294" transform="translate(200.739990234375, 203)"><g id="cp_1_g-1_8xklq5lerp-fill-merged" stroke="none" fill="#1ac3fb" fill-opacity="1"><g><path d="M193.74 20.8C193.74 14.84 188.9 10 182.93 10 H150.51C144.54 10 139.7 14.84 139.7 20.8 V94 H193.74 V20.8 M64.04 20.8C64.04 14.84 59.2 10 53.23 10 H20.81C14.84 10 10 14.84 10 20.8 V94 H64.04 V20.8"></path></g></g></g><g id="g-root-cp_1_g-1_8xklq5lerp-stroke" data-item-order="-978294" transform="translate(200.739990234375, 203)"><g id="cp_1_g-1_8xklq5lerp-stroke" fill="none" stroke-linecap="round" stroke-linejoin="round" stroke-miterlimit="4" stroke="#2c2c2c" stroke-width="2" stroke-opacity="1"><g><path d="M 193.7397 20.8C 193.7397 14.84 188.8997 10 182.9297 10L 150.5097 10C 144.5397 10 139.6997 14.84 139.6997 20.8L 139.6997 94L 193.7397 94L 193.7397 20.8ZM 64.04 20.8C 64.04 14.84 59.2 10 53.23 10L 20.81 10C 14.84 10 10 14.84 10 20.8L 10 94L 64.04 94L 64.04 20.8Z"></path></g></g></g><g id="g-root-cp_1_text-1_1q5pzatq5lfda-fill" data-item-order="-978285" transform="translate(710, 116)"></g><g id="g-root-cp_1_text-1_1q5pzatq5lfda-stroke" data-item-order="-978285" transform="translate(710, 116)"><g id="cp_1_text-1_1q5pzatq5lfda-stroke" fill="none" stroke-linecap="round" stroke-linejoin="round" stroke-miterlimit="4" stroke="#f4f4f4" stroke-width="2" stroke-opacity="1"><g><path d="M 10 10L 10 82"></path></g></g></g><g id="g-root-cp_2_text-2_1q5pzatq5lfdb-fill" data-item-order="-978269" transform="translate(710, 212)"></g><g id="g-root-cp_2_text-2_1q5pzatq5lfdb-stroke" data-item-order="-978269" transform="translate(710, 212)"><g id="cp_2_text-2_1q5pzatq5lfdb-stroke" fill="none" stroke-linecap="round" stroke-linejoin="round" stroke-miterlimit="4" stroke="#f4f4f4" stroke-width="2" stroke-opacity="1"><g><path d="M 10 10L 10 124"></path></g></g></g><g id="g-root-cp_3_text-3_1lqiy9hq5lczs-fill" data-item-order="-978255" transform="translate(710, 350)"></g><g id="g-root-cp_3_text-3_1lqiy9hq5lczs-stroke" data-item-order="-978255" transform="translate(710, 350)"><g id="cp_3_text-3_1lqiy9hq5lczs-stroke" fill="none" stroke-linecap="round" stroke-linejoin="round" stroke-miterlimit="4" stroke="#f4f4f4" stroke-width="2" stroke-opacity="1"><g><path d="M 10 10L 10 106"></path></g></g></g><g id="g-root-cp_4_text-4_1lqiy9hq5lczt-fill" data-item-order="-978241" transform="translate(710, 470)"></g><g id="g-root-cp_4_text-4_1lqiy9hq5lczt-stroke" data-item-order="-978241" transform="translate(710, 470)"><g id="cp_4_text-4_1lqiy9hq5lczt-stroke" fill="none" stroke-linecap="round" stroke-linejoin="round" stroke-miterlimit="4" stroke="#f4f4f4" stroke-width="2" stroke-opacity="1"><g><path d="M 10 10L 10 82"></path></g></g></g><g id="g-root-cp_5_text-5_1lqiy9hq5lczu-fill" data-item-order="-978227" transform="translate(710, 566)"></g><g id="g-root-cp_5_text-5_1lqiy9hq5lczu-stroke" data-item-order="-978227" transform="translate(710, 566)"><g id="cp_5_text-5_1lqiy9hq5lczu-stroke" fill="none" stroke-linecap="round" stroke-linejoin="round" stroke-miterlimit="4" stroke="#f4f4f4" stroke-width="2" stroke-opacity="1"><g><path d="M 10 10L 10 82"></path></g></g></g><g id="g-root-cp_6_text-6_1hapg51q5lds3-fill" data-item-order="-978213" transform="translate(710, 662)"></g><g id="g-root-cp_6_text-6_1hapg51q5lds3-stroke" data-item-order="-978213" transform="translate(710, 662)"><g id="cp_6_text-6_1hapg51q5lds3-stroke" fill="none" stroke-linecap="round" stroke-linejoin="round" stroke-miterlimit="4" stroke="#f4f4f4" stroke-width="2" stroke-opacity="1"><g><path d="M 10 10L 10 82"></path></g></g></g><g id="g-root-cp_7_text-7_1hapg51q5lds4-fill" data-item-order="-978199" transform="translate(710, 758)"></g><g id="g-root-cp_7_text-7_1hapg51q5lds4-stroke" data-item-order="-978199" transform="translate(710, 758)"><g id="cp_7_text-7_1hapg51q5lds4-stroke" fill="none" stroke-linecap="round" stroke-linejoin="round" stroke-miterlimit="4" stroke="#f4f4f4" stroke-width="2" stroke-opacity="1"><g><path d="M 10 10L 10 106"></path></g></g></g><g id="g-root-cp_8_text-8_18f2fw5q5lekt-fill" data-item-order="-978185" transform="translate(710, 878)"></g><g id="g-root-cp_8_text-8_18f2fw5q5lekt-stroke" data-item-order="-978185" transform="translate(710, 878)"><g id="cp_8_text-8_18f2fw5q5lekt-stroke" fill="none" stroke-linecap="round" stroke-linejoin="round" stroke-miterlimit="4" stroke="#f4f4f4" stroke-width="2" stroke-opacity="1"><g><path d="M 10 10L 10 82"></path></g></g></g><g id="g-root-cp_9_text-9_18f2fw5q5leku-fill" data-item-order="-978171" transform="translate(710, 974)"></g><g id="g-root-cp_9_text-9_18f2fw5q5leku-stroke" data-item-order="-978171" transform="translate(710, 974)"><g id="cp_9_text-9_18f2fw5q5leku-stroke" fill="none" stroke-linecap="round" stroke-linejoin="round" stroke-miterlimit="4" stroke="#f4f4f4" stroke-width="2" stroke-opacity="1"><g><path d="M 10 10L 10 82"></path></g></g></g><g id="g-root-ic_euro_1hi756dq5o8b0-fill" data-item-order="0" transform="translate(650, 356)"></g><g id="g-root-ic_euro_1hi756dq5o8b0-stroke" data-item-order="0" transform="translate(650, 356)"><g id="ic_euro_1hi756dq5o8b0-stroke" fill="none" stroke-linecap="round" stroke-linejoin="round" stroke-miterlimit="4" stroke="#f4f4f4" stroke-width="2" stroke-opacity="1"><g><path d="M 29.01778 36.987198L 13.08752 36.987198L 14.80202 26.704281C 14.879539 26.237961 15.12044 25.814419 15.4816 25.509441C 15.84278 25.204441 16.30068 25.037899 16.77338 25.03956L 25.34786 25.03956C 25.819199 25.03978 26.2752 25.207199 26.63472 25.51202C 26.994221 25.816841 27.233959 26.239321 27.31126 26.704281L 29.01778 36.987198ZM 11.096313 36.9874L 30.013599 36.9874C 30.277599 36.9874 30.5308 37.092201 30.7176 37.278999C 30.9042 37.465599 31.009199 37.7188 31.009199 37.983002L 31.009199 56.9002M 19.06934 29.02198L 23.051899 29.02198M 21.060661 25.0397L 21.060661 21.057121M 26.038839 17.074221L 16.082439 17.074221C 15.53256 17.074221 15.0868 17.519979 15.0868 18.06986L 15.0868 20.06114C 15.0868 20.611019 15.53256 21.05678 16.082439 21.05678L 26.038839 21.05678C 26.58872 21.05678 27.0345 20.611019 27.0345 20.06114L 27.0345 18.06986C 27.0345 17.519979 26.58872 17.074221 26.038839 17.074221ZM 53.916801 25.03956L 39.977798 25.03956C 38.328201 25.03956 36.990799 26.376841 36.990799 28.02648L 36.990799 53.9132C 36.990799 55.562801 38.328201 56.900002 39.977798 56.900002L 53.916801 56.900002C 55.566399 56.900002 56.903599 55.562801 56.903599 53.9132L 56.903599 28.02648C 56.903599 26.376841 55.566399 25.03956 53.916801 25.03956ZM 36.990799 48.935001L 56.903599 48.935001M 53.909 13.91846C 51.6548 12.09494 48.843201 11.100098 45.943802 11.100098C 43.044399 11.100098 40.2328 12.09494 37.9786 13.91846M 41.306 18.717159C 42.620998 17.654119 44.260799 17.074221 45.951599 17.074221C 47.642601 17.074221 49.282398 17.654119 50.597401 18.717159M 46.947201 53.4146C 46.672401 53.4146 46.449402 53.191799 46.449402 52.916801C 46.449402 52.6418 46.672401 52.418999 46.947201 52.418999M 46.947201 53.4146C 47.222198 53.4146 47.445 53.191799 47.445 52.916801C 47.445 52.6418 47.222198 52.418999 46.947201 52.418999M 50.597401 31.013599L 49.6926 31.013599C 48.132599 31.013599 46.636398 31.6334 45.533199 32.736603C 44.43 33.839798 43.810398 35.335999 43.810398 36.896C 43.810398 38.456001 44.43 39.952202 45.533199 41.055401C 46.636398 42.1586 48.132599 42.7784 49.6926 42.7784L 50.597401 42.7784M 42.037201 35.078598L 48.2304 35.078598M 42.037201 38.713402L 48.2304 38.713402"></path></g></g></g><g id="g-root-tx_instants_18hkc8lq5r18l-fill" data-item-order="0" transform="translate(722, 470)"><g id="tx_instants_18hkc8lq5r18l-fill-merged" stroke="none" fill="#ffe711" fill-opacity="1"><g><text style="font: bold 20px Roboto, sans-serif; white-space: pre;" transform="translate(10, 22)" font-weight="bold" font-size="20px" font-family="Roboto, sans-serif"><tspan x="2" y="11.5" dominant-baseline="ideographic">Instant Settlements</tspan></text></g></g></g><g id="g-root-tx_instants_18hkc8lq5r18l-stroke" data-item-order="0" transform="translate(722, 470)"></g><g id="g-root-tx_provides_zmjt2tq5qyvi-fill" data-item-order="0" transform="translate(722, 506)"><g id="tx_provides_zmjt2tq5qyvi-fill-merged" stroke="none" fill="#f4f4f4" fill-opacity="1"><g><text style="font: 15px Roboto, sans-serif; white-space: pre;" transform="translate(10, 28)" font-size="15px" font-family="Roboto, sans-serif"><tspan x="2" y="-0.5" dominant-baseline="ideographic">Provides immediate </tspan><tspan x="2" y="17.5" dominant-baseline="ideographic">payment processing</tspan></text></g></g></g><g id="g-root-tx_provides_zmjt2tq5qyvi-stroke" data-item-order="0" transform="translate(722, 506)"></g><g id="g-root-tx_enablesm_djtm2dq5mr62-fill" data-item-order="0" transform="translate(722, 272)"><g id="tx_enablesm_djtm2dq5mr62-fill-merged" stroke="none" fill="#f4f4f4" fill-opacity="1"><g><text style="font: 15px Roboto, sans-serif; white-space: pre;" transform="translate(10, 37)" font-size="15px" font-family="Roboto, sans-serif"><tspan x="2" y="-9.5" dominant-baseline="ideographic">Enables merchants to </tspan><tspan x="2" y="8.5" dominant-baseline="ideographic">receive funds in their </tspan><tspan x="2" y="26.5" dominant-baseline="ideographic">preferred currency</tspan></text></g></g></g><g id="g-root-tx_enablesm_djtm2dq5mr62-stroke" data-item-order="0" transform="translate(722, 272)"></g><g id="g-root-ic_lock_2qtx1q5ts7g-fill" data-item-order="0" transform="translate(650, 572)"></g><g id="g-root-ic_lock_2qtx1q5ts7g-stroke" data-item-order="0" transform="translate(650, 572)"><g id="ic_lock_2qtx1q5ts7g-stroke" fill="none" stroke-linecap="round" stroke-linejoin="round" stroke-miterlimit="4" stroke="#f4f4f4" stroke-width="2" stroke-opacity="1"><g><path d="M 41 41L 55 41C 55 41 57 41 57 43L 57 55C 57 55 57 57 55 57L 41 57C 41 57 39 57 39 55L 39 43C 39 43 39 41 41 41M 45.5 49.119999C 45.5 50.500713 46.619289 51.619999 48 51.619999C 49.380711 51.619999 50.5 50.500713 50.5 49.119999C 50.5 47.739288 49.380711 46.619999 48 46.619999C 46.619289 46.619999 45.5 47.739288 45.5 49.119999M 53 38C 53 35.238579 50.761425 33 48 33C 45.238575 33 43 35.238579 43 38L 43 41L 53 41ZM 49 19L 11 19M 35 37L 14 37C 12.343145 37 11 35.656853 11 34L 11 14C 11 12.343145 12.343145 11 14 11L 46 11C 47.656857 11 49 12.343145 49 14L 49 28M 45 25L 39 25M 21 29L 15 29M 25 25L 15 25"></path></g></g></g><g id="g-root-tx_merchant_meu585q5mtj5-fill" data-item-order="0" transform="translate(722, 212)"><g id="tx_merchant_meu585q5mtj5-fill-merged" stroke="none" fill="#43dd93" fill-opacity="1"><g><text style="font: bold 20px Roboto, sans-serif; white-space: pre;" transform="translate(10, 34)" font-weight="bold" font-size="20px" font-family="Roboto, sans-serif"><tspan x="2" y="-0.5" dominant-baseline="ideographic">Merchant </tspan><tspan x="2" y="23.5" dominant-baseline="ideographic">Settlements</tspan></text></g></g></g><g id="g-root-tx_merchant_meu585q5mtj5-stroke" data-item-order="0" transform="translate(722, 212)"></g><g id="g-root-tx_fraudpro_ddkv79q5ttsa-fill" data-item-order="0" transform="translate(722, 566)"><g id="tx_fraudpro_ddkv79q5ttsa-fill-merged" stroke="none" fill="#f79438" fill-opacity="1"><g><text style="font: bold 20px Roboto, sans-serif; white-space: pre;" transform="translate(10, 22)" font-weight="bold" font-size="20px" font-family="Roboto, sans-serif"><tspan x="2" y="11.5" dominant-baseline="ideographic">Fraud Protection</tspan></text></g></g></g><g id="g-root-tx_fraudpro_ddkv79q5ttsa-stroke" data-item-order="0" transform="translate(722, 566)"></g><g id="g-root-ic_exch_9403xxq5mryb-fill" data-item-order="0" transform="translate(650, 218)"></g><g id="g-root-ic_exch_9403xxq5mryb-stroke" data-item-order="0" transform="translate(650, 218)"><g id="ic_exch_9403xxq5mryb-stroke" fill="none" stroke-linecap="round" stroke-linejoin="round" stroke-miterlimit="4" stroke="#f4f4f4" stroke-width="2" stroke-opacity="1"><g><path d="M 10 10M 46.099998 54.5L 41.5 50.099998L 46.099998 45.700001M 53.5 44.099998C 53.5 47.5 50.900002 50.099998 47.5 50.099998L 41.5 50.099998M 22.5 13.69998L 27.1 18.1L 22.5 22.500019M 15.1 24.1C 15.1 20.700001 17.700001 18.1 21.1 18.1L 27.1 18.1M 23.5 56.5C 30.127399 56.5 35.5 51.127399 35.5 44.5C 35.5 37.872601 30.127399 32.5 23.5 32.5C 16.87258 32.5 11.5 37.872601 11.5 44.5C 11.5 51.127399 16.87258 56.5 23.5 56.5ZM 21.299999 48.5C 21.700001 49.099998 22.700001 49.5 23.5 49.5C 25.1 49.5 26.299999 48.299999 26.299999 47.099998C 26.299999 45.900002 25.1 44.700001 23.5 44.700001C 21.9 44.700001 20.700001 43.5 20.700001 42.299999C 20.700001 41.099998 21.9 39.900002 23.5 39.900002C 24.299999 39.900002 24.9 40.099998 25.5 40.700001M 23.5 37.700001L 23.5 39.900002M 23.5 49.5L 23.5 51.700001M 44.5 35.5C 51.127399 35.5 56.5 30.127399 56.5 23.499981C 56.5 16.872561 51.127399 11.499978 44.5 11.499978C 37.872601 11.499978 32.5 16.872561 32.5 23.499981C 32.5 30.127399 37.872601 35.5 44.5 35.5ZM 40.900002 17.499981L 40.900002 19.499981C 40.900002 21.499981 42.5 23.100021 44.5 23.100021C 46.5 23.100021 48.099998 21.499981 48.099998 19.499981L 48.099998 17.499981M 44.5 23.100021L 44.5 29.9M 40.900002 26.69998L 48.099998 26.69998"></path></g></g></g><g id="g-root-tx_ensuress_8xrd2tq5tukj-fill" data-item-order="0" transform="translate(722, 602)"><g id="tx_ensuress_8xrd2tq5tukj-fill-merged" stroke="none" fill="#f4f4f4" fill-opacity="1"><g><text style="font: 15px Roboto, sans-serif; white-space: pre;" transform="translate(10, 28)" font-size="15px" font-family="Roboto, sans-serif"><tspan x="2" y="-0.5" dominant-baseline="ideographic">Ensures secure and </tspan><tspan x="2" y="17.5" dominant-baseline="ideographic">trustworthy transactions</tspan></text></g></g></g><g id="g-root-tx_ensuress_8xrd2tq5tukj-stroke" data-item-order="0" transform="translate(722, 602)"></g><g id="g-root-ic_chai_1uonuutq5y29s-fill" data-item-order="0" transform="translate(650, 668)"></g><g id="g-root-ic_chai_1uonuutq5y29s-stroke" data-item-order="0" transform="translate(650, 668)"><g id="ic_chai_1uonuutq5y29s-stroke" fill="none" stroke-linecap="round" stroke-linejoin="round" stroke-miterlimit="4" stroke="#f4f4f4" stroke-width="2" stroke-opacity="1"><g><path d="M 22.5 37.5C 22.5 38.700001 21.700001 39.5 20.5 39.5L 13.5 39.5C 12.3 39.5 11.5 38.700001 11.5 37.5L 11.5 30.5C 11.5 29.299999 12.3 28.5 13.5 28.5L 20.5 28.5C 21.700001 28.5 22.5 29.299999 22.5 30.5L 22.5 37.5ZM 22.5 54.5C 22.5 55.700001 21.700001 56.5 20.5 56.5L 13.5 56.5C 12.3 56.5 11.5 55.700001 11.5 54.5L 11.5 47.5C 11.5 46.299999 12.3 45.5 13.5 45.5L 20.5 45.5C 21.700001 45.5 22.5 46.299999 22.5 47.5L 22.5 54.5ZM 39.5 54.5C 39.5 55.700001 38.700001 56.5 37.5 56.5L 30.5 56.5C 29.299999 56.5 28.5 55.700001 28.5 54.5L 28.5 47.5C 28.5 46.299999 29.299999 45.5 30.5 45.5L 37.5 45.5C 38.700001 45.5 39.5 46.299999 39.5 47.5L 39.5 54.5ZM 56.5 20.5C 56.5 21.700001 55.700001 22.5 54.5 22.5L 47.5 22.5C 46.299999 22.5 45.5 21.700001 45.5 20.5L 45.5 13.5C 45.5 12.3 46.299999 11.5 47.5 11.5L 54.5 11.5C 55.700001 11.5 56.5 12.3 56.5 13.5L 56.5 20.5ZM 39.5 20.5C 39.5 21.700001 38.700001 22.5 37.5 22.5L 30.5 22.5C 29.299999 22.5 28.5 21.700001 28.5 20.5L 28.5 13.5C 28.5 12.3 29.299999 11.5 30.5 11.5L 37.5 11.5C 38.700001 11.5 39.5 12.3 39.5 13.5L 39.5 20.5ZM 39.5 37.5C 39.5 38.700001 38.700001 39.5 37.5 39.5L 30.5 39.5C 29.299999 39.5 28.5 38.700001 28.5 37.5L 28.5 30.5C 28.5 29.299999 29.299999 28.5 30.5 28.5L 37.5 28.5C 38.700001 28.5 39.5 29.299999 39.5 30.5L 39.5 37.5ZM 56.5 37.5C 56.5 38.700001 55.700001 39.5 54.5 39.5L 47.5 39.5C 46.299999 39.5 45.5 38.700001 45.5 37.5L 45.5 30.5C 45.5 29.299999 46.299999 28.5 47.5 28.5L 54.5 28.5C 55.700001 28.5 56.5 29.299999 56.5 30.5L 56.5 37.5ZM 22.5 34.099998L 28.5 34.099998M 39.5 34.099998L 45.5 34.099998M 10 10M 39.5 17.1001L 45.5 17.1001M 10 10M 51.0998 22.5L 51.0998 28.5M 10 10M 17.099861 39.5L 17.099861 45.5M 10 10M 22.5 51.099998L 28.5 51.099998"></path></g></g></g><g id="g-root-tx_allowsus_zk1wqdq5lczl-fill" data-item-order="0" transform="translate(722, 152)"><g id="tx_allowsus_zk1wqdq5lczl-fill-merged" stroke="none" fill="#f4f4f4" fill-opacity="1"><g><text style="font: 15px Roboto, sans-serif; white-space: pre;" transform="translate(10, 28)" font-size="15px" font-family="Roboto, sans-serif"><tspan x="2" y="-0.5" dominant-baseline="ideographic">Allows users to pay with </tspan><tspan x="2" y="17.5" dominant-baseline="ideographic">any stablecoin</tspan></text></g></g></g><g id="g-root-tx_allowsus_zk1wqdq5lczl-stroke" data-item-order="0" transform="translate(722, 152)"></g><g id="g-root-tx_liskbloc_4j6t4lq5y0we-fill" data-item-order="0" transform="translate(722, 662)"><g id="tx_liskbloc_4j6t4lq5y0we-fill-merged" stroke="none" fill="#fb6762" fill-opacity="1"><g><text style="font: bold 20px Roboto, sans-serif; white-space: pre;" transform="translate(10, 22)" font-weight="bold" font-size="20px" font-family="Roboto, sans-serif"><tspan x="2" y="11.5" dominant-baseline="ideographic">Lisk Blockchain</tspan></text></g></g></g><g id="g-root-tx_liskbloc_4j6t4lq5y0we-stroke" data-item-order="0" transform="translate(722, 662)"></g><g id="g-root-tx_consumer_zk1wqdq5lczk-fill" data-item-order="0" transform="translate(722, 116)"><g id="tx_consumer_zk1wqdq5lczk-fill-merged" stroke="none" fill="#1ac3fb" fill-opacity="1"><g><text style="font: bold 20px Roboto, sans-serif; white-space: pre;" transform="translate(10, 22)" font-weight="bold" font-size="20px" font-family="Roboto, sans-serif"><tspan x="2" y="11.5" dominant-baseline="ideographic">Consumer Payments</tspan></text></g></g></g><g id="g-root-tx_consumer_zk1wqdq5lczk-stroke" data-item-order="0" transform="translate(722, 116)"></g><g id="g-root-tx_theunder_3db05q5y1on-fill" data-item-order="0" transform="translate(722, 698)"><g id="tx_theunder_3db05q5y1on-fill-merged" stroke="none" fill="#f4f4f4" fill-opacity="1"><g><text style="font: 15px Roboto, sans-serif; white-space: pre;" transform="translate(10, 28)" font-size="15px" font-family="Roboto, sans-serif"><tspan x="2" y="-0.5" dominant-baseline="ideographic">The underlying blockchain </tspan><tspan x="2" y="17.5" dominant-baseline="ideographic">technology</tspan></text></g></g></g><g id="g-root-tx_theunder_3db05q5y1on-stroke" data-item-order="0" transform="translate(722, 698)"></g><g id="g-root-ic_addr_m7z0fpq5fqj0-fill" data-item-order="0" transform="translate(650, 764)"></g><g id="g-root-ic_addr_m7z0fpq5fqj0-stroke" data-item-order="0" transform="translate(650, 764)"><g id="ic_addr_m7z0fpq5fqj0-stroke" fill="none" stroke-linecap="round" stroke-linejoin="round" stroke-miterlimit="4" stroke="#f4f4f4" stroke-width="2" stroke-opacity="1"><g><path d="M 43 47C 43 49.209141 44.790859 51 47 51C 49.209141 51 51 49.209141 51 47C 51 44.790859 49.209141 43 47 43C 44.790859 43 43 44.790859 43 47ZM 49.574001 56.666C 45.435844 57.768303 41.055141 56.113277 38.679596 52.550102C 36.304054 48.986931 36.461056 44.306648 39.070042 40.910683C 41.679028 37.514717 46.160797 36.156979 50.215778 37.534119C 54.27076 38.911263 56.998737 42.717548 57 47L 57 48C 57 49.656857 55.656857 51 54 51C 52.343147 51 51 49.656857 51 48M 11 37C 11.019445 35.143372 11.403379 33.308643 12.13 31.6C 12.93 30 16.256001 28.9 20.436001 27.351999C 21.566 26.934 21.380001 23.984001 20.880001 23.431999C 19.268551 21.685833 18.479071 19.334854 18.709999 16.969999C 18.565205 15.46426 19.052738 13.966075 20.055944 12.833911C 21.059151 11.701747 22.487778 11.037463 24 11C 25.512222 11.037463 26.940847 11.701747 27.944054 12.833911C 28.947262 13.966075 29.434793 15.46426 29.289999 16.969999C 29.521515 19.335524 28.731993 21.687351 27.119999 23.433998C 26.620001 23.986 26.434 26.936001 27.563999 27.354C 31.743999 28.902 35.071999 30.007999 35.870003 31.601999C 36.596619 33.310646 36.980553 35.14537 37 37.001999ZM 31.823999 11.474C 32.506039 11.159061 33.248764 10.997273 34 11C 35.512222 11.037463 36.940849 11.701747 37.944054 12.833911C 38.947262 13.966075 39.434792 15.46426 39.290001 16.969999C 39.521515 19.335524 38.731995 21.687351 37.119999 23.433998C 36.620003 23.986 36.433998 26.936001 37.563999 27.354C 41.743999 28.902 45.071999 30.007999 45.869999 31.601999C 45.931999 31.728001 45.992001 31.856001 46.048 31.986"></path></g></g></g><g id="g-root-tx_leverage_hteghhq5ik99-fill" data-item-order="0" transform="translate(722, 1010)"><g id="tx_leverage_hteghhq5ik99-fill-merged" stroke="none" fill="#f4f4f4" fill-opacity="1"><g><text style="font: 15px Roboto, sans-serif; white-space: pre;" transform="translate(10, 28)" font-size="15px" font-family="Roboto, sans-serif"><tspan x="2" y="-0.5" dominant-baseline="ideographic">Leverages AI for intelligent </tspan><tspan x="2" y="17.5" dominant-baseline="ideographic">routing and security</tspan></text></g></g></g><g id="g-root-tx_leverage_hteghhq5ik99-stroke" data-item-order="0" transform="translate(722, 1010)"></g><g id="g-root-ic_pay_qoewhhq5ldsa-fill" data-item-order="0" transform="translate(650, 122)"></g><g id="g-root-ic_pay_qoewhhq5ldsa-stroke" data-item-order="0" transform="translate(650, 122)"><g id="ic_pay_qoewhhq5ldsa-stroke" fill="none" stroke-linecap="round" stroke-linejoin="round" stroke-miterlimit="4" stroke="#f4f4f4" stroke-width="2" stroke-opacity="1"><g><path d="M 51.271999 19.48C 46.542534 15.21146 40.370041 12.895702 34 13C 21.298 13 11 21.538 11 32.080002C 11.10987 37.447594 13.661189 42.472179 17.93 45.728001C 18.062672 45.835087 18.131338 46.002602 18.112 46.171997L 17.200001 54.453999C 17.178574 54.649185 17.273373 54.83884 17.442354 54.93885C 17.611334 55.03886 17.823208 55.030704 17.984001 54.917999C 17.984001 54.917999 24.046 50.771999 25.172001 49.917999C 25.292025 49.826149 25.447268 49.793777 25.594 49.829998C 28.349138 50.532349 31.162952 50.980228 34 51.167999C 46.702 51.167999 57 42.622002 57 32.080002C 56.990871 29.148138 56.19595 26.272327 54.698002 23.751999C 54.55938 23.516079 54.330135 23.347267 54.063702 23.284908C 53.797268 23.222553 53.516922 23.272099 53.287998 23.422001L 27.226 40.468002C 27.133856 40.528149 27.021 40.547684 26.914 40.522003C 26.80751 40.49588 26.71641 40.427197 26.662001 40.332001L 19.681999 28.238001C 19.593983 28.0825 19.619776 27.887484 19.74519 27.76021C 19.870605 27.632936 20.065222 27.60428 20.222 27.690001L 28.691999 32.400002C 28.815762 32.471451 28.968241 32.471451 29.092001 32.400002L 51.271999 19.48"></path></g></g></g><g id="g-root-tx_erc4337a_zit1pxq5fs3u-fill" data-item-order="0" transform="translate(722, 758)"><g id="tx_erc4337a_zit1pxq5fs3u-fill-merged" stroke="none" fill="#f366bb" fill-opacity="1"><g><text style="font: bold 20px Roboto, sans-serif; white-space: pre;" transform="translate(10, 34)" font-weight="bold" font-size="20px" font-family="Roboto, sans-serif"><tspan x="2" y="-0.5" dominant-baseline="ideographic">ERC-4337 Account </tspan><tspan x="2" y="23.5" dominant-baseline="ideographic">Abstraction</tspan></text></g></g></g><g id="g-root-tx_erc4337a_zit1pxq5fs3u-stroke" data-item-order="0" transform="translate(722, 758)"></g><g id="g-root-tx_enhances_m7z0fpq5fqiz-fill" data-item-order="0" transform="translate(722, 818)"><g id="tx_enhances_m7z0fpq5fqiz-fill-merged" stroke="none" fill="#f4f4f4" fill-opacity="1"><g><text style="font: 15px Roboto, sans-serif; white-space: pre;" transform="translate(10, 28)" font-size="15px" font-family="Roboto, sans-serif"><tspan x="2" y="-0.5" dominant-baseline="ideographic">Enhances user experience </tspan><tspan x="2" y="17.5" dominant-baseline="ideographic">with gasless payments</tspan></text></g></g></g><g id="g-root-tx_enhances_m7z0fpq5fqiz-stroke" data-item-order="0" transform="translate(722, 818)"></g><g id="g-root-tx_vesselsc_18f2fw5q5lekv-fill" data-item-order="0" transform="translate(247.04296875, 38)"><g id="tx_vesselsc_18f2fw5q5lekv-fill-merged" stroke="none" fill="#f4f4f4" fill-opacity="1"><g><text style="font: bold 25px Roboto, sans-serif; white-space: pre;" transform="translate(250.95703125, 25)" font-weight="bold" font-size="25px" font-family="Roboto, sans-serif"><tspan x="-238.96" y="14.5" dominant-baseline="ideographic">Vessel's Comprehensive Payment Solution</tspan></text></g></g></g><g id="g-root-tx_vesselsc_18f2fw5q5lekv-stroke" data-item-order="0" transform="translate(247.04296875, 38)"></g><g id="g-root-ic_conv_1hegdthq5ft3e-fill" data-item-order="0" transform="translate(650, 884)"></g><g id="g-root-ic_conv_1hegdthq5ft3e-stroke" data-item-order="0" transform="translate(650, 884)"><g id="ic_conv_1hegdthq5ft3e-stroke" fill="none" stroke-linecap="round" stroke-linejoin="round" stroke-miterlimit="4" stroke="#f4f4f4" stroke-width="2" stroke-opacity="1"><g><path d="M 41 39.5C 41.276142 39.5 41.5 39.723858 41.5 40M 40.5 40C 40.5 39.723858 40.723858 39.5 41 39.5M 41 40.5C 40.723858 40.5 40.5 40.276142 40.5 40M 41.5 40C 41.5 40.276142 41.276142 40.5 41 40.5M 38 17L 45 17C 49.418278 17 53 20.581722 53 25L 53 31M 42 21L 38 17L 42 13M 29 51L 23 51C 18.581722 51 15 47.418278 15 43L 15 37M 25 47L 29 51L 25 55M 45 51L 45 43C 45 41.895432 45.895432 41 47 41L 49 41M 45 47L 48 47M 18 18.5C 18.276142 18.5 18.5 18.723858 18.5 19M 17.5 19C 17.5 18.723858 17.723858 18.5 18 18.5M 18 19.5C 17.723858 19.5 17.5 19.276142 17.5 19M 18.5 19C 18.5 19.276142 18.276142 19.5 18 19.5M 25 19C 22.790861 19 21 20.790861 21 23L 21 25C 21 27.209139 22.790861 29 25 29M 11 23C 11 29.627417 16.372583 35 23 35C 29.627417 35 35 29.627417 35 23C 35 16.372583 29.627417 11 23 11C 16.372583 11 11 16.372583 11 23ZM 33 45C 33 51.627419 38.372581 57 45 57C 51.627419 57 57 51.627419 57 45C 57 38.372581 51.627419 33 45 33C 38.372581 33 33 38.372581 33 45Z"></path></g></g></g><g id="g-root-ic_smar_v6qaydq5qznr-fill" data-item-order="0" transform="translate(650, 476)"></g><g id="g-root-ic_smar_v6qaydq5qznr-stroke" data-item-order="0" transform="translate(650, 476)"><g id="ic_smar_v6qaydq5qznr-stroke" fill="none" stroke-linecap="round" stroke-linejoin="round" stroke-miterlimit="4" stroke="#f4f4f4" stroke-width="2" stroke-opacity="1"><g><path d="M 33.492001 47.950001L 29.492001 47.950001C 26.178291 47.950001 23.492001 45.26371 23.492001 41.950001L 23.492001 36.950001M 19.492001 39.950001L 23.492001 35.950001L 27.492001 39.950001M 44.757999 32.950001L 54.757999 32.950001C 54.757999 32.950001 56.757999 32.950001 56.757999 34.950001L 56.757999 54.950001C 56.757999 54.950001 56.757999 56.950001 54.757999 56.950001L 44.757999 56.950001C 44.757999 56.950001 42.757999 56.950001 42.757999 54.950001L 42.757999 34.950001C 42.757999 34.950001 42.757999 32.950001 44.757999 32.950001M 56.757999 50.950001L 42.757999 50.950001M 35.242001 13.05L 35.242001 27.050001C 35.242001 27.050001 35.242001 29.050001 33.242001 29.050001L 13.242001 29.050001C 13.242001 29.050001 11.242 29.050001 11.242 27.050001L 11.242 13.05C 11.242 13.05 11.242 11.05 13.242001 11.05L 33.242001 11.05C 33.242001 11.05 35.242001 11.05 35.242001 13.05M 35.242001 17.049999L 11.242 17.049999M 28.242001 24.049999L 31.242001 24.049999"></path></g></g></g><g id="g-root-tx_stablesw_1qa3e2dq5fsao-fill" data-item-order="0" transform="translate(722, 878)"><g id="tx_stablesw_1qa3e2dq5fsao-fill-merged" stroke="none" fill="#cb68f9" fill-opacity="1"><g><text style="font: bold 20px Roboto, sans-serif; white-space: pre;" transform="translate(10, 22)" font-weight="bold" font-size="20px" font-family="Roboto, sans-serif"><tspan x="2" y="11.5" dominant-baseline="ideographic">StableSwap AMM</tspan></text></g></g></g><g id="g-root-tx_stablesw_1qa3e2dq5fsao-stroke" data-item-order="0" transform="translate(722, 878)"></g><g id="g-root-tx_facilita_1hegdthq5ft3d-fill" data-item-order="0" transform="translate(722, 914)"><g id="tx_facilita_1hegdthq5ft3d-fill-merged" stroke="none" fill="#f4f4f4" fill-opacity="1"><g><text style="font: 15px Roboto, sans-serif; white-space: pre;" transform="translate(10, 28)" font-size="15px" font-family="Roboto, sans-serif"><tspan x="2" y="-0.5" dominant-baseline="ideographic">Facilitates stablecoin </tspan><tspan x="2" y="17.5" dominant-baseline="ideographic">swaps</tspan></text></g></g></g><g id="g-root-tx_facilita_1hegdthq5ft3d-stroke" data-item-order="0" transform="translate(722, 914)"></g><g id="g-root-tx_gaslesst_1utnnjpq5o6q2-fill" data-item-order="0" transform="translate(722, 350)"><g id="tx_gaslesst_1utnnjpq5o6q2-fill-merged" stroke="none" fill="#a6da37" fill-opacity="1"><g><text style="font: bold 20px Roboto, sans-serif; white-space: pre;" transform="translate(10, 34)" font-weight="bold" font-size="20px" font-family="Roboto, sans-serif"><tspan x="2" y="-0.5" dominant-baseline="ideographic">Gasless </tspan><tspan x="2" y="23.5" dominant-baseline="ideographic">Transactions</tspan></text></g></g></g><g id="g-root-tx_gaslesst_1utnnjpq5o6q2-stroke" data-item-order="0" transform="translate(722, 350)"></g><g id="g-root-tx_awsaiser_qp1gqdq5ijgk-fill" data-item-order="0" transform="translate(722, 974)"><g id="tx_awsaiser_qp1gqdq5ijgk-fill-merged" stroke="none" fill="#8769fd" fill-opacity="1"><g><text style="font: bold 20px Roboto, sans-serif; white-space: pre;" transform="translate(10, 22)" font-weight="bold" font-size="20px" font-family="Roboto, sans-serif"><tspan x="2" y="11.5" dominant-baseline="ideographic">AWS AI Services</tspan></text></g></g></g><g id="g-root-tx_awsaiser_qp1gqdq5ijgk-stroke" data-item-order="0" transform="translate(722, 974)"></g><g id="g-root-tx_eliminat_1qdu5f9q5o7ib-fill" data-item-order="0" transform="translate(722, 410)"><g id="tx_eliminat_1qdu5f9q5o7ib-fill-merged" stroke="none" fill="#f4f4f4" fill-opacity="1"><g><text style="font: 15px Roboto, sans-serif; white-space: pre;" transform="translate(10, 28)" font-size="15px" font-family="Roboto, sans-serif"><tspan x="2" y="-0.5" dominant-baseline="ideographic">Eliminates gas fees for </tspan><tspan x="2" y="17.5" dominant-baseline="ideographic">users</tspan></text></g></g></g><g id="g-root-tx_eliminat_1qdu5f9q5o7ib-stroke" data-item-order="0" transform="translate(722, 410)"></g><g id="g-root-ic_clou_ddkyd1q5il1i-fill" data-item-order="0" transform="translate(650, 980)"></g><g id="g-root-ic_clou_ddkyd1q5il1i-stroke" data-item-order="0" transform="translate(650, 980)"><g id="ic_clou_ddkyd1q5il1i-stroke" fill="none" stroke-linecap="round" stroke-linejoin="round" stroke-miterlimit="4" stroke="#f4f4f4" stroke-width="2" stroke-opacity="1"><g><path d="M 49.534 56.731998L 49.534 43.664001M 46.919998 43.664001L 52.147999 43.664001M 46.919998 56.731998L 52.147999 56.731998M 32.237999 56.731998L 32.237999 51.504002M 32.237999 51.504002L 36.16 51.504002C 38.324745 51.5037 40.07946 49.748745 40.07946 47.584C 40.07946 45.419254 38.324745 43.664299 36.16 43.664001L 32.237999 43.664001ZM 14.941999 56.731998L 16.417999 46.894001C 16.713694 45.051308 18.303732 43.696075 20.17 43.696075C 22.03627 43.696075 23.626307 45.051308 23.922001 46.894001L 25.4 56.731998M 15.628 52.158001L 24.712 52.158001M 57 29.268C 57.00251 26.553617 55.899284 23.955311 53.944599 22.071943C 51.98991 20.188576 49.352413 19.182644 46.639999 19.285999C 43.916706 13.503402 37.61792 10.304704 31.342236 11.517374C 25.066551 12.730043 20.412907 18.045113 20.040001 24.426001C 17.828627 23.962803 15.526266 24.520912 13.772458 25.945301C 12.01865 27.369688 11.000196 29.508636 11 31.768C 11 39.388 19 39.267998 19 39.267998L 48 39.267998C 48 39.267998 57 38.096001 57 29.268Z"></path></g></g></g></g></g><path id="w1hitpevmjw9hh" d="M65.283 12.757a.35.35 0 0 0 .584.157l5.203-5.141-6.183 3.523.396 1.461zm-2.216-11.7a.35.35 0 0 0-.522.305v3.111l3.276-1.868-2.754-1.548zm3.728 2.105l-4.25 2.421v2.445l6.391-3.644-2.141-1.222zm4.708 3.303a.35.35 0 0 0 0-.609l-1.592-.9-7.365 4.199v1.782a.35.35 0 0 0 .523.305l8.435-4.777z M44.542 2.513c0-.433.355-.783.792-.783s.792.35.792.783-.355.783-.792.783-.792-.35-.792-.783zm59.171 0c0-.433.355-.783.792-.783s.792.35.792.783-.355.783-.792.783-.792-.35-.792-.783zm-85.951 7.636h-1.27v-.487c-.276.201-.864.609-1.881.609-1.202 0-2.274-.794-2.137-2.078.118-1.106 1.153-1.584 1.848-1.727l2.17-.345c0-.539-.29-.956-1.064-1.006s-1.21.305-1.571 1.017l-1.124-.605c1.218-2.631 5.029-1.764 5.029.414v4.207zm-1.27-2.86c.006.396-.062 1.112-.819 1.59-.587.37-1.841.299-1.903-.395-.049-.555.461-.791.906-.898l1.816-.297zm72.662 2.86h-1.27v-.487c-.276.201-.864.609-1.881.609-1.202 0-2.274-.794-2.137-2.078.118-1.106 1.153-1.584 1.848-1.727l2.17-.345c0-.539-.29-.956-1.064-1.006s-1.21.305-1.571 1.017l-1.124-.605c1.218-2.631 5.029-1.764 5.029.414v4.207zm-1.27-2.86c.006.396-.062 1.112-.82 1.59-.587.37-1.841.299-1.903-.395-.049-.555.461-.791.906-.898l1.816-.297zM99.096 10.149H97.85v-8.45h1.246v4.895l2.68-2.559h1.738l-2.633 2.535 2.715 3.578h-1.556l-2.077-2.707-.867.844v1.863zm6.053-6.114h-1.255v6.113h1.255V4.035zm-59.2 0h-1.255v6.113h1.255V4.035zm5.584 6.113V1.697h1.255v2.695c.361-.346 1-.485 1.47-.485 1.452 0 2.477 1.082 2.457 2.448v3.792h-1.27v-3.68c0-.408-.214-1.339-1.315-1.339-.968 0-1.342.756-1.342 1.339v3.681h-1.255zm-4.76-4.894V4.039h.621a.45.45 0 0 0 .45-.45v-.855h1.251v1.305h1.309v1.215h-1.309v3.109c0 .293.105.664.648.664.365 0 .531-.035.736-.07v1.137s-.361.113-.857.113c-1.398 0-1.777-1.051-1.777-1.788V5.254h-1.071zM36.528 4.039h-1.394l2.191 6.106h1.125l1.234-3.918 1.238 3.918h1.129l2.188-6.106h-1.383l-1.359 3.93-1.256-3.93h-1.124l-1.242 3.957-1.348-3.957zM26.212 7.141c-.02 1.566 1.187 3.129 3.223 3.129 1.566 0 2.383-.918 2.734-1.719L31.172 8c-.315.399-.801 1.094-1.738 1.094-1.145 0-1.825-.781-1.891-1.52h4.625c.074-.284.148-.995-.03-1.559-.336-1.064-1.221-2.102-2.839-2.102s-3.088 1.152-3.088 3.227zm1.363-.75h3.348c-.055-.43-.566-1.301-1.623-1.301a1.79 1.79 0 0 0-1.725 1.301zm-8.758.75c.038 1.758 1.277 3.133 3.145 3.133 1.074 0 1.723-.477 1.961-.672v.547h1.242V1.703h-1.258v2.888c-.414-.36-1.062-.68-1.93-.68-1.91 0-3.198 1.473-3.16 3.23zm1.309-.08c0 1.119.723 1.978 1.836 1.978a1.88 1.88 0 0 0 1.94-1.904c0-1.371-1.011-1.99-1.972-1.99s-1.805.798-1.805 1.916zm76.683-.028C96.771 5.275 95.532 3.9 93.664 3.9c-1.074 0-1.723.477-1.961.672v-.547h-1.242v8.22h1.258V9.583c.414.36 1.063.68 1.93.68 1.91 0 3.198-1.473 3.16-3.23zm-1.309.08c0-1.119-.723-1.978-1.836-1.978a1.88 1.88 0 0 0-1.94 1.904c0 1.371 1.011 1.99 1.972 1.99S95.5 8.231 95.5 7.113zM106.441 10.173V4.036h1.254v.382c.361-.346 1-.485 1.47-.485 1.452 0 2.477 1.082 2.457 2.448v3.792h-1.27V6.492c0-.408-.214-1.339-1.315-1.339-.969 0-1.342.756-1.342 1.339v3.681h-1.254zm-30.383-.021V1.824h1.084l4.215 5.777V1.824h1.32v8.328h-1.094l-4.207-5.796v5.796h-1.319zM5.24 10.149H4V2.377h1.014l2.664 3.597 2.654-3.592h1.03v7.766h-1.256V4.762L7.678 8.068 5.24 4.742v5.407z" transform="translate(20, 1094)" fill="#ababab88" stroke="none"></path></svg>