<?xml version="1.0" encoding="utf-8" standalone="yes"?>
<!DOCTYPE svg PUBLIC "-//W3C//DTD SVG 1.1//EN" "http://www.w3.org/Graphics/SVG/1.1/DTD/svg11.dtd">
<svg style="fill:none;stroke:none;fill-rule:evenodd;clip-rule:evenodd;stroke-linecap:round;stroke-linejoin:round;stroke-miterlimit:1.5;" version="1.1" xmlns="http://www.w3.org/2000/svg" xmlns:xlink="http://www.w3.org/1999/xlink" width="804" height="762" viewBox="0 0 804 762"><style class="text-font-style fontImports" data-font-family="Roboto">@import url(https://fonts.googleapis.com/css2?family=Roboto:wght@400;700&amp;amp;display=block);</style><g id="items" style="isolation: isolate"><g id="blend" style="mix-blend-mode: normal"><g id="g-root-cp_0_g-0_dbp9l3o7mscu-fill" data-item-order="-503486" transform="translate(43.000030517578125, 260)"><g id="cp_0_g-0_dbp9l3o7mscu-fill-merged" stroke="none" fill="#959595" fill-opacity="1"><g><path d="M656 21.606C656 19.726 658.358 18.884 659.548 20.339L707.928 79.473C709.133 80.946 709.133 83.065 707.928 84.538L659.548 143.666C658.358 145.121 656 144.279 656 142.4 V118.006 H586.365C592.493 107.415 596 95.118 596 82.002C596 68.889 592.494 56.595 586.369 46.006 H656 V21.606"></path></g></g><g id="cp_0_g-0_dbp9l3o7mscu-fill-merged" stroke="none" fill="#959595" fill-opacity="1"><g><path d="M59.683 20.911C61.513 19.005 64.832 20.275 64.832 23.006 V46.406 H137.603C135.242 58.239 134 70.476 134 83.002C134 95.814 135.297 108.323 137.764 120.406 H64.832 V143.8C64.832 146.531 61.513 147.801 59.683 145.895L59.51 145.7L11.13 86.572C9.623 84.731 9.623 82.082 11.13 80.24L59.51 21.107L59.683 20.911"></path></g></g><g id="cp_0_g-0_dbp9l3o7mscu-fill-merged" stroke="none" fill="#959595" fill-opacity="1"><g><path d="M524 10C563.764 10 596 42.236 596 82C596 121.765 563.764 154 524 154C508.305 154 493.784 148.977 481.954 140.453C478.203 123.9 476 103.745 476 82C476 60.255 478.202 40.099 481.954 23.546C493.784 15.022 508.305 10 524 10"></path></g></g></g><g id="g-root-cp_0_g-0_dbp9l3o7mscu-stroke" data-item-order="-503486" transform="translate(43.000030517578125, 260)"><g id="cp_0_g-0_dbp9l3o7mscu-stroke" fill="none" stroke-linecap="round" stroke-linejoin="round" stroke-miterlimit="4" stroke="#f4f4f4" stroke-width="2" stroke-opacity="1"><g><path d="M 656.000003 21.605663C 656.000003 19.726063 658.357603 18.884263 659.547803 20.339063L 707.927703 79.472862C 709.133003 80.946263 709.133003 83.064863 707.927703 84.538263L 659.547803 143.666162C 658.357603 145.120863 656.000003 144.279162 656.000003 142.399563L 656.000003 118.006063L 586.365203 118.006063C 592.492703 107.414963 596.000003 95.118063 596.000003 82.002163C 595.999903 68.889263 592.494003 56.595463 586.369103 46.006063L 656.000003 46.006063L 656.000003 21.605663Z"></path></g></g><g id="cp_0_g-0_dbp9l3o7mscu-stroke" fill="none" stroke-linecap="round" stroke-linejoin="round" stroke-miterlimit="4" stroke="#f4f4f4" stroke-width="2" stroke-opacity="1"><g><path d="M 59.682669 20.9112C 61.513269 19.0048 64.831869 20.2751 64.832069 23.0059L 64.832069 46.4063L 137.602569 46.4063C 135.241669 58.2387 134.000069 70.4755 134.000069 83.002C 134.000069 95.814 135.296769 108.3233 137.763669 120.4063L 64.832069 120.4063L 64.832069 143.7999C 64.832069 146.531 61.513269 147.801 59.682669 145.8946L 59.509769 145.7003L 11.129869 86.5723C 9.623269 84.7307 9.623369 82.0821 11.129869 80.2403L 59.509769 21.1065L 59.682669 20.9112Z"></path></g></g><g id="cp_0_g-0_dbp9l3o7mscu-stroke" fill="none" stroke-linecap="round" stroke-linejoin="round" stroke-miterlimit="4" stroke="#f4f4f4" stroke-width="2" stroke-opacity="1"><g><path d="M 523.999969 10C 563.764469 10 595.999969 42.2355 595.999969 82C 595.999969 121.7645 563.764469 154 523.999969 154C 508.305169 154 493.783969 148.9775 481.954069 140.4531C 478.202569 123.8999 475.999969 103.7447 475.999969 82C 475.999969 60.2549 478.202469 40.0993 481.954069 23.5459C 493.783869 15.0218 508.305469 10 523.999969 10Z"></path></g></g></g><g id="g-root-cp_1_g-1_8vvrgno7mt53-fill" data-item-order="-503478" transform="translate(167, 146)"><g id="cp_1_g-1_8vvrgno7mt53-fill-merged" stroke="none" fill="url(#gradient-d4c11a-371111188)" fill-opacity="1"><g><path d="M196 10C156.236 10 124 93.275 124 196C124 298.725 156.236 382 196 382C93.275 382 10 298.725 10 196C10 93.275 93.275 10 196 10 M199 369C209.044 369 218.074 362.981 226.5 351.5C225.999 351.348 225.499 351.194 225 351.037C198.893 342.828 176.066 327.777 157.5 308.566C154.214 305.166 150.995 301.317 148.015 297.641C159.467 340.886 178.038 369 199 369 M234.526 38.844C223.386 20.578 210.172 10 196 10C156.236 10 124 93.275 124 196C124 298.725 156.236 382 196 382C210.172 382 223.359 372.266 234.5 354C234.5 354 228.915 352.233 226.5 351.5C218.074 362.981 209.044 369 199 369C178.038 369 159.467 340.886 148.015 297.641C141.757 274.011 137.624 245.862 136.388 215.314C136.241 211.683 136.135 208.018 136.072 204.323C136.065 203.938 136.059 203.551 136.053 203.165C136.047 202.784 136.042 202.402 136.037 202.02C136.012 200.021 136 198.015 136 196C136 194.007 136.012 192.022 136.037 190.046C136.081 186.43 136.166 182.843 136.29 179.287C137.396 147.603 141.615 118.414 148.096 94.053C159.555 50.982 178.088 23 199 23C209.044 23 218.538 29.454 226.964 40.935C228.327 40.519 231.747 39.519 234.526 38.844 M226.964 40.935C218.538 29.454 209.044 23 199 23C178.088 23 159.555 50.982 148.096 94.053C164 76 188 52.5 226.964 40.935 M136.313 213.346C136.318 213.484 136.322 213.622 136.327 213.761C136.346 214.279 136.367 214.797 136.388 215.314C136.409 215.822 136.431 216.329 136.453 216.836 M136.017 199.917C136.022 200.619 136.029 201.32 136.037 202.02C136.047 202.789 136.058 203.557 136.072 204.323C136.083 204.965 136.096 205.606 136.109 206.246 M136.053 188.833C136.047 189.237 136.041 189.641 136.037 190.046C136.029 190.723 136.022 191.402 136.017 192.082 M136.327 178.237C136.322 178.377 136.318 178.517 136.313 178.656C136.305 178.867 136.298 179.077 136.29 179.287C136.265 180.007 136.243 180.728 136.221 181.45 M137.056 164.313C137.12 163.359 137.186 162.408 137.256 161.46 M157.5 308.566C176.124 327.837 198.802 342.79 225 351.037"></path></g></g></g><g id="g-root-cp_1_g-1_8vvrgno7mt53-stroke" data-item-order="-503478" transform="translate(167, 146)"><g id="cp_1_g-1_8vvrgno7mt53-stroke" fill="none" stroke-linecap="round" stroke-linejoin="round" stroke-miterlimit="4" stroke="#f4f4f4" stroke-width="2" stroke-opacity="1"><g><path d="M 196 10C 156.2355 10 124 93.275 124 196C 124 298.725 156.2355 382 196 382C 93.275 382 10 298.725 10 196C 10 93.275 93.275 10 196 10ZM 199 369C 209.0439 369 218.074 362.9806 226.5 351.5C 225.9988 351.3479 225.4987 351.1939 225 351.037C 198.8935 342.8276 176.0661 327.7766 157.5 308.5656C 154.2144 305.1658 150.9954 301.3173 148.0149 297.641C 159.4674 340.8864 178.0378 369 199 369ZM 234.5264 38.8438C 223.3856 20.5784 210.1718 10 196 10C 156.2355 10 124 93.275 124 196C 124 298.725 156.2355 382 196 382C 210.172 382 223.3591 372.2658 234.5 354C 234.5 354 228.9153 352.2329 226.5 351.5C 218.074 362.9806 209.0439 369 199 369C 178.0378 369 159.4674 340.8864 148.0149 297.641C 141.757 274.0107 137.6241 245.8624 136.3882 215.3139C 136.2414 211.6831 136.1354 208.0184 136.0716 204.3233C 136.0648 203.9375 136.0585 203.5515 136.0527 203.165C 136.0471 202.7836 136.042 202.4017 136.0374 202.0196C 136.0125 200.0215 136 198.0148 136 196C 136 194.0071 136.0123 192.0221 136.0366 190.0455C 136.0812 186.4302 136.1661 182.843 136.2902 179.2873C 137.3963 147.6029 141.6146 118.414 148.0957 94.0527C 159.5547 50.9819 178.0876 23 199 23C 209.0437 23 218.538 29.4544 226.9639 40.9346C 228.3268 40.5189 231.7475 39.5188 234.5264 38.8438ZM 226.9639 40.9346C 218.538 29.4544 209.0437 23 199 23C 178.0876 23 159.5547 50.9819 148.0957 94.0527C 164 76 188 52.5 226.9639 40.9346ZM 136.3125 213.3457C 136.3175 213.4841 136.322 213.6225 136.3271 213.7607C 136.3464 214.2791 136.3669 214.7969 136.3882 215.3139C 136.4092 215.8219 136.431 216.3292 136.4531 216.8359M 136.0166 199.917C 136.0223 200.6189 136.029 201.3198 136.0374 202.0196C 136.047 202.7888 136.0584 203.5567 136.0716 204.3233C 136.083 204.9652 136.0958 205.6061 136.1094 206.2461M 136.0527 188.833C 136.0467 189.2368 136.0414 189.641 136.0366 190.0455C 136.0286 190.7233 136.0221 191.4022 136.0166 192.082M 136.3271 178.2373C 136.322 178.3769 136.3176 178.5166 136.3125 178.6563C 136.3049 178.8665 136.2975 179.0768 136.2902 179.2873C 136.2654 180.007 136.2426 180.728 136.2207 181.4502M 137.0557 164.3125C 137.1199 163.3589 137.1859 162.408 137.2559 161.46M 157.5 308.5656C 176.1245 327.8371 198.8022 342.7903 225 351.037"></path></g></g></g><g id="g-root-cp_2_g-2_8vvrgno7mt54-fill" data-item-order="-503474" transform="translate(293, 170)"><g id="cp_2_g-2_8vvrgno7mt54-fill-merged" stroke="none" fill="url(#gradient-c87c35-206254501)" fill-opacity="1"><g><path d="M22.096 273.946C51.797 310.582 97.163 335 148 335C111.549 335 82 262.246 82 172.5C82 82.754 111.549 10 148 10C97.163 10 51.797 33.418 22.096 70.053C14.49 98.643 10 133.882 10 172C10 210.118 14.49 245.357 22.096 273.946 M176.976 306.499C149.187 300.115 124.602 285.339 106.029 264.983C116.471 299.712 132.902 323 151 323C160.357 323 169.186 317.048 176.976 306.499 M82 172.5C82 262.246 111.549 335 148 335C161.473 335 174.003 325.061 184.446 307.998C181.932 307.565 179.442 307.065 176.976 306.499C169.186 317.048 160.357 323 151 323C132.902 323 116.471 299.712 106.029 264.983C98.309 239.305 94 207.833 94 172.5C94 136.476 98.479 104.44 106.474 78.532C116.925 44.663 133.163 22 151 22C160.102 22 168.705 27.633 176.338 37.65C178.829 37.065 181.346 36.547 183.887 36.099C173.557 19.589 161.233 10 148 10C111.549 10 82 82.754 82 172.5 M106.474 78.532C124.85 58.582 149.031 44.061 176.338 37.65C168.705 27.633 160.102 22 151 22C133.163 22 116.925 44.663 106.474 78.532 M106.029 264.983C98.491 239.467 94 207.368 94 172.5C94 136.952 98.668 104.283 106.474 78.532"></path></g></g></g><g id="g-root-cp_2_g-2_8vvrgno7mt54-stroke" data-item-order="-503474" transform="translate(293, 170)"><g id="cp_2_g-2_8vvrgno7mt54-stroke" fill="none" stroke-linecap="round" stroke-linejoin="round" stroke-miterlimit="4" stroke="#f4f4f4" stroke-width="2" stroke-opacity="1"><g><path d="M 22.0957 273.9463C 51.7967 310.5818 97.1628 335 148 335C 111.5492 335 82 262.2463 82 172.5C 82 82.7537 111.5492 10 148 10C 97.163 10 51.7967 33.4176 22.0957 70.0527C 14.4896 98.6427 10 133.8816 10 172C 10 210.118 14.4897 245.3565 22.0957 273.9463ZM 176.9764 306.4987C 149.1872 300.1147 124.6018 285.3394 106.0293 264.9834C 116.4708 299.7122 132.9016 323 151 323C 160.3565 323 169.1865 317.0476 176.9764 306.4987ZM 82 172.5C 82 262.2463 111.5492 335 148 335C 161.4728 335 174.0027 325.0607 184.4462 307.9978C 181.9323 307.5654 179.4418 307.0651 176.9764 306.4987C 169.1865 317.0476 160.3565 323 151 323C 132.9016 323 116.4708 299.7122 106.0293 264.9834C 98.3089 239.3051 94 207.8327 94 172.5C 94 136.4757 98.4786 104.4398 106.4736 78.5322C 116.9255 44.6634 133.1635 22 151 22C 160.1017 22 168.7052 27.6326 176.3376 37.6496C 178.8289 37.0647 181.3462 36.5473 183.8875 36.0995C 173.5572 19.5892 161.2334 10 148 10C 111.5492 10 82 82.7537 82 172.5ZM 106.4736 78.5322C 124.85 58.5817 149.0311 44.0606 176.3376 37.6496C 168.7052 27.6326 160.1017 22 151 22C 133.1635 22 116.9255 44.6634 106.4736 78.5322ZM 106.0293 264.9834C 98.4914 239.4667 94 207.3682 94 172.5C 94 136.9523 98.6683 104.2832 106.4736 78.5322"></path></g></g></g><g id="g-root-cp_3_g-3_4g29c7o7mtxd-fill" data-item-order="-503470" transform="translate(377, 194)"><g id="cp_3_g-3_4g29c7o7mtxd-fill-merged" stroke="none" fill="url(#gradient-d5514c-497200298)" fill-opacity="1"><g><path d="M22.029 240.983C47.266 268.644 83.606 286 124 286C94.177 286 70 224.215 70 148C70 71.785 94.177 10 124 10C83.842 10 47.692 27.154 22.474 54.532C14.668 80.283 10 112.952 10 148.5C10 183.368 14.491 215.467 22.029 240.983 M70 148C70 224.215 94.177 286 124 286C135.596 286 146.338 276.659 155.138 260.761C152.733 260.405 150.352 259.973 147.999 259.469C141.73 268.747 134.584 274 127 274C113.501 274 101.093 256.394 92.845 230.037C85.907 207.868 82 179.791 82 148C82 116.448 86 88.066 92.845 65.962C101.096 39.315 113.416 22 127 22C134.584 22 141.73 27.253 147.999 36.531C150.352 36.027 152.733 35.595 155.138 35.238C146.338 19.341 135.596 10 124 10C94.177 10 70 71.785 70 148 M147.999 259.469C126.84 254.934 107.859 244.527 92.845 230.037C101.093 256.394 113.501 274 127 274C134.584 274 141.73 268.747 147.999 259.469 M92.845 65.962C107.859 51.472 126.84 41.065 147.999 36.531C141.73 27.253 134.584 22 127 22C113.416 22 101.096 39.315 92.845 65.962 M92.845 230.037C86.085 207.994 82 179.333 82 148C82 116.667 86.085 88.006 92.845 65.962 M155.138 35.238L147.999 36.531 M155.138 260.761L147.999 259.469"></path></g></g></g><g id="g-root-cp_3_g-3_4g29c7o7mtxd-stroke" data-item-order="-503470" transform="translate(377, 194)"><g id="cp_3_g-3_4g29c7o7mtxd-stroke" fill="none" stroke-linecap="round" stroke-linejoin="round" stroke-miterlimit="4" stroke="#f4f4f4" stroke-width="2" stroke-opacity="1"><g><path d="M 22.0293 240.9834C 47.2664 268.644 83.606 286 124 286C 94.1766 286 70 224.2153 70 148C 70 71.7847 94.1766 10 124 10C 83.8424 10 47.692 27.1536 22.4736 54.5322C 14.6683 80.2832 10 112.9523 10 148.5C 10 183.3682 14.4914 215.4667 22.0293 240.9834ZM 70 148C 70 224.2153 94.1766 286 124 286C 135.596 286 146.3382 276.6593 155.1376 260.7614C 152.7327 260.4048 150.3524 259.9731 147.999 259.4688C 141.7301 268.7467 134.5841 274 127 274C 113.501 274 101.0928 256.3943 92.8447 230.0371C 85.9074 207.8685 82 179.7906 82 148C 82 116.4478 86.0002 88.0663 92.8447 65.9619C 101.0957 39.3153 113.4158 22 127 22C 134.5841 22 141.73 27.2533 147.9989 36.5311C 150.3523 36.0268 152.7327 35.5951 155.1376 35.2385C 146.3382 19.3407 135.596 10 124 10C 94.1766 10 70 71.7847 70 148ZM 147.999 259.4688C 126.8396 254.9342 107.8589 244.5271 92.8447 230.0371C 101.0928 256.3943 113.501 274 127 274C 134.5841 274 141.7301 268.7467 147.999 259.4688ZM 92.8447 65.9619C 107.8588 51.4722 126.8396 41.0655 147.9989 36.5311C 141.73 27.2533 134.5841 22 127 22C 113.4158 22 101.0957 39.3153 92.8447 65.9619ZM 92.8447 230.0371C 86.0853 207.9936 82 179.3325 82 148C 82 116.6671 86.0851 88.0055 92.8447 65.9619M 155.1376 35.2385L 147.9989 36.5311M 155.1376 260.7614L 147.999 259.4688"></path></g></g></g><g id="g-root-cp_4_g-4_4g29c7o7mtxe-fill" data-item-order="-503466" transform="translate(449, 218)"><defs><linearGradient id="gradient-d4c11a-371111188" x2="0" y2="1"><stop offset="0" stop-color="#efd80d"></stop><stop offset="1" stop-color="#b8a926"></stop></linearGradient><linearGradient id="gradient-c87c35-206254501" x2="0" y2="1"><stop offset="0" stop-color="#de8431"></stop><stop offset="1" stop-color="#b27338"></stop></linearGradient><linearGradient id="gradient-d5514c-497200298" x2="0" y2="1"><stop offset="0" stop-color="#e45752"></stop><stop offset="1" stop-color="#c54a46"></stop></linearGradient><linearGradient id="gradient-40ae79-389135447" x2="0" y2="1"><stop offset="0" stop-color="#3bc482"></stop><stop offset="1" stop-color="#449870"></stop></linearGradient></defs><g id="cp_4_g-4_4g29c7o7mtxe-fill-merged" stroke="none" fill="url(#gradient-40ae79-389135447)" fill-opacity="1"><g><path d="M20.845 206.037C41.35 225.826 69.253 238 100 238C76.804 238 58 186.96 58 124C58 61.04 76.804 10 100 10C69.253 10 41.35 22.173 20.845 41.962C14.085 64.006 10 92.667 10 124C10 155.333 14.085 183.994 20.845 206.037 M118 196C102.324 196 87.818 190.989 75.996 182.483C75.997 182.489 75.999 182.495 76 182.5C81.98 208.522 91.887 226 103 226C112.215 226 120.548 214.325 126.535 195.499C123.736 195.83 120.888 196 118 196 M75.954 65.546C87.784 57.022 102.305 52 118 52C120.888 52 123.736 52.17 126.535 52.501C120.548 33.675 112.215 22 103 22C91.887 22 81.934 39.524 75.954 65.546 M58 124C58 186.96 76.804 238 100 238C113.402 238 125.338 220.961 133.028 194.429C130.897 194.882 128.731 195.24 126.535 195.499C120.548 214.325 112.215 226 103 226C91.887 226 81.98 208.522 76 182.5C74.972 178.027 74.067 173.34 73.29 168.445C72.478 163.326 71.806 157.978 71.285 152.425C70.444 143.451 70 133.943 70 124C70 102.255 72.202 82.099 75.954 65.546C81.934 39.524 91.887 22 103 22C112.215 22 120.548 33.675 126.535 52.501C128.731 52.76 130.897 53.118 133.028 53.571C125.338 27.039 113.402 10 100 10C76.804 10 58 61.04 58 124"></path></g></g></g><g id="g-root-cp_4_g-4_4g29c7o7mtxe-stroke" data-item-order="-503466" transform="translate(449, 218)"><g id="cp_4_g-4_4g29c7o7mtxe-stroke" fill="none" stroke-linecap="round" stroke-linejoin="round" stroke-miterlimit="4" stroke="#f4f4f4" stroke-width="2" stroke-opacity="1"><g><path d="M 20.8447 206.0371C 41.3497 225.8262 69.2527 238 100 238C 76.804 238 58 186.9605 58 124C 58 61.0395 76.804 10 100 10C 69.253 10 41.3497 22.1731 20.8447 41.9619C 14.0851 64.0055 10 92.6671 10 124C 10 155.3325 14.0853 183.9936 20.8447 206.0371ZM 118 196C 102.3239 196 87.8184 190.9893 75.9962 182.4834C 75.9975 182.489 75.9987 182.4945 76 182.5C 81.9799 208.5219 91.8873 226 103 226C 112.2152 226 120.5482 214.325 126.5352 195.4994C 123.7361 195.83 120.8879 196 118 196ZM 75.9541 65.5459C 87.7839 57.0218 102.3055 52 118 52C 120.8879 52 123.7361 52.17 126.5352 52.5006C 120.5482 33.675 112.2152 22 103 22C 91.8873 22 81.934 39.524 75.9541 65.5459ZM 58 124C 58 186.9605 76.804 238 100 238C 113.4022 238 125.3383 220.9613 133.0283 194.4293C 130.8973 194.8818 128.7313 195.24 126.5352 195.4994C 120.5482 214.325 112.2152 226 103 226C 91.8873 226 81.9799 208.5219 76 182.5L 75.9962 182.4834C 74.9724 178.0265 74.0671 173.3402 73.2902 168.4451C 72.4777 163.3255 71.8056 157.9776 71.2853 152.4251C 70.4444 143.4513 70 133.9429 70 124C 70 102.2549 72.2025 82.0993 75.9541 65.5459C 81.934 39.524 91.8873 22 103 22C 112.2152 22 120.5482 33.675 126.5352 52.5006C 128.7313 52.76 130.8973 53.1182 133.0283 53.5707C 125.3383 27.0387 113.4022 10 100 10C 76.804 10 58 61.0395 58 124Z"></path></g></g></g><g id="g-root-tx_understa_18hkrxzndwidd-fill" data-item-order="0" transform="translate(23.75390625, 38)"><g id="tx_understa_18hkrxzndwidd-fill-merged" stroke="none" fill="#f4f4f4" fill-opacity="1"><g><text style="font: bold 25px Roboto, sans-serif; white-space: pre;" transform="translate(378.24609375, 40)" font-weight="bold" font-size="25px" font-family="Roboto, sans-serif"><tspan x="-366.25" y="-0.5" dominant-baseline="ideographic">Understanding system layers from user interaction to blockchain </tspan><tspan x="-61.6" y="29.5" dominant-baseline="ideographic">execution.</tspan></text></g></g></g><g id="g-root-tx_understa_18hkrxzndwidd-stroke" data-item-order="0" transform="translate(23.75390625, 38)"></g><g id="g-root-tx_userinte_me83ufne3gub-fill" data-item-order="0" transform="translate(48.38671875, 194)"><g id="tx_userinte_me83ufne3gub-fill-merged" stroke="none" fill="#f4f4f4" fill-opacity="1"><g><text style="font: 20px Roboto, sans-serif; white-space: pre;" transform="translate(59.61328125, 34)" font-size="20px" font-family="Roboto, sans-serif"><tspan x="-20.34" y="-0.5" dominant-baseline="ideographic">User </tspan><tspan x="-47.61" y="23.5" dominant-baseline="ideographic">Interaction</tspan></text></g></g></g><g id="g-root-tx_userinte_me83ufne3gub-stroke" data-item-order="0" transform="translate(48.38671875, 194)"></g><g id="g-root-tx_blockcha_v6qqnrndwgsi-fill" data-item-order="0" transform="translate(632.8125, 194.0068359375)"><g id="tx_blockcha_v6qqnrndwgsi-fill-merged" stroke="none" fill="#f4f4f4" fill-opacity="1"><g><text style="font: 20px Roboto, sans-serif; white-space: pre;" transform="translate(63.1875, 34)" font-size="20px" font-family="Roboto, sans-serif"><tspan x="-51.19" y="-0.5" dominant-baseline="ideographic">Blockchain </tspan><tspan x="-46.01" y="23.5" dominant-baseline="ideographic">Execution</tspan></text></g></g></g><g id="g-root-tx_blockcha_v6qqnrndwgsi-stroke" data-item-order="0" transform="translate(632.8125, 194.0068359375)"></g><g id="g-root-tx_userlaye_zp254nne3if5-fill" data-item-order="0" transform="translate(106.4375, 587)"><g id="tx_userlaye_zp254nne3if5-fill-merged" stroke="none" fill="#ffe711" fill-opacity="1"><g><text style="font: 20px Roboto, sans-serif; white-space: pre;" transform="translate(58.9296875, 22)" font-size="20px" font-family="Roboto, sans-serif"><tspan x="-46.93" y="11.5" dominant-baseline="ideographic">User Layer</tspan></text></g></g></g><g id="g-root-tx_userlaye_zp254nne3if5-stroke" data-item-order="0" transform="translate(106.4375, 587)"></g><g id="g-root-tx_serverle_1q6zd6fne0ob0-fill" data-item-order="0" transform="translate(258.109375, 566)"><g id="tx_serverle_1q6zd6fne0ob0-fill-merged" stroke="none" fill="#f79438" fill-opacity="1"><g><text style="font: 20px Roboto, sans-serif; white-space: pre;" transform="translate(60.7265625, 34)" font-size="20px" font-family="Roboto, sans-serif"><tspan x="-48.73" y="-0.5" dominant-baseline="ideographic">Serverless </tspan><tspan x="-40.82" y="23.5" dominant-baseline="ideographic">Backend</tspan></text></g></g></g><g id="g-root-tx_serverle_1q6zd6fne0ob0-stroke" data-item-order="0" transform="translate(258.109375, 566)"></g><g id="g-root-tx_aiintell_18jg77bndzaip-fill" data-item-order="0" transform="translate(395.6328125, 566)"><g id="tx_aiintell_18jg77bndzaip-fill-merged" stroke="none" fill="#fb6762" fill-opacity="1"><g><text style="font: 20px Roboto, sans-serif; white-space: pre;" transform="translate(77.29296875, 34)" font-size="20px" font-family="Roboto, sans-serif"><tspan x="-65.29" y="-0.5" dominant-baseline="ideographic">AI Intelligence </tspan><tspan x="-26.6" y="23.5" dominant-baseline="ideographic">Layer</tspan></text></g></g></g><g id="g-root-tx_aiintell_18jg77bndzaip-stroke" data-item-order="0" transform="translate(395.6328125, 566)"></g><g id="g-root-tx_onchainl_mb3qevndwhl7-fill" data-item-order="0" transform="translate(555.59375, 569)"><g id="tx_onchainl_mb3qevndwhl7-fill-merged" stroke="none" fill="#43dd93" fill-opacity="1"><g><text style="font: 20px Roboto, sans-serif; white-space: pre;" transform="translate(79.16796875, 22)" font-size="20px" font-family="Roboto, sans-serif"><tspan x="-67.17" y="11.5" dominant-baseline="ideographic">On-Chain Layer</tspan></text></g></g></g><g id="g-root-tx_onchainl_mb3qevndwhl7-stroke" data-item-order="0" transform="translate(555.59375, 569)"></g><g id="g-root-tx_initiate_qtf4vrne3j7u-fill" data-item-order="0" transform="translate(88.6953125, 623)"><g id="tx_initiate_qtf4vrne3j7u-fill-merged" stroke="none" fill="#f4f4f4" fill-opacity="1"><g><text style="font: 15px Roboto, sans-serif; white-space: pre;" transform="translate(76.671875, 28)" font-size="15px" font-family="Roboto, sans-serif"><tspan x="-64.67" y="-0.5" dominant-baseline="ideographic">Initiates payments, </tspan><tspan x="-55.53" y="17.5" dominant-baseline="ideographic">scans QR codes</tspan></text></g></g></g><g id="g-root-tx_initiate_qtf4vrne3j7u-stroke" data-item-order="0" transform="translate(88.6953125, 623)"></g><g id="g-root-tx_handlesa_1lr5v1zne0p39-fill" data-item-order="0" transform="translate(246.0390625, 626)"><g id="tx_handlesa_1lr5v1zne0p39-fill-merged" stroke="none" fill="#f4f4f4" fill-opacity="1"><g><text style="font: 15px Roboto, sans-serif; white-space: pre;" transform="translate(72.796875, 37)" font-size="15px" font-family="Roboto, sans-serif"><tspan x="-27.48" y="-9.5" dominant-baseline="ideographic">Handles </tspan><tspan x="-49.38" y="8.5" dominant-baseline="ideographic">authentication, </tspan><tspan x="-60.8" y="26.5" dominant-baseline="ideographic">validates requests</tspan></text></g></g></g><g id="g-root-tx_handlesa_1lr5v1zne0p39-stroke" data-item-order="0" transform="translate(246.0390625, 626)"></g><g id="g-root-tx_optimize_znt6yfndzbbe-fill" data-item-order="0" transform="translate(400.984375, 626)"><g id="tx_optimize_znt6yfndzbbe-fill-merged" stroke="none" fill="#f4f4f4" fill-opacity="1"><g><text style="font: 15px Roboto, sans-serif; white-space: pre;" transform="translate(71.94140625, 37)" font-size="15px" font-family="Roboto, sans-serif"><tspan x="-59.94" y="-9.5" dominant-baseline="ideographic">Optimizes routes, </tspan><tspan x="-48.9" y="8.5" dominant-baseline="ideographic">forecasts gas, </tspan><tspan x="-46.06" y="26.5" dominant-baseline="ideographic">detects fraud</tspan></text></g></g></g><g id="g-root-tx_optimize_znt6yfndzbbe-stroke" data-item-order="0" transform="translate(400.984375, 626)"></g><g id="g-root-tx_processe_hva8afndwidg-fill" data-item-order="0" transform="translate(554.21875, 605)"><g id="tx_processe_hva8afndwidg-fill-merged" stroke="none" fill="#f4f4f4" fill-opacity="1"><g><text style="font: 15px Roboto, sans-serif; white-space: pre;" transform="translate(80.54296875, 46)" font-size="15px" font-family="Roboto, sans-serif"><tspan x="-36.43" y="-18.5" dominant-baseline="ideographic">Processes </tspan><tspan x="-68.54" y="-0.5" dominant-baseline="ideographic">payments, manages </tspan><tspan x="-61.39" y="17.5" dominant-baseline="ideographic">liquidity, sponsors </tspan><tspan x="-13.62" y="35.5" dominant-baseline="ideographic">gas</tspan></text></g></g></g><g id="g-root-tx_processe_hva8afndwidg-stroke" data-item-order="0" transform="translate(554.21875, 605)"></g></g></g><path id="w1usecp3ohtfk0" d="M65.283 12.757a.35.35 0 0 0 .584.157l5.203-5.141-6.183 3.523.396 1.461zm-2.216-11.7a.35.35 0 0 0-.522.305v3.111l3.276-1.868-2.754-1.548zm3.728 2.105l-4.25 2.421v2.445l6.391-3.644-2.141-1.222zm4.708 3.303a.35.35 0 0 0 0-.609l-1.592-.9-7.365 4.199v1.782a.35.35 0 0 0 .523.305l8.435-4.777z M44.542 2.513c0-.433.355-.783.792-.783s.792.35.792.783-.355.783-.792.783-.792-.35-.792-.783zm59.171 0c0-.433.355-.783.792-.783s.792.35.792.783-.355.783-.792.783-.792-.35-.792-.783zm-85.951 7.636h-1.27v-.487c-.276.201-.864.609-1.881.609-1.202 0-2.274-.794-2.137-2.078.118-1.106 1.153-1.584 1.848-1.727l2.17-.345c0-.539-.29-.956-1.064-1.006s-1.21.305-1.571 1.017l-1.124-.605c1.218-2.631 5.029-1.764 5.029.414v4.207zm-1.27-2.86c.006.396-.062 1.112-.819 1.59-.587.37-1.841.299-1.903-.395-.049-.555.461-.791.906-.898l1.816-.297zm72.662 2.86h-1.27v-.487c-.276.201-.864.609-1.881.609-1.202 0-2.274-.794-2.137-2.078.118-1.106 1.153-1.584 1.848-1.727l2.17-.345c0-.539-.29-.956-1.064-1.006s-1.21.305-1.571 1.017l-1.124-.605c1.218-2.631 5.029-1.764 5.029.414v4.207zm-1.27-2.86c.006.396-.062 1.112-.82 1.59-.587.37-1.841.299-1.903-.395-.049-.555.461-.791.906-.898l1.816-.297zM99.096 10.149H97.85v-8.45h1.246v4.895l2.68-2.559h1.738l-2.633 2.535 2.715 3.578h-1.556l-2.077-2.707-.867.844v1.863zm6.053-6.114h-1.255v6.113h1.255V4.035zm-59.2 0h-1.255v6.113h1.255V4.035zm5.584 6.113V1.697h1.255v2.695c.361-.346 1-.485 1.47-.485 1.452 0 2.477 1.082 2.457 2.448v3.792h-1.27v-3.68c0-.408-.214-1.339-1.315-1.339-.968 0-1.342.756-1.342 1.339v3.681h-1.255zm-4.76-4.894V4.039h.621a.45.45 0 0 0 .45-.45v-.855h1.251v1.305h1.309v1.215h-1.309v3.109c0 .293.105.664.648.664.365 0 .531-.035.736-.07v1.137s-.361.113-.857.113c-1.398 0-1.777-1.051-1.777-1.788V5.254h-1.071zM36.528 4.039h-1.394l2.191 6.106h1.125l1.234-3.918 1.238 3.918h1.129l2.188-6.106h-1.383l-1.359 3.93-1.256-3.93h-1.124l-1.242 3.957-1.348-3.957zM26.212 7.141c-.02 1.566 1.187 3.129 3.223 3.129 1.566 0 2.383-.918 2.734-1.719L31.172 8c-.315.399-.801 1.094-1.738 1.094-1.145 0-1.825-.781-1.891-1.52h4.625c.074-.284.148-.995-.03-1.559-.336-1.064-1.221-2.102-2.839-2.102s-3.088 1.152-3.088 3.227zm1.363-.75h3.348c-.055-.43-.566-1.301-1.623-1.301a1.79 1.79 0 0 0-1.725 1.301zm-8.758.75c.038 1.758 1.277 3.133 3.145 3.133 1.074 0 1.723-.477 1.961-.672v.547h1.242V1.703h-1.258v2.888c-.414-.36-1.062-.68-1.93-.68-1.91 0-3.198 1.473-3.16 3.23zm1.309-.08c0 1.119.723 1.978 1.836 1.978a1.88 1.88 0 0 0 1.94-1.904c0-1.371-1.011-1.99-1.972-1.99s-1.805.798-1.805 1.916zm76.683-.028C96.771 5.275 95.532 3.9 93.664 3.9c-1.074 0-1.723.477-1.961.672v-.547h-1.242v8.22h1.258V9.583c.414.36 1.063.68 1.93.68 1.91 0 3.198-1.473 3.16-3.23zm-1.309.08c0-1.119-.723-1.978-1.836-1.978a1.88 1.88 0 0 0-1.94 1.904c0 1.371 1.011 1.99 1.972 1.99S95.5 8.231 95.5 7.113zM106.441 10.173V4.036h1.254v.382c.361-.346 1-.485 1.47-.485 1.452 0 2.477 1.082 2.457 2.448v3.792h-1.27V6.492c0-.408-.214-1.339-1.315-1.339-.969 0-1.342.756-1.342 1.339v3.681h-1.254zm-30.383-.021V1.824h1.084l4.215 5.777V1.824h1.32v8.328h-1.094l-4.207-5.796v5.796h-1.319zM5.24 10.149H4V2.377h1.014l2.664 3.597 2.654-3.592h1.03v7.766h-1.256V4.762L7.678 8.068 5.24 4.742v5.407z" transform="translate(20, 728)" fill="#ababab88" stroke="none"></path></svg>