<?xml version="1.0" encoding="utf-8" standalone="yes"?>
<!DOCTYPE svg PUBLIC "-//W3C//DTD SVG 1.1//EN" "http://www.w3.org/Graphics/SVG/1.1/DTD/svg11.dtd">
<svg style="fill:none;stroke:none;fill-rule:evenodd;clip-rule:evenodd;stroke-linecap:round;stroke-linejoin:round;stroke-miterlimit:1.5;" version="1.1" xmlns="http://www.w3.org/2000/svg" xmlns:xlink="http://www.w3.org/1999/xlink" width="1043" height="840" viewBox="0 0 1043 840"><style class="text-font-style fontImports" data-font-family="Roboto">@import url(https://fonts.googleapis.com/css2?family=Roboto:wght@400;700&amp;amp;display=block);</style><g id="items" style="isolation: isolate"><g id="blend" style="mix-blend-mode: normal"><g id="g-root-cp_-1_Common_1qd7umvmtt3bg-fill" data-item-order="-740270" transform="translate(39, 197)"><g id="cp_-1_Common_1qd7umvmtt3bg-fill-merged" stroke="none" fill="#b7b7b7" fill-opacity="1"><g><path d="M44.121 454 V442 H538.879 V454 H555.939 V466 H573 V490 H10 V466 H27.061 V454 H44.121 M538.879 106 V118 H44.121 V106 H27.061 V94 H10 V82L291.5 10L573 82 V94 H555.939 V106 H538.879"></path></g></g></g><g id="g-root-cp_-1_Common_1qd7umvmtt3bg-stroke" data-item-order="-740270" transform="translate(39, 197)"><g id="cp_-1_Common_1qd7umvmtt3bg-stroke" fill="none" stroke-linecap="round" stroke-linejoin="round" stroke-miterlimit="4" stroke="#2c2c2c" stroke-width="2" stroke-opacity="1"><g><path d="M 10 466L 27.0606 466L 555.9394 466L 573 466L 573 490L 10 490L 10 466ZM 44.1212 442L 538.8788 442L 538.8788 454L 44.1212 454L 44.1212 442ZM 291.5 10L 573 82L 573 94L 555.9394 94L 27.0606 94L 10 94L 10 82L 291.5 10ZM 44.1212 118L 538.8788 118L 538.8788 106L 44.1212 106L 44.1212 118ZM 27.0606 94L 27.0606 106L 44.1212 106L 538.8788 106L 555.9394 106L 555.9394 94L 27.0606 94ZM 538.8788 454L 44.1212 454L 27.0606 454L 27.0606 466L 555.9394 466L 555.9394 454L 538.8788 454Z"></path></g></g></g><g id="g-root-cp_6_g-6_1lxecifmtt43p-fill" data-item-order="-740266" transform="translate(495, 305)"><g id="cp_6_g-6_1lxecifmtt43p-fill-merged" stroke="none" fill="#fb6762" fill-opacity="1"><g><path d="M82 322 V334 H10 V322 H16 V310 H22 V34 H16 V22 H10 V10 H82 V22 H76 V34 H70 V310 H76 V322 H82"></path></g></g></g><g id="g-root-cp_6_g-6_1lxecifmtt43p-stroke" data-item-order="-740266" transform="translate(495, 305)"><g id="cp_6_g-6_1lxecifmtt43p-stroke" fill="none" stroke-linecap="round" stroke-linejoin="round" stroke-miterlimit="4" stroke="#2c2c2c" stroke-width="2" stroke-opacity="1"><g><path d="M 22 34L 70 34L 70 310L 22 310L 22 34ZM 16 22L 76 22L 82 22L 82 10L 10 10L 10 22L 16 22ZM 76 322L 16 322L 10 322L 10 334L 82 334L 82 322L 76 322ZM 76 322L 76 310L 70 310L 22 310L 16 310L 16 322L 76 322ZM 76 22L 16 22L 16 34L 22 34L 70 34L 76 34L 76 22Z"></path></g></g></g><g id="g-root-cp_5_g-5_1lxecifmtt43q-fill" data-item-order="-740262" transform="translate(411, 305)"><g id="cp_5_g-5_1lxecifmtt43q-fill-merged" stroke="none" fill="#f79438" fill-opacity="1"><g><path d="M82 322 V334 H10 V322 H16 V310 H22 V34 H16 V22 H10 V10 H82 V22 H76 V34 H70 V310 H76 V322 H82"></path></g></g></g><g id="g-root-cp_5_g-5_1lxecifmtt43q-stroke" data-item-order="-740262" transform="translate(411, 305)"><g id="cp_5_g-5_1lxecifmtt43q-stroke" fill="none" stroke-linecap="round" stroke-linejoin="round" stroke-miterlimit="4" stroke="#2c2c2c" stroke-width="2" stroke-opacity="1"><g><path d="M 22 34L 70 34L 70 310L 22 310L 22 34ZM 16 22L 76 22L 82 22L 82 10L 10 10L 10 22L 16 22ZM 76 322L 16 322L 10 322L 10 334L 82 334L 82 322L 76 322ZM 76 322L 76 310L 70 310L 22 310L 16 310L 16 322L 76 322ZM 76 22L 16 22L 16 34L 22 34L 70 34L 76 34L 76 22Z"></path></g></g></g><g id="g-root-cp_4_g-4_1d2dtcnmtt1qn-fill" data-item-order="-740258" transform="translate(327, 305)"><g id="cp_4_g-4_1d2dtcnmtt1qn-fill-merged" stroke="none" fill="#ffe711" fill-opacity="1"><g><path d="M82 322 V334 H10 V322 H16 V310 H22 V34 H16 V22 H10 V10 H82 V22 H76 V34 H70 V310 H76 V322 H82"></path></g></g></g><g id="g-root-cp_4_g-4_1d2dtcnmtt1qn-stroke" data-item-order="-740258" transform="translate(327, 305)"><g id="cp_4_g-4_1d2dtcnmtt1qn-stroke" fill="none" stroke-linecap="round" stroke-linejoin="round" stroke-miterlimit="4" stroke="#2c2c2c" stroke-width="2" stroke-opacity="1"><g><path d="M 22 34L 70 34L 70 310L 22 310L 22 34ZM 16 22L 76 22L 82 22L 82 10L 10 10L 10 22L 16 22ZM 76 322L 16 322L 10 322L 10 334L 82 334L 82 322L 76 322ZM 76 322L 76 310L 70 310L 22 310L 16 310L 16 322L 76 322ZM 76 22L 16 22L 16 34L 22 34L 70 34L 76 34L 76 22Z"></path></g></g></g><g id="g-root-cp_3_g-3_1hi7bh3mtt1q8-fill" data-item-order="-740254" transform="translate(243, 306)"><g id="cp_3_g-3_1hi7bh3mtt1q8-fill-merged" stroke="none" fill="#1ac3fb" fill-opacity="1"><g><path d="M82 321 V333 H10 V321 H16 V309 H22 V34 H16 V22 H10 V10 H82 V22 H76 V34 H70 V309 H76 V321 H82"></path></g></g></g><g id="g-root-cp_3_g-3_1hi7bh3mtt1q8-stroke" data-item-order="-740254" transform="translate(243, 306)"><g id="cp_3_g-3_1hi7bh3mtt1q8-stroke" fill="none" stroke-linecap="round" stroke-linejoin="round" stroke-miterlimit="4" stroke="#2c2c2c" stroke-width="2" stroke-opacity="1"><g><path d="M 22 34L 70 34L 70 309L 22 309L 22 34ZM 16 22L 76 22L 82 22L 82 10L 10 10L 10 22L 16 22ZM 76 321L 16 321L 10 321L 10 333L 82 333L 82 321L 76 321ZM 76 321L 76 309L 70 309L 22 309L 16 309L 16 321L 76 321ZM 76 22L 16 22L 16 34L 22 34L 70 34L 76 34L 76 22Z"></path></g></g></g><g id="g-root-cp_2_g-2_1hi7bh3mtt1q9-fill" data-item-order="-740250" transform="translate(159, 305)"><g id="cp_2_g-2_1hi7bh3mtt1q9-fill-merged" stroke="none" fill="#a6da37" fill-opacity="1"><g><path d="M82 322 V334 H10 V322 H16 V310 H22 V34 H16 V22 H10 V10 H82 V22 H76 V34 H70 V310 H76 V322 H82"></path></g></g></g><g id="g-root-cp_2_g-2_1hi7bh3mtt1q9-stroke" data-item-order="-740250" transform="translate(159, 305)"><g id="cp_2_g-2_1hi7bh3mtt1q9-stroke" fill="none" stroke-linecap="round" stroke-linejoin="round" stroke-miterlimit="4" stroke="#2c2c2c" stroke-width="2" stroke-opacity="1"><g><path d="M 22 34L 70 34L 70 310L 22 310L 22 34ZM 16 22L 76 22L 82 22L 82 10L 10 10L 10 22L 16 22ZM 76 322L 16 322L 10 322L 10 334L 82 334L 82 322L 76 322ZM 76 322L 76 310L 70 310L 22 310L 16 310L 16 322L 76 322ZM 76 22L 16 22L 16 34L 22 34L 70 34L 76 34L 76 22Z"></path></g></g></g><g id="g-root-cp_1_g-1_1hi7bh3mtt1qa-fill" data-item-order="-740246" transform="translate(75, 305)"><g id="cp_1_g-1_1hi7bh3mtt1qa-fill-merged" stroke="none" fill="#43dd93" fill-opacity="1"><g><path d="M82 322 V334 H10 V322 H16 V310 H22 V34 H16 V22 H10 V10 H82 V22 H76 V34 H70 V310 H76 V322 H82"></path></g></g></g><g id="g-root-cp_1_g-1_1hi7bh3mtt1qa-stroke" data-item-order="-740246" transform="translate(75, 305)"><g id="cp_1_g-1_1hi7bh3mtt1qa-stroke" fill="none" stroke-linecap="round" stroke-linejoin="round" stroke-miterlimit="4" stroke="#2c2c2c" stroke-width="2" stroke-opacity="1"><g><path d="M 22 34L 70 34L 70 310L 22 310L 22 34ZM 16 22L 76 22L 82 22L 82 10L 10 10L 10 22L 16 22ZM 76 322L 16 322L 10 322L 10 334L 82 334L 82 322L 76 322ZM 76 322L 76 310L 70 310L 22 310L 16 310L 16 322L 76 322ZM 76 22L 16 22L 16 34L 22 34L 70 34L 76 34L 76 22Z"></path></g></g></g><g id="g-root-tx_awskmske_hsrpt3mu5r7k-fill" data-item-order="0" transform="translate(698, 260)"><g id="tx_awskmske_hsrpt3mu5r7k-fill-merged" stroke="none" fill="#a6da37" fill-opacity="1"><g><text style="font: bold 20px Roboto, sans-serif; white-space: pre;" transform="translate(10, 22)" font-weight="bold" font-size="20px" font-family="Roboto, sans-serif"><tspan x="2" y="11.5" dominant-baseline="ideographic">AWS KMS Key Management</tspan></text></g></g></g><g id="g-root-tx_awskmske_hsrpt3mu5r7k-stroke" data-item-order="0" transform="translate(698, 260)"></g><g id="g-root-ic_key_91idw7mtugb2-fill" data-item-order="0" transform="translate(638, 260)"></g><g id="g-root-ic_key_91idw7mtugb2-stroke" data-item-order="0" transform="translate(638, 260)"><g id="ic_key_91idw7mtugb2-stroke" fill="none" stroke-linecap="round" stroke-linejoin="round" stroke-miterlimit="4" stroke="#f4f4f4" stroke-width="2" stroke-opacity="1"><g><path d="M 30.507999 46.487999L 15.24 46.487999C 12.898313 46.487999 11 44.589684 11 42.247997L 11 15.748C 11 13.405989 12.897989 11.507104 15.24 11.506001L 47.040001 11.506001C 49.382011 11.507104 51.280003 13.405989 51.280003 15.748L 51.279999 30.708M 11 19.785999L 51.282001 19.785999M 11 37.382L 43.189999 37.382M 11 28.598L 51.282001 28.598M 27.452 19.785999L 27.452 46.487999M 39.248001 19.785999L 39.248001 38.396M 43.400002 46.282001C 42.328163 46.237915 41.33712 46.84972 40.896225 47.827675C 40.455322 48.805626 40.653084 49.953388 41.395851 50.727394C 42.138611 51.5014 43.277256 51.746258 44.272537 51.346004C 45.267815 50.945751 45.91991 49.980747 45.920002 48.908001C 45.949017 47.487068 44.820919 46.31152 43.399998 46.281998L 43.400002 46.282001M 56.799999 39.253998L 50.188 46.141998L 50.188 46.141998C 51.454033 49.459438 50.305573 53.212952 47.400002 55.254002C 44.529587 57.223198 40.652237 56.806343 38.265999 54.271999C 35.822922 51.685017 35.434925 47.774632 37.321999 44.757999C 39.133949 41.779083 42.835766 40.549377 46.07 41.851997L 52.681999 34.964001L 57 34.964001ZM 52.652 40.416L 54.194 41.959999"></path></g></g></g><g id="g-root-tx_ensurese_4ot97bmtt43v-fill" data-item-order="0" transform="translate(698, 200)"><g id="tx_ensurese_4ot97bmtt43v-fill-merged" stroke="none" fill="#f4f4f4" fill-opacity="1"><g><text style="font: 15px Roboto, sans-serif; white-space: pre;" transform="translate(10, 28)" font-size="15px" font-family="Roboto, sans-serif"><tspan x="2" y="-0.5" dominant-baseline="ideographic">Ensures every paymaster operation is </tspan><tspan x="2" y="17.5" dominant-baseline="ideographic">authorized by a secure backend token.</tspan></text></g></g></g><g id="g-root-tx_ensurese_4ot97bmtt43v-stroke" data-item-order="0" transform="translate(698, 200)"></g><g id="g-root-tx_backends_8xr6nbmu5ouh-fill" data-item-order="0" transform="translate(698, 140)"><g id="tx_backends_8xr6nbmu5ouh-fill-merged" stroke="none" fill="#43dd93" fill-opacity="1"><g><text style="font: bold 20px Roboto, sans-serif; white-space: pre;" transform="translate(10, 34)" font-weight="bold" font-size="20px" font-family="Roboto, sans-serif"><tspan x="2" y="-0.5" dominant-baseline="ideographic">Backend-Signed </tspan><tspan x="2" y="23.5" dominant-baseline="ideographic">Authorization</tspan></text></g></g></g><g id="g-root-tx_backends_8xr6nbmu5ouh-stroke" data-item-order="0" transform="translate(698, 140)"></g><g id="g-root-ic_appr_9m85zmtt1qc-fill" data-item-order="0" transform="translate(638, 140)"></g><g id="g-root-ic_appr_9m85zmtt1qc-stroke" data-item-order="0" transform="translate(638, 140)"><g id="ic_appr_9m85zmtt1qc-stroke" fill="none" stroke-linecap="round" stroke-linejoin="round" stroke-miterlimit="4" stroke="#f4f4f4" stroke-width="2" stroke-opacity="1"><g><path d="M 57 54L 55 50.132L 55 41C 55.084 37.444 50.838001 34.274002 47 31M 50.037998 45L 44.936001 39.785999C 44.316936 39.141663 43.400085 38.878433 42.533497 39.096237C 41.666908 39.314037 40.983467 39.979477 40.742607 40.839943C 40.501755 41.700409 40.740417 42.623959 41.368004 43.260002L 47 49L 47 52C 47.306267 53.789154 47.987881 55.493187 49 57M 11 14L 13 17.868L 13 27C 12.916 30.556 17.162001 33.725998 21 37M 17.962 23L 23.063999 28.214001C 23.683064 28.858339 24.599916 29.121571 25.466503 28.903767C 26.333092 28.685965 27.016537 28.020525 27.257393 27.160059C 27.498249 26.299595 27.259584 25.376043 26.632 24.740002L 21 19L 21 16C 20.693735 14.210846 20.012121 12.506812 19 11M 21 26.104L 21 56C 21 56.552284 21.447716 57 22 57L 44 57M 32 15L 25 15M 47 41.896L 47 30M 36 41L 25 41M 43 35L 25 35M 34 47L 25 47M 51 19C 51 23.418278 47.418278 27 43 27C 38.581722 27 35 23.418278 35 19C 35 14.581722 38.581722 11 43 11M 51 13L 43.708 20.292C 43.520393 20.480083 43.265656 20.585789 43 20.585789C 42.734344 20.585789 42.479607 20.480083 42.292 20.292L 40 18"></path></g></g></g><g id="g-root-tx_vesselss_qoeq1zmu5pmz-fill" data-item-order="0" transform="translate(348.625, 38)"><g id="tx_vesselss_qoeq1zmu5pmz-fill-merged" stroke="none" fill="#f4f4f4" fill-opacity="1"><g><text style="font: bold 25px Roboto, sans-serif; white-space: pre;" transform="translate(172.875, 25)" font-weight="bold" font-size="25px" font-family="Roboto, sans-serif"><tspan x="-160.88" y="14.5" dominant-baseline="ideographic">Vessel's Security Framework</tspan></text></g></g></g><g id="g-root-tx_vesselss_qoeq1zmu5pmz-stroke" data-item-order="0" transform="translate(348.625, 38)"></g><g id="g-root-tx_protects_mccf6fmtuhvx-fill" data-item-order="0" transform="translate(698, 296)"><g id="tx_protects_mccf6fmtuhvx-fill-merged" stroke="none" fill="#f4f4f4" fill-opacity="1"><g><text style="font: 15px Roboto, sans-serif; white-space: pre;" transform="translate(10, 37)" font-size="15px" font-family="Roboto, sans-serif"><tspan x="2" y="-9.5" dominant-baseline="ideographic">Protects private keys in hardware </tspan><tspan x="2" y="8.5" dominant-baseline="ideographic">security modules for enhanced </tspan><tspan x="2" y="26.5" dominant-baseline="ideographic">security.</tspan></text></g></g></g><g id="g-root-tx_protects_mccf6fmtuhvx-stroke" data-item-order="0" transform="translate(698, 296)"></g><g id="g-root-ic_1_vkyfmtvvuo-fill" data-item-order="0" transform="translate(638, 374)"></g><g id="g-root-ic_1_vkyfmtvvuo-stroke" data-item-order="0" transform="translate(638, 374)"><g id="ic_1_vkyfmtvvuo-stroke" fill="none" stroke-linecap="round" stroke-linejoin="round" stroke-miterlimit="4" stroke="#f4f4f4" stroke-width="2" stroke-opacity="1"><g><path d="M 16.348 45.931999L 12 57M 18 57L 19.785999 47M 51.652 45.931999L 56 57M 50 57L 48.214001 47M 38.664001 34.732002L 45.880001 40.503998M 22.119999 40.503998L 29.334 34.732002M 18.622 39.035999L 17.66 28.938M 30.195999 48.223999L 22.614 44.686001M 45.383999 44.688L 37.804001 48.223999M 50.334 29L 49.377998 39.026001M 37.697998 16.524L 47.414001 20.524M 20.584 20.524L 30.304001 16.521999M 15 43C 15 45.209141 16.790861 47 19 47C 21.209139 47 23 45.209141 23 43C 23 40.790863 21.209139 39 19 39C 16.790861 39 15 40.790863 15 43ZM 30 15C 30 17.209139 31.790861 19 34 19C 36.209137 19 38 17.209139 38 15C 38 12.790861 36.209137 11 34 11C 31.790861 11 30 12.790861 30 15ZM 12 24C 12 26.761423 14.238577 29 17 29C 19.761425 29 22 26.761423 22 24C 22 21.238577 19.761425 19 17 19C 14.238577 19 12 21.238577 12 24ZM 45 43C 45 45.209141 46.790859 47 49 47C 51.209141 47 53 45.209141 53 43C 53 40.790863 51.209141 39 49 39C 46.790859 39 45 40.790863 45 43ZM 46 24C 46 26.761423 48.238575 29 51 29C 53.761425 29 56 26.761423 56 24C 56 21.238577 53.761425 19 51 19C 48.238575 19 46 21.238577 46 24ZM 28.43 28.771999L 19 25M 49 25L 39.566002 28.774M 34 19L 34 25M 36.214001 36.576L 39 57M 29 57L 31.785999 36.576M 28 31C 28 34.313709 30.686293 37 34 37C 37.313709 37 40 34.313709 40 31C 40 27.686293 37.313709 25 34 25C 30.686293 25 28 27.686293 28 31Z"></path></g></g></g><g id="g-root-tx_utilizes_1czvx07mtxatp-fill" data-item-order="0" transform="translate(698, 698)"><g id="tx_utilizes_1czvx07mtxatp-fill-merged" stroke="none" fill="#f4f4f4" fill-opacity="1"><g><text style="font: 15px Roboto, sans-serif; white-space: pre;" transform="translate(10, 28)" font-size="15px" font-family="Roboto, sans-serif"><tspan x="2" y="-0.5" dominant-baseline="ideographic">Utilizes battle-tested libraries and </tspan><tspan x="2" y="17.5" dominant-baseline="ideographic">analysis for secure smart contracts.</tspan></text></g></g></g><g id="g-root-tx_utilizes_1czvx07mtxatp-stroke" data-item-order="0" transform="translate(698, 698)"></g><g id="g-root-tx_limitsla_4gp32vmtvv2f-fill" data-item-order="0" transform="translate(698, 410)"><g id="tx_limitsla_4gp32vmtvv2f-fill-merged" stroke="none" fill="#f4f4f4" fill-opacity="1"><g><text style="font: 15px Roboto, sans-serif; white-space: pre;" transform="translate(10, 28)" font-size="15px" font-family="Roboto, sans-serif"><tspan x="2" y="-0.5" dominant-baseline="ideographic">Limits Lambda function permissions </tspan><tspan x="2" y="17.5" dominant-baseline="ideographic">to minimize security risks.</tspan></text></g></g></g><g id="g-root-tx_limitsla_4gp32vmtvv2f-stroke" data-item-order="0" transform="translate(698, 410)"></g><g id="g-root-ic_off_dgpexjmtvwua-fill" data-item-order="0" transform="translate(638, 470)"></g><g id="g-root-ic_off_dgpexjmtvwua-stroke" data-item-order="0" transform="translate(638, 470)"><g id="ic_off_dgpexjmtvwua-stroke" fill="none" stroke-linecap="round" stroke-linejoin="round" stroke-miterlimit="4" stroke="#f4f4f4" stroke-width="2" stroke-opacity="1"><g><path d="M 26.139999 26.82L 38 11L 35 29L 50 29L 41.879997 41.200001M 38 46L 30 57L 33 39L 18 39L 23 32M 11 13L 57 55"></path></g></g></g><g id="g-root-tx_circuitb_dcy7onmu5r7y-fill" data-item-order="0" transform="translate(698, 470)"><g id="tx_circuitb_dcy7onmu5r7y-fill-merged" stroke="none" fill="#ffe711" fill-opacity="1"><g><text style="font: bold 20px Roboto, sans-serif; white-space: pre;" transform="translate(10, 22)" font-weight="bold" font-size="20px" font-family="Roboto, sans-serif"><tspan x="2" y="11.5" dominant-baseline="ideographic">Circuit Breakers</tspan></text></g></g></g><g id="g-root-tx_circuitb_dcy7onmu5r7y-stroke" data-item-order="0" transform="translate(698, 470)"></g><g id="g-root-tx_implemen_qs5xavmtvv9d-fill" data-item-order="0" transform="translate(698, 506)"><g id="tx_implemen_qs5xavmtvv9d-fill-merged" stroke="none" fill="#f4f4f4" fill-opacity="1"><g><text style="font: 15px Roboto, sans-serif; white-space: pre;" transform="translate(10, 28)" font-size="15px" font-family="Roboto, sans-serif"><tspan x="2" y="-0.5" dominant-baseline="ideographic">Implements safety mechanisms to </tspan><tspan x="2" y="17.5" dominant-baseline="ideographic">prevent gas draining attacks.</tspan></text></g></g></g><g id="g-root-tx_implemen_qs5xavmtvv9d-stroke" data-item-order="0" transform="translate(698, 506)"></g><g id="g-root-ic_sear_18fp39zmtx91g-fill" data-item-order="0" transform="translate(638, 566)"></g><g id="g-root-ic_sear_18fp39zmtx91g-stroke" data-item-order="0" transform="translate(638, 566)"><g id="ic_sear_18fp39zmtx91g-stroke" fill="none" stroke-linecap="round" stroke-linejoin="round" stroke-miterlimit="4" stroke="#f4f4f4" stroke-width="2" stroke-opacity="1"><g><path d="M 39 29.982L 39 20.982L 17 20.982L 17 46.98L 29 46.981998M 45 27.982L 45 16.982C 45 15.87743 44.104568 14.982 43 14.982L 34.104 14.982C 33.043873 12.558297 30.649412 10.992139 28.004 10.992139C 25.358589 10.992139 22.964127 12.558297 21.903999 14.982L 13 14.982C 11.895431 14.982 11 15.87743 11 16.982L 11 50.981998C 11 52.086571 11.895431 52.981998 13 52.981998L 31 52.981998M 23 26.982L 33 26.982M 23 32.982002L 33 32.982002M 23 38.982002L 29 38.982002M 35 44.042C 35 49.044594 39.055405 53.099998 44.057999 53.099998C 49.060593 53.099998 53.115997 49.044594 53.115997 44.042C 53.115997 39.039406 49.060593 34.984001 44.057999 34.984001C 39.055405 34.984001 35 39.039406 35 44.042ZM 57 56.981998L 50.504002 50.487999"></path></g></g></g><g id="g-root-tx_audittra_m8l7xjmu5qf9-fill" data-item-order="0" transform="translate(698, 566)"><g id="tx_audittra_m8l7xjmu5qf9-fill-merged" stroke="none" fill="#f79438" fill-opacity="1"><g><text style="font: bold 20px Roboto, sans-serif; white-space: pre;" transform="translate(10, 22)" font-weight="bold" font-size="20px" font-family="Roboto, sans-serif"><tspan x="2" y="11.5" dominant-baseline="ideographic">Audit Trail</tspan></text></g></g></g><g id="g-root-tx_audittra_m8l7xjmu5qf9-stroke" data-item-order="0" transform="translate(698, 566)"></g><g id="g-root-tx_provides_1cuw4bbmtxbez-fill" data-item-order="0" transform="translate(698, 602)"><g id="tx_provides_1cuw4bbmtxbez-fill-merged" stroke="none" fill="#f4f4f4" fill-opacity="1"><g><text style="font: 15px Roboto, sans-serif; white-space: pre;" transform="translate(10, 28)" font-size="15px" font-family="Roboto, sans-serif"><tspan x="2" y="-0.5" dominant-baseline="ideographic">Provides comprehensive logs for </tspan><tspan x="2" y="17.5" dominant-baseline="ideographic">compliance and incident response.</tspan></text></g></g></g><g id="g-root-tx_provides_1cuw4bbmtxbez-stroke" data-item-order="0" transform="translate(698, 602)"></g><g id="g-root-ic_lock_zp1vpzmtx98u-fill" data-item-order="0" transform="translate(638, 662)"></g><g id="g-root-ic_lock_zp1vpzmtx98u-stroke" data-item-order="0" transform="translate(638, 662)"><g id="ic_lock_zp1vpzmtx98u-stroke" fill="none" stroke-linecap="round" stroke-linejoin="round" stroke-miterlimit="4" stroke="#f4f4f4" stroke-width="2" stroke-opacity="1"><g><path d="M 35.526001 45.495998L 15.378 45.495998C 13.069907 45.493793 11.199999 43.622093 11.2 41.314003L 11.2 15.182C 11.199999 12.873906 13.069907 11.002208 15.378 11L 46.737999 11C 49.046875 11.001104 50.918003 12.873126 50.918003 15.182L 50.917999 27.854M 11.196 19.166L 50.917999 19.166M 11.196 36.515999L 35.526001 36.515999M 11.196 27.854L 50.917999 27.854M 27.42 19.166L 27.42 45.495998M 39.052002 19.166L 39.052002 33.206001M 39.672001 45.104C 39.671997 43.461506 41.003502 42.130001 42.646 42.130001L 53.830002 42.130001C 55.470932 42.132206 56.799999 43.463066 56.799999 45.104L 56.799999 54.026001C 56.799999 55.666935 55.470932 56.997791 53.829998 57L 42.646 57C 41.003502 57 39.671997 55.668495 39.671997 54.026001ZM 48.237999 33.200001L 48.237999 33.200001C 45.019161 33.266701 42.463272 35.929119 42.528 39.147999L 42.528 42.124001L 53.948002 42.124001L 53.948002 39.153999C 54.01609 35.9328 51.459229 33.266678 48.237999 33.199997ZM 48.237999 47.481998C 47.359489 47.446079 46.547329 47.94772 46.186138 48.749352C 45.824951 49.550987 45.987244 50.49168 46.596161 51.125946C 47.205082 51.760212 48.138378 51.960716 48.954067 51.6325C 49.76976 51.304287 50.304085 50.513248 50.304001 49.634003C 50.327431 48.469349 49.40263 47.506054 48.237999 47.481998L 48.237999 47.481998"></path></g></g></g><g id="g-root-tx_smartcon_m8l7xjmu5qf8-fill" data-item-order="0" transform="translate(698, 662)"><g id="tx_smartcon_m8l7xjmu5qf8-fill-merged" stroke="none" fill="#fb6762" fill-opacity="1"><g><text style="font: bold 20px Roboto, sans-serif; white-space: pre;" transform="translate(10, 22)" font-weight="bold" font-size="20px" font-family="Roboto, sans-serif"><tspan x="2" y="11.5" dominant-baseline="ideographic">Smart Contract Security</tspan></text></g></g></g><g id="g-root-tx_smartcon_m8l7xjmu5qf8-stroke" data-item-order="0" transform="translate(698, 662)"></g><g id="g-root-tx_iamisola_dcy7onmu5r7z-fill" data-item-order="0" transform="translate(698, 374)"><g id="tx_iamisola_dcy7onmu5r7z-fill-merged" stroke="none" fill="#1ac3fb" fill-opacity="1"><g><text style="font: bold 20px Roboto, sans-serif; white-space: pre;" transform="translate(10, 22)" font-weight="bold" font-size="20px" font-family="Roboto, sans-serif"><tspan x="2" y="11.5" dominant-baseline="ideographic">IAM Isolation</tspan></text></g></g></g><g id="g-root-tx_iamisola_dcy7onmu5r7z-stroke" data-item-order="0" transform="translate(698, 374)"></g></g></g><path id="w143mitzn3sn4e" d="M65.283 12.757a.35.35 0 0 0 .584.157l5.203-5.141-6.183 3.523.396 1.461zm-2.216-11.7a.35.35 0 0 0-.522.305v3.111l3.276-1.868-2.754-1.548zm3.728 2.105l-4.25 2.421v2.445l6.391-3.644-2.141-1.222zm4.708 3.303a.35.35 0 0 0 0-.609l-1.592-.9-7.365 4.199v1.782a.35.35 0 0 0 .523.305l8.435-4.777z M44.542 2.513c0-.433.355-.783.792-.783s.792.35.792.783-.355.783-.792.783-.792-.35-.792-.783zm59.171 0c0-.433.355-.783.792-.783s.792.35.792.783-.355.783-.792.783-.792-.35-.792-.783zm-85.951 7.636h-1.27v-.487c-.276.201-.864.609-1.881.609-1.202 0-2.274-.794-2.137-2.078.118-1.106 1.153-1.584 1.848-1.727l2.17-.345c0-.539-.29-.956-1.064-1.006s-1.21.305-1.571 1.017l-1.124-.605c1.218-2.631 5.029-1.764 5.029.414v4.207zm-1.27-2.86c.006.396-.062 1.112-.819 1.59-.587.37-1.841.299-1.903-.395-.049-.555.461-.791.906-.898l1.816-.297zm72.662 2.86h-1.27v-.487c-.276.201-.864.609-1.881.609-1.202 0-2.274-.794-2.137-2.078.118-1.106 1.153-1.584 1.848-1.727l2.17-.345c0-.539-.29-.956-1.064-1.006s-1.21.305-1.571 1.017l-1.124-.605c1.218-2.631 5.029-1.764 5.029.414v4.207zm-1.27-2.86c.006.396-.062 1.112-.82 1.59-.587.37-1.841.299-1.903-.395-.049-.555.461-.791.906-.898l1.816-.297zM99.096 10.149H97.85v-8.45h1.246v4.895l2.68-2.559h1.738l-2.633 2.535 2.715 3.578h-1.556l-2.077-2.707-.867.844v1.863zm6.053-6.114h-1.255v6.113h1.255V4.035zm-59.2 0h-1.255v6.113h1.255V4.035zm5.584 6.113V1.697h1.255v2.695c.361-.346 1-.485 1.47-.485 1.452 0 2.477 1.082 2.457 2.448v3.792h-1.27v-3.68c0-.408-.214-1.339-1.315-1.339-.968 0-1.342.756-1.342 1.339v3.681h-1.255zm-4.76-4.894V4.039h.621a.45.45 0 0 0 .45-.45v-.855h1.251v1.305h1.309v1.215h-1.309v3.109c0 .293.105.664.648.664.365 0 .531-.035.736-.07v1.137s-.361.113-.857.113c-1.398 0-1.777-1.051-1.777-1.788V5.254h-1.071zM36.528 4.039h-1.394l2.191 6.106h1.125l1.234-3.918 1.238 3.918h1.129l2.188-6.106h-1.383l-1.359 3.93-1.256-3.93h-1.124l-1.242 3.957-1.348-3.957zM26.212 7.141c-.02 1.566 1.187 3.129 3.223 3.129 1.566 0 2.383-.918 2.734-1.719L31.172 8c-.315.399-.801 1.094-1.738 1.094-1.145 0-1.825-.781-1.891-1.52h4.625c.074-.284.148-.995-.03-1.559-.336-1.064-1.221-2.102-2.839-2.102s-3.088 1.152-3.088 3.227zm1.363-.75h3.348c-.055-.43-.566-1.301-1.623-1.301a1.79 1.79 0 0 0-1.725 1.301zm-8.758.75c.038 1.758 1.277 3.133 3.145 3.133 1.074 0 1.723-.477 1.961-.672v.547h1.242V1.703h-1.258v2.888c-.414-.36-1.062-.68-1.93-.68-1.91 0-3.198 1.473-3.16 3.23zm1.309-.08c0 1.119.723 1.978 1.836 1.978a1.88 1.88 0 0 0 1.94-1.904c0-1.371-1.011-1.99-1.972-1.99s-1.805.798-1.805 1.916zm76.683-.028C96.771 5.275 95.532 3.9 93.664 3.9c-1.074 0-1.723.477-1.961.672v-.547h-1.242v8.22h1.258V9.583c.414.36 1.063.68 1.93.68 1.91 0 3.198-1.473 3.16-3.23zm-1.309.08c0-1.119-.723-1.978-1.836-1.978a1.88 1.88 0 0 0-1.94 1.904c0 1.371 1.011 1.99 1.972 1.99S95.5 8.231 95.5 7.113zM106.441 10.173V4.036h1.254v.382c.361-.346 1-.485 1.47-.485 1.452 0 2.477 1.082 2.457 2.448v3.792h-1.27V6.492c0-.408-.214-1.339-1.315-1.339-.969 0-1.342.756-1.342 1.339v3.681h-1.254zm-30.383-.021V1.824h1.084l4.215 5.777V1.824h1.32v8.328h-1.094l-4.207-5.796v5.796h-1.319zM5.24 10.149H4V2.377h1.014l2.664 3.597 2.654-3.592h1.03v7.766h-1.256V4.762L7.678 8.068 5.24 4.742v5.407z" transform="translate(907, 806)" fill="#ababab88" stroke="none"></path></svg>