<?xml version="1.0" encoding="utf-8" standalone="yes"?>
<!DOCTYPE svg PUBLIC "-//W3C//DTD SVG 1.1//EN" "http://www.w3.org/Graphics/SVG/1.1/DTD/svg11.dtd">
<svg style="fill:none;stroke:none;fill-rule:evenodd;clip-rule:evenodd;stroke-linecap:round;stroke-linejoin:round;stroke-miterlimit:1.5;" version="1.1" xmlns="http://www.w3.org/2000/svg" xmlns:xlink="http://www.w3.org/1999/xlink" width="863" height="757" viewBox="0 0 863 757"><style class="text-font-style fontImports" data-font-family="Roboto">@import url(https://fonts.googleapis.com/css2?family=Roboto:wght@400;700&amp;amp;display=block);</style><g id="items" style="isolation: isolate"><g id="blend" style="mix-blend-mode: normal"><g id="g-root-cp_1_circle-1_1cwrt0nm9zi11-fill" data-item-order="-538702" transform="translate(109.83984375, 206)"></g><g id="g-root-cp_1_circle-1_1cwrt0nm9zi11-stroke" data-item-order="-538702" transform="translate(109.83984375, 206)"><g id="cp_1_circle-1_1cwrt0nm9zi11-stroke" fill="none" stroke-linecap="round" stroke-linejoin="round" stroke-miterlimit="4" stroke="#4f91fc" stroke-width="2" stroke-opacity="1"><g><path d="M 10.000002 46C 10.000002 65.882251 26.117751 82 46.000002 82C 65.882253 82 82.000002 65.882251 82.000002 46C 82.000002 26.117749 65.882253 10 46.000002 10C 26.117751 10 10.000002 26.117749 10.000002 46"></path></g></g></g><g id="g-root-sy_1_Subtract_1cwrt0nm9zi12-fill" data-item-order="-538694" transform="translate(145.83987426757812, 278)"></g><g id="g-root-sy_1_Subtract_1cwrt0nm9zi12-stroke" data-item-order="-538694" transform="translate(145.83987426757812, 278)"><g id="sy_1_Subtract_1cwrt0nm9zi12-stroke" fill="none" stroke-linecap="round" stroke-linejoin="round" stroke-miterlimit="4" stroke="#4f91fc" stroke-width="2" stroke-opacity="1"><g><path d="M 10.000102 81.999998L 10.000002 9.999998"></path></g></g></g><g id="g-root-sy_2_Subtract_1cwrt0nm9zi13-fill" data-item-order="-538684" transform="translate(325.77392578125, 286)"></g><g id="g-root-sy_2_Subtract_1cwrt0nm9zi13-stroke" data-item-order="-538684" transform="translate(325.77392578125, 286)"><g id="sy_2_Subtract_1cwrt0nm9zi13-stroke" fill="none" stroke-linecap="round" stroke-linejoin="round" stroke-miterlimit="4" stroke="#1ac3fb" stroke-width="2" stroke-opacity="1"><g><path d="M 10.000132 75L 10.000032 10"></path></g></g></g><g id="g-root-sy_2_Subtract-start_1cwrt0nm9zi14-fill" data-item-order="-538682" transform="translate(322.7740478515625, 279)"></g><g id="g-root-sy_2_Subtract-start_1cwrt0nm9zi14-stroke" data-item-order="-538682" transform="translate(322.7740478515625, 279)"><g id="sy_2_Subtract-start_1cwrt0nm9zi14-stroke" fill="none" stroke-linecap="round" stroke-linejoin="round" stroke-miterlimit="4" stroke="#f4f4f4" stroke-width="2" stroke-opacity="1"><g><path d="M 10.000001 13C 10.000001 14.6557 11.344301 16 13.000001 16C 14.655701 16 16 14.6557 16 13C 16 11.3443 14.655701 10 13.000001 10C 11.344301 10 10 11.3443 10.000001 13Z"></path></g></g></g><g id="g-root-cp_3_circle-3_18gyaw7m9zitd-fill" data-item-order="-538676" transform="translate(470.34796142578125, 206)"></g><g id="g-root-cp_3_circle-3_18gyaw7m9zitd-stroke" data-item-order="-538676" transform="translate(470.34796142578125, 206)"><g id="cp_3_circle-3_18gyaw7m9zitd-stroke" fill="none" stroke-linecap="round" stroke-linejoin="round" stroke-miterlimit="4" stroke="#43dd93" stroke-width="2" stroke-opacity="1"><g><path d="M 10.000002 46C 10.000002 65.882251 26.117751 82 46.000002 82C 65.882253 82 82.000002 65.882251 82.000002 46C 82.000002 26.117749 65.882253 10 46.000002 10C 26.117751 10 10.000002 26.117749 10.000002 46"></path></g></g></g><g id="g-root-sy_3_Subtract_18gyaw7m9zite-fill" data-item-order="-538668" transform="translate(506.3480224609375, 278)"></g><g id="g-root-sy_3_Subtract_18gyaw7m9zite-stroke" data-item-order="-538668" transform="translate(506.3480224609375, 278)"><g id="sy_3_Subtract_18gyaw7m9zite-stroke" fill="none" stroke-linecap="round" stroke-linejoin="round" stroke-miterlimit="4" stroke="#43dd93" stroke-width="2" stroke-opacity="1"><g><path d="M 10.000102 81.999998L 10.000002 9.999998"></path></g></g></g><g id="g-root-sy_4_Subtract_18gyaw7m9zitf-fill" data-item-order="-538658" transform="translate(684.6101684570312, 286)"></g><g id="g-root-sy_4_Subtract_18gyaw7m9zitf-stroke" data-item-order="-538658" transform="translate(684.6101684570312, 286)"><g id="sy_4_Subtract_18gyaw7m9zitf-stroke" fill="none" stroke-linecap="round" stroke-linejoin="round" stroke-miterlimit="4" stroke="#a6da37" stroke-width="2" stroke-opacity="1"><g><path d="M 10.000101 75L 10.000001 10"></path></g></g></g><g id="g-root-sy_4_Subtract-start_18gyaw7m9zitg-fill" data-item-order="-538656" transform="translate(681.6102905273438, 279)"></g><g id="g-root-sy_4_Subtract-start_18gyaw7m9zitg-stroke" data-item-order="-538656" transform="translate(681.6102905273438, 279)"><g id="sy_4_Subtract-start_18gyaw7m9zitg-stroke" fill="none" stroke-linecap="round" stroke-linejoin="round" stroke-miterlimit="4" stroke="#f4f4f4" stroke-width="2" stroke-opacity="1"><g><path d="M 10.000001 13C 10.000001 14.6557 11.344301 16 13.000001 16C 14.655701 16 16 14.6557 16 13C 16 11.3443 14.655701 10 13.000001 10C 11.344301 10 10 11.3443 10.000001 13Z"></path></g></g></g><g id="g-root-cp_1_g-1_1_18gyaw7m9zith-fill" data-item-order="-538648" transform="translate(85, 351)"></g><g id="g-root-cp_1_g-1_1_18gyaw7m9zith-stroke" data-item-order="-538648" transform="translate(85, 351)"><g id="cp_1_g-1_1_18gyaw7m9zith-stroke" fill="none" stroke-linecap="round" stroke-linejoin="round" stroke-miterlimit="4" stroke="#4f91fc" stroke-width="2" stroke-opacity="1"><g><path d="M 16 22L 10 10L 131 10L 139 22M 16 94L 10 106L 131 106L 139 94"></path></g></g></g><g id="g-root-cp_0_g-0_zlbanbm9zjm6-fill" data-item-order="-538642" transform="translate(30, 363)"></g><g id="g-root-cp_0_g-0_zlbanbm9zjm6-stroke" data-item-order="-538642" transform="translate(30, 363)"><g id="cp_0_g-0_zlbanbm9zjm6-stroke" fill="none" stroke-linecap="round" stroke-linejoin="round" stroke-miterlimit="4" stroke="#f4f4f4" stroke-width="2" stroke-opacity="1"><g><path d="M 34 10L 178 10M 178 82L 34 82"></path></g></g><g id="cp_0_g-0_zlbanbm9zjm6-stroke" fill="none" stroke-linecap="round" stroke-linejoin="round" stroke-miterlimit="4" stroke="#f4f4f4" stroke-width="2" stroke-opacity="1"><g><path d="M 34 10L 10 10L 34 46L 10 82L 34 82"></path></g></g><g id="cp_0_g-0_zlbanbm9zjm6-stroke" fill="none" stroke-linecap="round" stroke-linejoin="round" stroke-miterlimit="4" stroke="#f4f4f4" stroke-width="2" stroke-opacity="1"><g><path d="M 172 82L 178 82L 202 46L 178 10L 172 10"></path></g></g></g><g id="g-root-cp_2_g-2_1_zlbanbm9zjm7-fill" data-item-order="-538618" transform="translate(269, 351)"></g><g id="g-root-cp_2_g-2_1_zlbanbm9zjm7-stroke" data-item-order="-538618" transform="translate(269, 351)"><g id="cp_2_g-2_1_zlbanbm9zjm7-stroke" fill="none" stroke-linecap="round" stroke-linejoin="round" stroke-miterlimit="4" stroke="#1ac3fb" stroke-width="2" stroke-opacity="1"><g><path d="M 16 22L 10 10L 131 10L 163 58L 131 106L 10 106L 16 94"></path></g></g></g><g id="g-root-cp_0_g-0_1_1414srrm9zjls-fill" data-item-order="-538612" transform="translate(214, 363)"></g><g id="g-root-cp_0_g-0_1_1414srrm9zjls-stroke" data-item-order="-538612" transform="translate(214, 363)"><g id="cp_0_g-0_1_1414srrm9zjls-stroke" fill="none" stroke-linecap="round" stroke-linejoin="round" stroke-miterlimit="4" stroke="#f4f4f4" stroke-width="2" stroke-opacity="1"><g><path d="M 34 10L 178 10M 178 82L 34 82"></path></g></g><g id="cp_0_g-0_1_1414srrm9zjls-stroke" fill="none" stroke-linecap="round" stroke-linejoin="round" stroke-miterlimit="4" stroke="#f4f4f4" stroke-width="2" stroke-opacity="1"><g><path d="M 10 10L 34 10M 10 82L 34 82"></path></g></g><g id="cp_0_g-0_1_1414srrm9zjls-stroke" fill="none" stroke-linecap="round" stroke-linejoin="round" stroke-miterlimit="4" stroke="#f4f4f4" stroke-width="2" stroke-opacity="1"><g><path d="M 172 82L 178 82L 202 46L 178 10L 172 10"></path></g></g></g><g id="g-root-cp_1_g-1_2_v649lzm9zh8p-fill" data-item-order="-538598" transform="translate(214, 363)"></g><g id="g-root-cp_1_g-1_2_v649lzm9zh8p-stroke" data-item-order="-538598" transform="translate(214, 363)"><g id="cp_1_g-1_2_v649lzm9zh8p-stroke" fill="none" stroke-linecap="round" stroke-linejoin="round" stroke-miterlimit="4" stroke="#4f91fc" stroke-width="2" stroke-opacity="1"><g><path d="M 10 10L 34 46L 10 82"></path></g></g></g><g id="g-root-cp_3_g-3_1_v649lzm9zh8q-fill" data-item-order="-538584" transform="translate(453, 351)"></g><g id="g-root-cp_3_g-3_1_v649lzm9zh8q-stroke" data-item-order="-538584" transform="translate(453, 351)"><g id="cp_3_g-3_1_v649lzm9zh8q-stroke" fill="none" stroke-linecap="round" stroke-linejoin="round" stroke-miterlimit="4" stroke="#43dd93" stroke-width="2" stroke-opacity="1"><g><path d="M 16 22L 10 10L 131 10L 163 58L 131 106L 10 106L 16 94"></path></g></g></g><g id="g-root-cp_0_g-0_2_v649lzm9zh8r-fill" data-item-order="-538578" transform="translate(398, 363)"></g><g id="g-root-cp_0_g-0_2_v649lzm9zh8r-stroke" data-item-order="-538578" transform="translate(398, 363)"><g id="cp_0_g-0_2_v649lzm9zh8r-stroke" fill="none" stroke-linecap="round" stroke-linejoin="round" stroke-miterlimit="4" stroke="#f4f4f4" stroke-width="2" stroke-opacity="1"><g><path d="M 34 10L 178 10M 178 82L 34 82"></path></g></g><g id="cp_0_g-0_2_v649lzm9zh8r-stroke" fill="none" stroke-linecap="round" stroke-linejoin="round" stroke-miterlimit="4" stroke="#f4f4f4" stroke-width="2" stroke-opacity="1"><g><path d="M 10 10L 34 10M 10 82L 34 82"></path></g></g><g id="cp_0_g-0_2_v649lzm9zh8r-stroke" fill="none" stroke-linecap="round" stroke-linejoin="round" stroke-miterlimit="4" stroke="#f4f4f4" stroke-width="2" stroke-opacity="1"><g><path d="M 172 82L 178 82L 202 46L 178 10L 172 10"></path></g></g></g><g id="g-root-cp_2_g-2_2_qqarhjm9zi10-fill" data-item-order="-538564" transform="translate(398, 363)"></g><g id="g-root-cp_2_g-2_2_qqarhjm9zi10-stroke" data-item-order="-538564" transform="translate(398, 363)"><g id="cp_2_g-2_2_qqarhjm9zi10-stroke" fill="none" stroke-linecap="round" stroke-linejoin="round" stroke-miterlimit="4" stroke="#1ac3fb" stroke-width="2" stroke-opacity="1"><g><path d="M 10 10L 34 46L 10 82"></path></g></g></g><g id="g-root-cp_4_g-4_1_qqarhjm9zi11-fill" data-item-order="-538550" transform="translate(637, 351)"></g><g id="g-root-cp_4_g-4_1_qqarhjm9zi11-stroke" data-item-order="-538550" transform="translate(637, 351)"><g id="cp_4_g-4_1_qqarhjm9zi11-stroke" fill="none" stroke-linecap="round" stroke-linejoin="round" stroke-miterlimit="4" stroke="#a6da37" stroke-width="2" stroke-opacity="1"><g><path d="M 16 22L 10 10L 131 10L 163 58L 131 106L 10 106L 16 94"></path></g></g></g><g id="g-root-cp_0_g-0_3_qqarhjm9zi12-fill" data-item-order="-538544" transform="translate(582, 363)"></g><g id="g-root-cp_0_g-0_3_qqarhjm9zi12-stroke" data-item-order="-538544" transform="translate(582, 363)"><g id="cp_0_g-0_3_qqarhjm9zi12-stroke" fill="none" stroke-linecap="round" stroke-linejoin="round" stroke-miterlimit="4" stroke="#f4f4f4" stroke-width="2" stroke-opacity="1"><g><path d="M 34 10L 178 10M 178 82L 34 82"></path></g></g><g id="cp_0_g-0_3_qqarhjm9zi12-stroke" fill="none" stroke-linecap="round" stroke-linejoin="round" stroke-miterlimit="4" stroke="#f4f4f4" stroke-width="2" stroke-opacity="1"><g><path d="M 10 10L 34 10M 10 82L 34 82"></path></g></g><g id="cp_0_g-0_3_qqarhjm9zi12-stroke" fill="none" stroke-linecap="round" stroke-linejoin="round" stroke-miterlimit="4" stroke="#f4f4f4" stroke-width="2" stroke-opacity="1"><g><path d="M 172 82L 178 82L 202 46L 178 10L 172 10"></path></g></g></g><g id="g-root-cp_3_g-3_2_qqarhjm9zi13-fill" data-item-order="-538530" transform="translate(582, 363)"></g><g id="g-root-cp_3_g-3_2_qqarhjm9zi13-stroke" data-item-order="-538530" transform="translate(582, 363)"><g id="cp_3_g-3_2_qqarhjm9zi13-stroke" fill="none" stroke-linecap="round" stroke-linejoin="round" stroke-miterlimit="4" stroke="#43dd93" stroke-width="2" stroke-opacity="1"><g><path d="M 10 10L 34 46L 10 82"></path></g></g></g><g id="g-root-sy_1_Subtract_1_mah9d3m9zitc-fill" data-item-order="-538512" transform="translate(143.8865966796875, 447)"></g><g id="g-root-sy_1_Subtract_1_mah9d3m9zitc-stroke" data-item-order="-538512" transform="translate(143.8865966796875, 447)"><g id="sy_1_Subtract_1_mah9d3m9zitc-stroke" fill="none" stroke-linecap="round" stroke-linejoin="round" stroke-miterlimit="4" stroke="#4f91fc" stroke-width="2" stroke-opacity="1"><g><path d="M 10.000102 75.000013L 10.000002 10.000013"></path></g></g></g><g id="g-root-sy_1_Subtract-start_mah9d3m9zitd-fill" data-item-order="-538510" transform="translate(140.88671875, 512)"></g><g id="g-root-sy_1_Subtract-start_mah9d3m9zitd-stroke" data-item-order="-538510" transform="translate(140.88671875, 512)"><g id="sy_1_Subtract-start_mah9d3m9zitd-stroke" fill="none" stroke-linecap="round" stroke-linejoin="round" stroke-miterlimit="4" stroke="#f4f4f4" stroke-width="2" stroke-opacity="1"><g><path d="M 10 13C 10 14.6557 11.3443 16 13 16C 14.6557 16 16 14.6557 16 13C 16 11.3443 14.6557 10 13 10C 11.3443 10 10 11.3443 10 13Z"></path></g></g></g><g id="g-root-sy_2_Subtract_1_mah9d3m9zite-fill" data-item-order="-538498" transform="translate(325.61334228515625, 447)"></g><g id="g-root-sy_2_Subtract_1_mah9d3m9zite-stroke" data-item-order="-538498" transform="translate(325.61334228515625, 447)"><g id="sy_2_Subtract_1_mah9d3m9zite-stroke" fill="none" stroke-linecap="round" stroke-linejoin="round" stroke-miterlimit="4" stroke="#1ac3fb" stroke-width="2" stroke-opacity="1"><g><path d="M 10.000133 82.000013L 10.000033 10.000013"></path></g></g></g><g id="g-root-cp_2_circle-2_mah9d3m9zitf-fill" data-item-order="-538496" transform="translate(289.61328125, 519)"></g><g id="g-root-cp_2_circle-2_mah9d3m9zitf-stroke" data-item-order="-538496" transform="translate(289.61328125, 519)"><g id="cp_2_circle-2_mah9d3m9zitf-stroke" fill="none" stroke-linecap="round" stroke-linejoin="round" stroke-miterlimit="4" stroke="#1ac3fb" stroke-width="2" stroke-opacity="1"><g><path d="M 10.000002 46C 10.000002 65.882251 26.117751 82 46.000002 82C 65.882253 82 82.000002 65.882251 82.000002 46C 82.000002 26.117749 65.882253 10 46.000002 10C 26.117751 10 10.000002 26.117749 10.000002 46"></path></g></g></g><g id="g-root-sy_3_Subtract_1_deu947m9zjm4-fill" data-item-order="-538486" transform="translate(509.23846435546875, 447)"></g><g id="g-root-sy_3_Subtract_1_deu947m9zjm4-stroke" data-item-order="-538486" transform="translate(509.23846435546875, 447)"><g id="sy_3_Subtract_1_deu947m9zjm4-stroke" fill="none" stroke-linecap="round" stroke-linejoin="round" stroke-miterlimit="4" stroke="#43dd93" stroke-width="2" stroke-opacity="1"><g><path d="M 10.000102 75.000013L 10.000002 10.000013"></path></g></g></g><g id="g-root-sy_3_Subtract-start_deu947m9zjm5-fill" data-item-order="-538484" transform="translate(506.23858642578125, 512)"></g><g id="g-root-sy_3_Subtract-start_deu947m9zjm5-stroke" data-item-order="-538484" transform="translate(506.23858642578125, 512)"><g id="sy_3_Subtract-start_deu947m9zjm5-stroke" fill="none" stroke-linecap="round" stroke-linejoin="round" stroke-miterlimit="4" stroke="#f4f4f4" stroke-width="2" stroke-opacity="1"><g><path d="M 10 13C 10 14.6557 11.3443 16 13 16C 14.6557 16 16 14.6557 16 13C 16 11.3443 14.6557 10 13 10C 11.3443 10 10 11.3443 10 13Z"></path></g></g></g><g id="g-root-sy_4_Subtract_1_deu947m9zjm6-fill" data-item-order="-538472" transform="translate(692.8636474609375, 447)"></g><g id="g-root-sy_4_Subtract_1_deu947m9zjm6-stroke" data-item-order="-538472" transform="translate(692.8636474609375, 447)"><g id="sy_4_Subtract_1_deu947m9zjm6-stroke" fill="none" stroke-linecap="round" stroke-linejoin="round" stroke-miterlimit="4" stroke="#a6da37" stroke-width="2" stroke-opacity="1"><g><path d="M 10.000102 82.000013L 10.000002 10.000013"></path></g></g></g><g id="g-root-cp_4_circle-4_deu947m9zjm7-fill" data-item-order="-538470" transform="translate(656.8635864257812, 519)"></g><g id="g-root-cp_4_circle-4_deu947m9zjm7-stroke" data-item-order="-538470" transform="translate(656.8635864257812, 519)"><g id="cp_4_circle-4_deu947m9zjm7-stroke" fill="none" stroke-linecap="round" stroke-linejoin="round" stroke-miterlimit="4" stroke="#a6da37" stroke-width="2" stroke-opacity="1"><g><path d="M 10.000002 46C 10.000002 65.882251 26.117751 82 46.000002 82C 65.882253 82 82.000002 65.882251 82.000002 46C 82.000002 26.117749 65.882253 10 46.000002 10C 26.117751 10 10.000002 26.117749 10.000002 46"></path></g></g></g><g id="g-root-tx_weeks34_1ur66xzm9zhmw-fill" data-item-order="0" transform="translate(250, 387)"><g id="tx_weeks34_1ur66xzm9zhmw-fill-merged" stroke="none" fill="#1ac3fb" fill-opacity="1"><g><text style="font: 20px Roboto, sans-serif; white-space: pre;" transform="translate(10, 22)" font-size="20px" font-family="Roboto, sans-serif"><tspan x="2" y="11.5" dominant-baseline="ideographic">Weeks 3-4</tspan></text></g></g></g><g id="g-root-tx_weeks34_1ur66xzm9zhmw-stroke" data-item-order="0" transform="translate(250, 387)"></g><g id="g-root-tx_week5_1ur66xzm9zhmx-fill" data-item-order="0" transform="translate(434, 387)"><g id="tx_week5_1ur66xzm9zhmx-fill-merged" stroke="none" fill="#43dd93" fill-opacity="1"><g><text style="font: 20px Roboto, sans-serif; white-space: pre;" transform="translate(10, 22)" font-size="20px" font-family="Roboto, sans-serif"><tspan x="2" y="11.5" dominant-baseline="ideographic">Week 5</tspan></text></g></g></g><g id="g-root-tx_week5_1ur66xzm9zhmx-stroke" data-item-order="0" transform="translate(434, 387)"></g><g id="g-root-tx_weeks67_1qbcotjm9zif6-fill" data-item-order="0" transform="translate(618, 387)"><g id="tx_weeks67_1qbcotjm9zif6-fill-merged" stroke="none" fill="#a6da37" fill-opacity="1"><g><text style="font: 20px Roboto, sans-serif; white-space: pre;" transform="translate(10, 22)" font-size="20px" font-family="Roboto, sans-serif"><tspan x="2" y="11.5" dominant-baseline="ideographic">Weeks 6-7</tspan></text></g></g></g><g id="g-root-tx_weeks67_1qbcotjm9zif6-stroke" data-item-order="0" transform="translate(618, 387)"></g><g id="g-root-tx_weeks12_5vn3bm9zh1r-fill" data-item-order="0" transform="translate(66, 387)"><g id="tx_weeks12_5vn3bm9zh1r-fill-merged" stroke="none" fill="#4f91fc" fill-opacity="1"><g><text style="font: 20px Roboto, sans-serif; white-space: pre;" transform="translate(10, 22)" font-size="20px" font-family="Roboto, sans-serif"><tspan x="2" y="11.5" dominant-baseline="ideographic">Weeks 1-2</tspan></text></g></g></g><g id="g-root-tx_weeks12_5vn3bm9zh1r-stroke" data-item-order="0" transform="translate(66, 387)"></g><g id="g-root-tx_3_90w693m9zjes-fill" data-item-order="0" transform="translate(498.05108642578125, 228)"><g id="tx_3_90w693m9zjes-fill-merged" stroke="none" fill="#43dd93" fill-opacity="1"><g><text style="font: bold 22.5px Roboto, sans-serif; white-space: pre;" transform="translate(18.45703125, 24)" font-weight="bold" font-size="22.5px" font-family="Roboto, sans-serif"><tspan x="-6.46" y="13" dominant-baseline="ideographic">3</tspan></text></g></g></g><g id="g-root-tx_3_90w693m9zjes-stroke" data-item-order="0" transform="translate(498.05108642578125, 228)"></g><g id="g-root-tx_1_qs66qvm9zh1l-fill" data-item-order="0" transform="translate(137.67578125, 228)"><g id="tx_1_qs66qvm9zh1l-fill-merged" stroke="none" fill="#4f91fc" fill-opacity="1"><g><text style="font: 22.5px Roboto, sans-serif; white-space: pre;" transform="translate(18.32421875, 24)" font-size="22.5px" font-family="Roboto, sans-serif"><tspan x="-6.32" y="13" dominant-baseline="ideographic">1</tspan></text></g></g></g><g id="g-root-tx_1_qs66qvm9zh1l-stroke" data-item-order="0" transform="translate(137.67578125, 228)"></g><g id="g-root-tx_deployto_90w693m9zjeu-fill" data-item-order="0" transform="translate(618.6998291015625, 176)"><g id="tx_deployto_90w693m9zjeu-fill-merged" stroke="none" fill="#f4f4f4" fill-opacity="1"><g><text style="font: 15px Roboto, sans-serif; white-space: pre;" transform="translate(76.23046875, 55)" font-size="15px" font-family="Roboto, sans-serif"><tspan x="-48.49" y="-27.5" dominant-baseline="ideographic">Deploy to Lisk </tspan><tspan x="-60.09" y="-9.5" dominant-baseline="ideographic">mainnet, onboard </tspan><tspan x="-55.42" y="8.5" dominant-baseline="ideographic">pilot merchants, </tspan><tspan x="-64.23" y="26.5" dominant-baseline="ideographic">launch bug bounty, </tspan><tspan x="-59.4" y="44.5" dominant-baseline="ideographic">and monitor KPIs</tspan></text></g></g></g><g id="g-root-tx_deployto_90w693m9zjeu-stroke" data-item-order="0" transform="translate(618.6998291015625, 176)"></g><g id="g-root-tx_integrat_dgpodjm9zimj-fill" data-item-order="0" transform="translate(257.67999267578125, 176)"><g id="tx_integrat_dgpodjm9zimj-fill-merged" stroke="none" fill="#f4f4f4" fill-opacity="1"><g><text style="font: 15px Roboto, sans-serif; white-space: pre;" transform="translate(78.4140625, 55)" font-size="15px" font-family="Roboto, sans-serif"><tspan x="-53.24" y="-27.5" dominant-baseline="ideographic">Integrate Gelato </tspan><tspan x="-58.83" y="-9.5" dominant-baseline="ideographic">Relay, build social </tspan><tspan x="-57.91" y="8.5" dominant-baseline="ideographic">login, QR code UI, </tspan><tspan x="-66.41" y="26.5" dominant-baseline="ideographic">and conduct end-to-</tspan><tspan x="-37.15" y="44.5" dominant-baseline="ideographic">end testing</tspan></text></g></g></g><g id="g-root-tx_integrat_dgpodjm9zimj-stroke" data-item-order="0" transform="translate(257.67999267578125, 176)"></g><g id="g-root-tx_pilotaud_90w693m9zjet-fill" data-item-order="0" transform="translate(618.1881103515625, 116)"><g id="tx_pilotaud_90w693m9zjet-fill-merged" stroke="none" fill="#a6da37" fill-opacity="1"><g><text style="font: 20px Roboto, sans-serif; white-space: pre;" transform="translate(76.7421875, 34)" font-size="20px" font-family="Roboto, sans-serif"><tspan x="-64.74" y="-0.5" dominant-baseline="ideographic">Pilot + Audit + </tspan><tspan x="-28.82" y="23.5" dominant-baseline="ideographic">Demo</tspan></text></g></g></g><g id="g-root-tx_pilotaud_90w693m9zjet-stroke" data-item-order="0" transform="translate(618.1881103515625, 116)"></g><g id="g-root-tx_gelatoin_mccomfm9zhtu-fill" data-item-order="0" transform="translate(265.46514892578125, 92)"><g id="tx_gelatoin_mccomfm9zhtu-fill-merged" stroke="none" fill="#1ac3fb" fill-opacity="1"><g><text style="font: 20px Roboto, sans-serif; white-space: pre;" transform="translate(70.62890625, 46)" font-size="20px" font-family="Roboto, sans-serif"><tspan x="-31.35" y="-12.5" dominant-baseline="ideographic">Gelato </tspan><tspan x="-58.63" y="11.5" dominant-baseline="ideographic">Integration + </tspan><tspan x="-15.24" y="35.5" dominant-baseline="ideographic">UX</tspan></text></g></g></g><g id="g-root-tx_gelatoin_mccomfm9zhtu-stroke" data-item-order="0" transform="translate(265.46514892578125, 92)"></g><g id="g-root-tx_vesselbu_hunr8nm9zjls-fill" data-item-order="0" transform="translate(305.7421875, 38)"><g id="tx_vesselbu_hunr8nm9zjls-fill-merged" stroke="none" fill="#f4f4f4" fill-opacity="1"><g><text style="font: bold 25px Roboto, sans-serif; white-space: pre;" transform="translate(125.7578125, 25)" font-weight="bold" font-size="25px" font-family="Roboto, sans-serif"><tspan x="-113.76" y="14.5" dominant-baseline="ideographic">Vessel Build Phases</tspan></text></g></g></g><g id="g-root-tx_vesselbu_hunr8nm9zjls-stroke" data-item-order="0" transform="translate(305.7421875, 38)"></g><g id="g-root-tx_serverle_1qbcotjm9zif7-fill" data-item-order="0" transform="translate(81.58203125, 531)"><g id="tx_serverle_1qbcotjm9zif7-fill-merged" stroke="none" fill="#4f91fc" fill-opacity="1"><g><text style="font: 20px Roboto, sans-serif; white-space: pre;" transform="translate(72.3046875, 34)" font-size="20px" font-family="Roboto, sans-serif"><tspan x="-46.25" y="-0.5" dominant-baseline="ideographic">Serverless </tspan><tspan x="-60.3" y="23.5" dominant-baseline="ideographic">Infrastructure</tspan></text></g></g></g><g id="g-root-tx_serverle_1qbcotjm9zif7-stroke" data-item-order="0" transform="translate(81.58203125, 531)"></g><g id="g-root-tx_traingas_1d0injbm9zguf-fill" data-item-order="0" transform="translate(439.05889892578125, 591)"><g id="tx_traingas_1d0injbm9zguf-fill-merged" stroke="none" fill="#f4f4f4" fill-opacity="1"><g><text style="font: 15px Roboto, sans-serif; white-space: pre;" transform="translate(80.1796875, 64)" font-size="15px" font-family="Roboto, sans-serif"><tspan x="-32.48" y="-36.5" dominant-baseline="ideographic">Train gas </tspan><tspan x="-63.88" y="-18.5" dominant-baseline="ideographic">forecasting model, </tspan><tspan x="-53.05" y="-0.5" dominant-baseline="ideographic">deploy Bedrock </tspan><tspan x="-59.59" y="17.5" dominant-baseline="ideographic">agent, implement </tspan><tspan x="-68.18" y="35.5" dominant-baseline="ideographic">fraud detection, and </tspan><tspan x="-67.5" y="53.5" dominant-baseline="ideographic">add circuit breakers</tspan></text></g></g></g><g id="g-root-tx_traingas_1d0injbm9zguf-stroke" data-item-order="0" transform="translate(439.05889892578125, 591)"></g><g id="g-root-tx_aioptimi_1hfpoknm9zj7y-fill" data-item-order="0" transform="translate(437.45343017578125, 531)"><g id="tx_aioptimi_1hfpoknm9zj7y-fill-merged" stroke="none" fill="#43dd93" fill-opacity="1"><g><text style="font: 20px Roboto, sans-serif; white-space: pre;" transform="translate(81.78515625, 34)" font-size="20px" font-family="Roboto, sans-serif"><tspan x="-69.79" y="-0.5" dominant-baseline="ideographic">AI Optimization </tspan><tspan x="-54.77" y="23.5" dominant-baseline="ideographic">+ Resilience</tspan></text></g></g></g><g id="g-root-tx_aioptimi_1hfpoknm9zj7y-stroke" data-item-order="0" transform="translate(437.45343017578125, 531)"></g><g id="g-root-tx_4_18kp5evm9zhmo-fill" data-item-order="0" transform="translate(684.40673828125, 541)"><g id="tx_4_18kp5evm9zhmo-fill-merged" stroke="none" fill="#a6da37" fill-opacity="1"><g><text style="font: bold 22.5px Roboto, sans-serif; white-space: pre;" transform="translate(18.45703125, 24)" font-weight="bold" font-size="22.5px" font-family="Roboto, sans-serif"><tspan x="-6.46" y="13" dominant-baseline="ideographic">4</tspan></text></g></g></g><g id="g-root-tx_4_18kp5evm9zhmo-stroke" data-item-order="0" transform="translate(684.40673828125, 541)"></g><g id="g-root-tx_deployer_1qbcotjm9zif8-fill" data-item-order="0" transform="translate(74, 591)"><g id="tx_deployer_1qbcotjm9zif8-fill-merged" stroke="none" fill="#f4f4f4" fill-opacity="1"><g><text style="font: 15px Roboto, sans-serif; white-space: pre;" transform="translate(79.88671875, 55)" font-size="15px" font-family="Roboto, sans-serif"><tspan x="-59.13" y="-27.5" dominant-baseline="ideographic">Deploy ERC-4337 </tspan><tspan x="-34.86" y="-9.5" dominant-baseline="ideographic">contracts, </tspan><tspan x="-62.57" y="8.5" dominant-baseline="ideographic">StableSwap AMM, </tspan><tspan x="-67.89" y="26.5" dominant-baseline="ideographic">and AWS serverless </tspan><tspan x="-30.16" y="44.5" dominant-baseline="ideographic">backend</tspan></text></g></g></g><g id="g-root-tx_deployer_1qbcotjm9zif8-stroke" data-item-order="0" transform="translate(74, 591)"></g><g id="g-root-tx_2_1hfpoknm9zj7x-fill" data-item-order="0" transform="translate(317.1564025878906, 541)"><g id="tx_2_1hfpoknm9zj7x-fill-merged" stroke="none" fill="#1ac3fb" fill-opacity="1"><g><text style="font: bold 22.5px Roboto, sans-serif; white-space: pre;" transform="translate(18.45703125, 24)" font-weight="bold" font-size="22.5px" font-family="Roboto, sans-serif"><tspan x="-6.46" y="13" dominant-baseline="ideographic">2</tspan></text></g></g></g><g id="g-root-tx_2_1hfpoknm9zj7x-stroke" data-item-order="0" transform="translate(317.1564025878906, 541)"></g></g></g><path id="wmbqh1zndpfyf" d="M65.283 12.757a.35.35 0 0 0 .584.157l5.203-5.141-6.183 3.523.396 1.461zm-2.216-11.7a.35.35 0 0 0-.522.305v3.111l3.276-1.868-2.754-1.548zm3.728 2.105l-4.25 2.421v2.445l6.391-3.644-2.141-1.222zm4.708 3.303a.35.35 0 0 0 0-.609l-1.592-.9-7.365 4.199v1.782a.35.35 0 0 0 .523.305l8.435-4.777z M44.542 2.513c0-.433.355-.783.792-.783s.792.35.792.783-.355.783-.792.783-.792-.35-.792-.783zm59.171 0c0-.433.355-.783.792-.783s.792.35.792.783-.355.783-.792.783-.792-.35-.792-.783zm-85.951 7.636h-1.27v-.487c-.276.201-.864.609-1.881.609-1.202 0-2.274-.794-2.137-2.078.118-1.106 1.153-1.584 1.848-1.727l2.17-.345c0-.539-.29-.956-1.064-1.006s-1.21.305-1.571 1.017l-1.124-.605c1.218-2.631 5.029-1.764 5.029.414v4.207zm-1.27-2.86c.006.396-.062 1.112-.819 1.59-.587.37-1.841.299-1.903-.395-.049-.555.461-.791.906-.898l1.816-.297zm72.662 2.86h-1.27v-.487c-.276.201-.864.609-1.881.609-1.202 0-2.274-.794-2.137-2.078.118-1.106 1.153-1.584 1.848-1.727l2.17-.345c0-.539-.29-.956-1.064-1.006s-1.21.305-1.571 1.017l-1.124-.605c1.218-2.631 5.029-1.764 5.029.414v4.207zm-1.27-2.86c.006.396-.062 1.112-.82 1.59-.587.37-1.841.299-1.903-.395-.049-.555.461-.791.906-.898l1.816-.297zM99.096 10.149H97.85v-8.45h1.246v4.895l2.68-2.559h1.738l-2.633 2.535 2.715 3.578h-1.556l-2.077-2.707-.867.844v1.863zm6.053-6.114h-1.255v6.113h1.255V4.035zm-59.2 0h-1.255v6.113h1.255V4.035zm5.584 6.113V1.697h1.255v2.695c.361-.346 1-.485 1.47-.485 1.452 0 2.477 1.082 2.457 2.448v3.792h-1.27v-3.68c0-.408-.214-1.339-1.315-1.339-.968 0-1.342.756-1.342 1.339v3.681h-1.255zm-4.76-4.894V4.039h.621a.45.45 0 0 0 .45-.45v-.855h1.251v1.305h1.309v1.215h-1.309v3.109c0 .293.105.664.648.664.365 0 .531-.035.736-.07v1.137s-.361.113-.857.113c-1.398 0-1.777-1.051-1.777-1.788V5.254h-1.071zM36.528 4.039h-1.394l2.191 6.106h1.125l1.234-3.918 1.238 3.918h1.129l2.188-6.106h-1.383l-1.359 3.93-1.256-3.93h-1.124l-1.242 3.957-1.348-3.957zM26.212 7.141c-.02 1.566 1.187 3.129 3.223 3.129 1.566 0 2.383-.918 2.734-1.719L31.172 8c-.315.399-.801 1.094-1.738 1.094-1.145 0-1.825-.781-1.891-1.52h4.625c.074-.284.148-.995-.03-1.559-.336-1.064-1.221-2.102-2.839-2.102s-3.088 1.152-3.088 3.227zm1.363-.75h3.348c-.055-.43-.566-1.301-1.623-1.301a1.79 1.79 0 0 0-1.725 1.301zm-8.758.75c.038 1.758 1.277 3.133 3.145 3.133 1.074 0 1.723-.477 1.961-.672v.547h1.242V1.703h-1.258v2.888c-.414-.36-1.062-.68-1.93-.68-1.91 0-3.198 1.473-3.16 3.23zm1.309-.08c0 1.119.723 1.978 1.836 1.978a1.88 1.88 0 0 0 1.94-1.904c0-1.371-1.011-1.99-1.972-1.99s-1.805.798-1.805 1.916zm76.683-.028C96.771 5.275 95.532 3.9 93.664 3.9c-1.074 0-1.723.477-1.961.672v-.547h-1.242v8.22h1.258V9.583c.414.36 1.063.68 1.93.68 1.91 0 3.198-1.473 3.16-3.23zm-1.309.08c0-1.119-.723-1.978-1.836-1.978a1.88 1.88 0 0 0-1.94 1.904c0 1.371 1.011 1.99 1.972 1.99S95.5 8.231 95.5 7.113zM106.441 10.173V4.036h1.254v.382c.361-.346 1-.485 1.47-.485 1.452 0 2.477 1.082 2.457 2.448v3.792h-1.27V6.492c0-.408-.214-1.339-1.315-1.339-.969 0-1.342.756-1.342 1.339v3.681h-1.254zm-30.383-.021V1.824h1.084l4.215 5.777V1.824h1.32v8.328h-1.094l-4.207-5.796v5.796h-1.319zM5.24 10.149H4V2.377h1.014l2.664 3.597 2.654-3.592h1.03v7.766h-1.256V4.762L7.678 8.068 5.24 4.742v5.407z" transform="translate(727, 723)" fill="#ababab88" stroke="none"></path></svg>