<?xml version="1.0" encoding="utf-8" standalone="yes"?>
<!DOCTYPE svg PUBLIC "-//W3C//DTD SVG 1.1//EN" "http://www.w3.org/Graphics/SVG/1.1/DTD/svg11.dtd">
<svg style="fill:none;stroke:none;fill-rule:evenodd;clip-rule:evenodd;stroke-linecap:round;stroke-linejoin:round;stroke-miterlimit:1.5;" version="1.1" xmlns="http://www.w3.org/2000/svg" xmlns:xlink="http://www.w3.org/1999/xlink" width="624" height="774" viewBox="0 0 624 774"><style class="text-font-style fontImports" data-font-family="Roboto">@import url(https://fonts.googleapis.com/css2?family=Roboto:wght@400;700&amp;amp;display=block);</style><g id="items" style="isolation: isolate"><g id="blend" style="mix-blend-mode: normal"><g id="g-root-cp_common_g-common_qsshfqmk3b48-fill" data-item-order="-390518" transform="translate(177, 417.804931640625)"><g id="cp_common_g-common_qsshfqmk3b48-fill-merged" stroke="none" fill="#4f91fc" fill-opacity="1"><g><path d="M189.573 81.904C199.848 81.904 208.178 83.985 208.178 86.551C208.177 89.116 199.848 91.196 189.573 91.196C179.299 91.196 170.969 89.117 170.968 86.551C170.968 83.985 179.298 81.904 189.573 81.904 M50.802 33.061C50.802 48.82 85.679 61.703 129.677 62.622C129.666 70.215 129.657 78.176 129.648 86.529C125.03 86.646 119.756 86.711 113.75 86.711C86.302 86.711 41.009 83.322 21.36 76.401C21.516 76.075 21.606 75.712 21.606 75.326C21.606 73.946 20.487 72.826 19.106 72.826C18.026 72.826 17.108 73.512 16.759 74.472C13.58 72.844 11.772 71.053 11.771 69.095C11.771 57.243 46.232 55.962 46.232 46.673C46.232 37.384 10.001 36.103 10 26.174C10 19.608 33.335 12.373 48.249 10L50.802 33.061 M221.044 11.214C233.025 13.575 248.625 17.146 248.625 20.729C248.625 26.814 231.645 30.017 231.645 37.384C231.645 44.751 259 50.517 259 57.243C259 63.97 233.979 71.336 207.125 71.336C180.271 71.336 152.154 69.735 152.152 73.898C152.152 78.062 159.339 79.739 159.34 82.104C159.34 83.729 154.719 85.295 140.21 86.116C140.128 77.908 140.045 70.083 139.961 62.617C183.86 61.661 218.627 48.795 218.627 33.061L221.044 11.214 M168.78 75.376C172.768 75.376 176 76.183 176 77.179C175.999 78.174 172.767 78.981 168.78 78.981C164.793 78.981 161.561 78.174 161.561 77.179C161.561 76.183 164.793 75.376 168.78 75.376"></path></g></g></g><g id="g-root-cp_common_g-common_qsshfqmk3b48-stroke" data-item-order="-390518" transform="translate(177, 417.804931640625)"><g id="cp_common_g-common_qsshfqmk3b48-stroke" fill="none" stroke-linecap="round" stroke-linejoin="round" stroke-miterlimit="4" stroke="#2c2c2c" stroke-width="2" stroke-opacity="1"><g><path d="M 189.5732 81.9043C 199.8482 81.9043 208.1777 83.9849 208.1777 86.5508C 208.1768 89.1164 199.8476 91.1962 189.5732 91.1963C 179.2987 91.1963 170.9687 89.1165 170.9678 86.5508C 170.9678 83.9849 179.2981 81.9043 189.5732 81.9043ZM 50.8018 33.0605C 50.8018 48.8201 85.6787 61.7026 129.6768 62.6221C 129.6656 70.2151 129.6568 78.176 129.6484 86.5293C 125.03 86.6455 119.7561 86.7109 113.75 86.7109C 86.3023 86.7109 41.0095 83.3218 21.3604 76.4014C 21.5162 76.0753 21.6064 75.7116 21.6064 75.3262C 21.6064 73.9455 20.4871 72.8262 19.1064 72.8262C 18.0262 72.8262 17.1081 73.5122 16.7588 74.4717C 13.5799 72.8442 11.7718 71.0532 11.7715 69.0947C 11.7715 57.2435 46.2324 55.9617 46.2324 46.6729C 46.2321 37.3842 10.0008 36.1029 10 26.1738C 10 19.6081 33.3346 12.3735 48.249 10L 50.8018 33.0605ZM 221.0439 11.2139C 233.0247 13.5745 248.625 17.1462 248.625 20.7295C 248.6246 26.8141 231.6451 30.0171 231.6445 37.3838C 231.6445 44.7508 259 50.5168 259 57.2432C 258.9996 63.9695 233.9792 71.3359 207.125 71.3359C 180.2714 71.3359 152.154 69.735 152.1523 73.8984C 152.1523 78.0621 159.339 79.7388 159.3398 82.1035C 159.3398 83.7286 154.7194 85.2947 140.21 86.1162C 140.1275 77.9081 140.0446 70.0827 139.9609 62.6172C 183.8602 61.6612 218.627 48.7951 218.627 33.0605L 221.0439 11.2139ZM 168.7803 75.376C 172.7676 75.376 176 76.183 176 77.1787C 175.9994 78.1743 172.7673 78.9814 168.7803 78.9814C 164.7932 78.9814 161.5611 78.1743 161.5605 77.1787C 161.5605 76.183 164.7928 75.376 168.7803 75.376Z"></path></g></g></g><g id="g-root-cp_common_g-common_1_mcyzbamk3bwh-fill" data-item-order="-390514" transform="translate(180.84695434570312, 199)"><g id="cp_common_g-common_1_mcyzbamk3bwh-fill-merged" stroke="none" fill="#b7b7b7" fill-opacity="1"><g><path d="M36.084 153.619C34.458 151.654 32.897 149.636 31.404 147.57C32.667 146.854 33.93 146.188 35.192 145.574L36.084 153.619 M225.863 151.718C226.179 151.875 226.494 152.034 226.808 152.196C226.426 152.673 226.042 153.148 225.653 153.619L225.863 151.718 M246.188 78.235C249.368 79.029 251.702 81.851 251.735 85.187 V85.512C250.907 109.133 242.73 130.942 229.338 148.922C228.34 148.429 227.336 147.96 226.329 147.512L226.701 144.156C238.735 127.293 246.039 107.099 246.798 85.34 V85.144C246.743 84.167 246.038 83.284 244.993 83.023L239.907 81.756L240.452 76.805L246.188 78.235 M21.693 81.79L16.743 83.023C15.628 83.301 14.9 84.287 14.937 85.34C15.66 106.068 22.323 125.375 33.356 141.736C31.854 142.383 30.345 143.09 28.833 143.861C17.562 126.912 10.753 106.958 10.004 85.512C9.883 82.036 12.265 79.054 15.547 78.235L21.144 76.84L21.693 81.79"></path></g></g><g id="cp_common_g-common_1_mcyzbamk3bwh-fill-merged" stroke="none" fill="#b7b7b7" fill-opacity="1"><g><path d="M226.328 147.512C213.548 141.819 200.09 139.644 186.653 141.001C184.451 141.224 183.21 143.877 186.425 144.463C186.575 144.49 186.733 144.493 186.885 144.48C200.942 143.303 214.02 145.831 225.863 151.719L214.78 251.865C214.78 267.6 180.014 280.466 136.114 281.422C134.788 163.131 133.32 135.171 132.153 106.001C131.974 101.505 127.653 101.001 127.653 106.001C126.497 136.452 125.998 167.57 125.83 281.427C81.832 280.507 46.955 267.625 46.955 251.865L35.191 145.575C45.738 140.441 56.176 138.859 65.322 140.507C66.527 140.724 67.673 139.836 67.692 138.612C67.707 137.684 67.069 136.879 66.15 136.741C57.058 135.377 46.105 136.523 34.704 141.17L26.389 66.031C43.694 76.619 83.958 84.041 130.867 84.041C177.776 84.041 218.041 76.619 235.347 66.031L226.328 147.512"></path></g></g><g id="cp_common_g-common_1_mcyzbamk3bwh-fill-merged" stroke="none" fill="#b7b7b7" fill-opacity="1"><g><path d="M130.868 10C68.168 10 17.339 23.26 17.339 39.616 V54.424C17.339 58.543 20.563 62.466 26.389 66.031C43.694 76.618 83.959 84.04 130.868 84.04C177.777 84.04 218.041 76.618 235.347 66.031C241.172 62.466 244.396 58.543 244.396 54.424 V39.616C244.396 23.26 193.568 10 130.868 10 M27.211 39.616C27.211 25.986 73.62 14.936 130.868 14.936C188.116 14.936 234.524 25.986 234.524 39.616C234.524 43.776 230.202 47.695 222.568 51.133C205.189 58.962 170.645 64.296 130.868 64.296C91.091 64.296 56.547 58.962 39.167 51.133C31.534 47.695 27.211 43.776 27.211 39.616 M222.568 51.133C230.202 47.695 234.524 43.776 234.524 39.616C234.524 25.986 188.116 14.936 130.868 14.936C73.62 14.936 27.211 25.986 27.211 39.616C27.211 43.776 31.534 47.695 39.167 51.133C56.547 43.305 91.091 37.971 130.868 37.971C170.645 37.971 205.189 43.305 222.568 51.133"></path></g></g><g id="cp_common_g-common_1_mcyzbamk3bwh-fill-merged" stroke="none" fill="#b7b7b7" fill-opacity="1"><g><path d="M21.061 76.075C20.896 74.583 21.419 73.097 22.482 72.038L26.601 67.931L28.99 89.502C27.11 88.31 25.694 87.439 24.072 86.425C22.8 85.631 21.968 84.295 21.804 82.805L21.061 76.075"></path></g></g><g id="cp_common_g-common_1_mcyzbamk3bwh-fill-merged" stroke="none" fill="#b7b7b7" fill-opacity="1"><g><path d="M240.534 76.071C240.699 74.582 240.178 73.098 239.118 72.039L235.126 68.048L232.75 89.479L237.535 86.433C238.797 85.63 239.626 84.298 239.79 82.811L240.534 76.071"></path></g></g></g><g id="g-root-cp_common_g-common_1_mcyzbamk3bwh-stroke" data-item-order="-390514" transform="translate(180.84695434570312, 199)"><g id="cp_common_g-common_1_mcyzbamk3bwh-stroke" fill="none" stroke-linecap="round" stroke-linejoin="round" stroke-miterlimit="4" stroke="#2c2c2c" stroke-width="2" stroke-opacity="1"><g><path d="M 36.083508 153.619188C 34.457508 151.653888 32.896708 149.636287 31.403808 147.570288C 32.666808 146.853788 33.930008 146.188488 35.191908 145.574188L 36.083508 153.619188ZM 225.862808 151.717788C 226.178808 151.874888 226.493908 152.034387 226.808108 152.196287C 226.426208 152.672988 226.042308 153.148388 225.652908 153.619188L 225.862808 151.717788ZM 246.188008 78.235388C 249.368008 79.028588 251.702308 81.851488 251.734908 85.187488L 251.731008 85.511688C 250.907008 109.132688 242.729708 130.941888 229.338408 148.921888C 228.339808 148.429388 227.336008 147.960488 226.328608 147.511688L 226.700708 144.156288C 238.734608 127.292988 246.039208 107.099188 246.798408 85.339888L 246.796408 85.143588C 246.742708 84.166688 246.037608 83.283988 244.992708 83.023488L 239.906808 81.755888L 240.451708 76.804688L 246.188008 78.235388ZM 21.692908 81.790088L 16.742708 83.023488C 15.628208 83.301388 14.900408 84.286888 14.937008 85.339888C 15.660208 106.067988 22.323408 125.375288 33.356008 141.736288C 31.854008 142.383087 30.344908 143.090188 28.832508 143.861288C 17.562308 126.911788 10.752608 106.958388 10.004408 85.511688C 9.883308 82.035688 12.264908 79.054188 15.547408 78.235388L 21.144108 76.839888L 21.692908 81.790088Z"></path></g></g><g id="cp_common_g-common_1_mcyzbamk3bwh-stroke" fill="none" stroke-linecap="round" stroke-linejoin="round" stroke-miterlimit="4" stroke="#2c2c2c" stroke-width="2" stroke-opacity="1"><g><path d="M 226.328233 147.51175C 213.547533 141.81865 200.090433 139.64375 186.653333 141.00095C 184.450633 141.22375 183.210433 143.87665 186.424833 144.46285C 186.574733 144.49025 186.733033 144.49315 186.884833 144.48045C 200.941733 143.30275 214.019733 145.83095 225.863333 151.71875L 214.780333 251.86525C 214.780333 267.59985 180.013733 280.46605 136.114333 281.42185C 134.788133 163.13125 133.320233 135.17095 132.153333 106.00095C 131.973533 101.50465 127.653333 101.00145 127.653333 106.00095C 126.497033 136.45225 125.997933 167.56955 125.830133 281.42675C 81.832133 280.50725 46.955133 267.62475 46.955133 251.86525L 35.191433 145.57515C 45.737933 140.44125 56.175833 138.85885 65.322333 140.50685C 66.526733 140.72385 67.672633 139.83595 67.692433 138.61235C 67.707433 137.68375 67.068933 136.87905 66.150433 136.74125C 57.057933 135.37665 46.105133 136.52345 34.704133 141.16995L 26.388733 66.03125C 43.694233 76.61905 83.958233 84.04095 130.867233 84.04105C 177.776433 84.04105 218.041233 76.61915 235.346733 66.03125L 226.328233 147.51175Z"></path></g></g><g id="cp_common_g-common_1_mcyzbamk3bwh-stroke" fill="none" stroke-linecap="round" stroke-linejoin="round" stroke-miterlimit="4" stroke="#2c2c2c" stroke-width="2" stroke-opacity="1"><g><path d="M 130.867716 10C 68.167816 10 17.339416 23.2596 17.339416 39.6161L 17.339416 54.4241C 17.339416 58.5435 20.563316 62.4664 26.388816 66.0305C 43.694316 76.6184 83.958616 84.0402 130.867716 84.0402C 177.776916 84.0402 218.041116 76.6184 235.346716 66.0305C 241.172216 62.4664 244.396116 58.5435 244.396116 54.4241L 244.396116 39.6161C 244.396116 23.2596 193.567716 10 130.867716 10ZM 27.211416 39.6161C 27.211416 25.9857 73.619916 14.936 130.867716 14.936C 188.115516 14.936 234.524016 25.9857 234.524016 39.6161C 234.524016 43.7758 230.201816 47.6952 222.568416 51.1335C 205.188716 58.9617 170.644716 64.2962 130.867716 64.2962C 91.090716 64.2962 56.546716 58.9616 39.167116 51.1335C 31.533616 47.6952 27.211416 43.7758 27.211416 39.6161ZM 222.568416 51.1335C 230.201816 47.6952 234.524016 43.7758 234.524016 39.6161C 234.524016 25.9857 188.115516 14.936 130.867716 14.936C 73.619916 14.936 27.211416 25.9857 27.211416 39.6161C 27.211416 43.7758 31.533616 47.6952 39.167116 51.1335C 56.546716 43.3053 91.090716 37.9707 130.867716 37.9707C 170.644716 37.9707 205.188716 43.3053 222.568416 51.1335Z"></path></g></g><g id="cp_common_g-common_1_mcyzbamk3bwh-stroke" fill="none" stroke-linecap="round" stroke-linejoin="round" stroke-miterlimit="4" stroke="#2c2c2c" stroke-width="2" stroke-opacity="1"><g><path d="M 21.060867 76.074864C 20.896167 74.583064 21.419167 73.097464 22.481967 72.037764L 26.601267 67.930664L 28.989967 89.501564C 27.109967 88.309764 25.693667 87.438564 24.071767 86.425264C 22.800367 85.630964 21.968367 84.294964 21.803867 82.804864L 21.060867 76.074864Z"></path></g></g><g id="cp_common_g-common_1_mcyzbamk3bwh-stroke" fill="none" stroke-linecap="round" stroke-linejoin="round" stroke-miterlimit="4" stroke="#2c2c2c" stroke-width="2" stroke-opacity="1"><g><path d="M 240.534261 76.071152C 240.698761 74.581652 240.177661 73.098152 239.117961 72.038752L 235.125961 68.047852L 232.750061 89.479452L 237.534861 86.433152C 238.796661 85.629852 239.626061 84.297752 239.790161 82.811052L 240.534261 76.071152Z"></path></g></g></g><g id="g-root-cp_common_g-common_2_mcyzbamk3bwi-fill" data-item-order="-390501" transform="translate(200.61599731445312, 284.921875)"></g><g id="g-root-cp_common_g-common_2_mcyzbamk3bwi-stroke" data-item-order="-390501" transform="translate(200.61599731445312, 284.921875)"><g id="cp_common_g-common_2_mcyzbamk3bwi-stroke" fill="none" stroke-linecap="round" stroke-linejoin="round" stroke-miterlimit="4" stroke="#f4f4f4" stroke-width="2" stroke-dasharray="5.0, 7.0" stroke-opacity="1"><g><path d="M 212.2044 10C 208.6378 25.4332 164.7342 37.6285 111.0985 37.6285C 57.4997 37.6285 13.6196 25.45 10 10.0318M 207.9261 49.4688C 207.1748 52.8636 204.5543 56.1017 200.3766 59.0879M 14.2788 49.5006C 14.6603 51.1975 15.5089 52.8552 16.7855 54.4617M 203.5459 88.9375C 200.379 103.9244 162.4323 115.8579 115.3311 116.5356M 18.6592 88.9693C 21.8605 103.8832 59.5054 115.7658 106.3195 116.5272M 198.9907 128.0781C 195.9962 143.1653 160.3333 155.1992 115.9113 156.0321M 22.9907 128.1104C 26.0319 143.1938 61.7268 155.2178 106.1636 156.0339M 106.6349 77.0664C 66.7108 76.514 33.0712 68.5898 19.945 57.6423M 114.4533 77.0798C 149.6723 76.7143 180.1308 70.6138 196.1447 61.738"></path></g></g></g><g id="g-root-cp_common_g-common_3_dhbz2emk3cp7-fill" data-item-order="-390498" transform="translate(210.01400756835938, 226.972900390625)"><g id="cp_common_g-common_3_dhbz2emk3cp7-fill-merged" stroke="none" fill="#4f91fc" fill-opacity="1"><g><path d="M101.701 36.325C61.924 36.325 27.38 30.991 10 23.163C27.38 15.335 61.924 10 101.701 10C141.478 10 176.022 15.335 193.401 23.163C176.022 30.991 141.478 36.325 101.701 36.325"></path></g></g></g><g id="g-root-cp_common_g-common_3_dhbz2emk3cp7-stroke" data-item-order="-390498" transform="translate(210.01400756835938, 226.972900390625)"><g id="cp_common_g-common_3_dhbz2emk3cp7-stroke" fill="none" stroke-linecap="round" stroke-linejoin="round" stroke-miterlimit="4" stroke="#2c2c2c" stroke-width="2" stroke-opacity="1"><g><path d="M 101.7006 36.3254C 61.9236 36.3254 27.3796 30.9909 10 23.1627C 27.3796 15.3345 61.9236 10 101.7006 10C 141.4776 10 176.0216 15.3345 193.4013 23.1627C 176.0216 30.9909 141.4776 36.3254 101.7006 36.3254Z"></path></g></g></g><g id="g-root-cp_1_g-1_1d1qwaunxj0nh-fill" data-item-order="-390494" transform="translate(92.60601806640625, 325.203125)"><g id="cp_1_g-1_1d1qwaunxj0nh-fill-merged" stroke="none" fill="#f79438" fill-opacity="1"><g><path d="M78.5 175.927C66.584 177.464 62.333 189.59 61.575 196.155C61.519 196.643 61.254 197.087 60.842 197.354C55.65 200.722 48.907 200.758 43.715 197.391C43.269 197.102 43.002 196.607 42.989 196.076C42.715 185.238 37.256 172.291 28 168.927C23.871 167.426 21.116 165.694 22.5 162.929C24.113 159.704 28.33 161.681 32 164.404C32.879 165.056 33.727 165.751 34.5 166.428C38.5 169.928 41 171.928 46 172.428C46.211 172.449 46.418 172.461 46.621 172.465C51.213 172.556 53.648 168.448 57 168.926C57.209 168.956 57.41 168.999 57.606 169.052C60.688 169.891 62.239 173.458 66 173.928C70 174.428 76.5 172.427 79.5 170.427C81.168 169.315 83.144 168.204 85 167.607C86.483 167.13 87.889 166.983 89 167.427C91.5 168.427 94 173.927 78.5 175.927 M88 148.928C88 151.413 85.985 153.428 83.5 153.428C81.015 153.428 79 151.413 79 148.928C79 146.443 81.015 144.428 83.5 144.428C85.985 144.428 88 146.443 88 148.928 M106 167.928C106 169.309 104.881 170.428 103.5 170.428C102.119 170.428 101 169.309 101 167.928C101 166.547 102.119 165.428 103.5 165.428C104.881 165.428 106 166.547 106 167.928 M17 156.928C17 158.861 15.433 160.428 13.5 160.428C11.567 160.428 10 158.861 10 156.928C10 154.995 11.567 153.428 13.5 153.428C15.433 153.428 17 154.995 17 156.928 M34.5 166.428C38.5 169.928 41 171.928 46 172.428C46.211 172.449 46.418 172.461 46.621 172.465C46.939 166.429 47.374 160.596 47.92 154.962C45.32 157.51 45.395 163.951 41 164.928C37.4 165.728 36.5 165.428 32 164.404C32.879 165.056 33.727 165.751 34.5 166.428 M155.932 12.409C155.947 11.481 155.309 10.675 154.391 10.538C120.127 5.396 59.447 35.919 47.92 154.962C47.374 160.596 46.939 166.429 46.621 172.465C51.213 172.556 53.648 168.448 57 168.926C57.209 168.956 57.41 168.999 57.606 169.052C57.645 167.253 57.696 165.471 57.76 163.706C61.859 51.107 117.664 7.835 153.563 14.304C154.767 14.521 155.913 13.633 155.932 12.409 M66 173.928C70 174.428 76.5 172.427 79.5 170.427C81.168 169.315 83.144 168.204 85 167.607C83.5 167.547 78.5 168.427 77 166.428C75.384 164.274 78.5 159.427 75 158.427C71.5 157.427 70.5 163.904 61.5 164.404C59.898 164.493 58.692 164.218 57.76 163.706C57.696 165.471 57.645 167.253 57.606 169.052C60.688 169.891 62.239 173.458 66 173.928"></path></g></g></g><g id="g-root-cp_1_g-1_1d1qwaunxj0nh-stroke" data-item-order="-390494" transform="translate(92.60601806640625, 325.203125)"><g id="cp_1_g-1_1d1qwaunxj0nh-stroke" fill="none" stroke-linecap="round" stroke-linejoin="round" stroke-miterlimit="4" stroke="#2c2c2c" stroke-width="2" stroke-opacity="1"><g><path d="M 78.4999 175.927C 66.5844 177.4645 62.3329 189.5901 61.5752 196.1549C 61.5189 196.6429 61.2539 197.0866 60.8417 197.3539C 55.65 200.7216 48.9066 200.7584 43.7148 197.3907C 43.269 197.1016 43.0025 196.6072 42.9891 196.076C 42.7152 185.2383 37.2562 172.291 27.9999 168.9267C 23.8713 167.4261 21.116 165.6944 22.4998 162.9286C 24.1133 159.7036 28.3302 161.6814 32 164.4042C 32.8792 165.0564 33.7269 165.7515 34.5 166.4279C 38.5 169.928 41 171.9278 46 172.4278C 46.2115 172.4489 46.4185 172.4612 46.6214 172.4652C 51.2133 172.5559 53.6482 168.4477 57.0001 168.9265C 57.2089 168.9564 57.4105 168.9986 57.6059 169.0519C 60.6879 169.8914 62.2386 173.4576 66 173.9278C 70 174.4278 76.5001 172.4269 79.5001 170.4269C 81.1676 169.3153 83.144 168.2036 85 167.6071C 86.4833 167.1304 87.8894 166.9828 88.9999 167.427C 91.4999 168.427 93.9999 173.927 78.4999 175.927ZM 88 148.9278C 88 151.4131 85.9853 153.4278 83.5 153.4278C 81.0147 153.4278 79 151.4131 79 148.9278C 79 146.4425 81.0147 144.4278 83.5 144.4278C 85.9853 144.4278 88 146.4425 88 148.9278ZM 106 167.9278C 106 169.3085 104.8807 170.4278 103.5 170.4278C 102.1193 170.4278 101 169.3085 101 167.9278C 101 166.5471 102.1193 165.4278 103.5 165.4278C 104.8807 165.4278 106 166.5471 106 167.9278ZM 17 156.9278C 17 158.8608 15.433 160.4278 13.5 160.4278C 11.567 160.4278 10 158.8608 10 156.9278C 10 154.9948 11.567 153.4278 13.5 153.4278C 15.433 153.4278 17 154.9948 17 156.9278ZM 34.5 166.4279C 38.5 169.928 41 171.9278 46 172.4278C 46.2115 172.4489 46.4185 172.4612 46.6214 172.4652C 46.9387 166.4289 47.3742 160.5965 47.9198 154.9624C 45.3202 157.51 45.3954 163.951 41 164.9278C 37.4 165.7278 36.5 165.4278 32 164.4042C 32.8792 165.0564 33.7269 165.7515 34.5 166.4279ZM 155.9323 12.4092C 155.9474 11.4806 155.3091 10.6755 154.3906 10.5376C 120.1272 5.3957 59.4473 35.9194 47.9198 154.9624C 47.3742 160.5965 46.9387 166.4289 46.6214 172.4652C 51.2133 172.5559 53.6482 168.4477 57.0001 168.9265C 57.2089 168.9564 57.4105 168.9986 57.6059 169.0519C 57.6445 167.253 57.696 165.4713 57.7603 163.7065C 61.8593 51.1072 117.6645 7.8353 153.5629 14.3036C 154.7673 14.5206 155.9125 13.6329 155.9323 12.4092ZM 66 173.9278C 70 174.4278 76.5001 172.4269 79.5001 170.4269C 81.1676 169.3153 83.144 168.2036 85 167.6071C 83.5 167.547 78.5001 168.4274 77 166.4279C 75.3843 164.2744 78.5001 159.4274 75 158.4273C 71.4999 157.4272 70.5 163.9042 61.5001 164.4042C 59.8977 164.4932 58.6915 164.2184 57.7603 163.7065C 57.696 165.4713 57.6445 167.253 57.6059 169.0519C 60.6879 169.8914 62.2386 173.4576 66 173.9278Z"></path></g></g></g><g id="g-root-cp_2_g-2_1lxdwjqnxizus-fill" data-item-order="-390490" transform="translate(269.60498046875, 291.434814453125)"><g id="cp_2_g-2_1lxdwjqnxizus-fill-merged" stroke="none" fill="#ffe711" fill-opacity="1"><g><path d="M20.614 293.868C30.955 295.436 34.572 307.927 35.164 314.5C35.196 314.858 35.376 315.19 35.663 315.407C40.072 318.738 46.191 318.765 50.6 315.434C50.909 315.201 51.089 314.837 51.095 314.45C51.265 303.462 55.962 290.223 63.968 286.802C67.512 285.287 69.878 283.539 68.69 280.748C67.305 277.493 63.685 279.489 60.534 282.237C60.33 282.416 60.128 282.597 59.928 282.78C59.39 283.274 58.872 283.782 58.388 284.28C54.954 287.813 52.808 289.831 48.515 290.336C48.435 290.345 48.355 290.353 48.276 290.359C44.142 290.672 42.02 286.307 39.072 286.802C38.288 286.933 37.621 287.305 37.003 287.792C35.25 289.172 33.884 291.477 31.345 291.85C27.911 292.354 22.331 290.335 19.756 288.316C18.492 287.326 17.022 286.336 15.599 285.703C15.409 285.619 15.221 285.541 15.034 285.47C13.76 284.989 12.553 284.84 11.6 285.288C9.453 286.298 7.307 291.849 20.614 293.868 M13.001 267.064C13.001 269.549 15.016 271.564 17.501 271.564C19.986 271.564 22.001 269.549 22.001 267.064C22.001 264.578 19.986 262.564 17.501 262.564C15.016 262.564 13.001 264.578 13.001 267.064 M30.001 256.064C30.001 257.444 31.12 258.564 32.501 258.564C33.882 258.564 35.001 257.444 35.001 256.064C35.001 254.683 33.882 253.564 32.501 253.564C31.12 253.564 30.001 254.683 30.001 256.064 M69.001 266.064C69.001 267.997 70.568 269.564 72.501 269.564C74.434 269.564 76.001 267.997 76.001 266.064C76.001 264.131 74.434 262.564 72.501 262.564C70.568 262.564 69.001 264.131 69.001 266.064 M37.003 287.792C37.621 287.305 38.288 286.933 39.072 286.802C42.02 286.307 44.142 290.672 48.276 290.359C48.236 285.013 48.196 279.783 48.156 274.665C46.65 82.194 44.802 48.759 43.395 13.563C43.215 9.067 38.894 8.564 38.894 13.563C37.47 51.067 37.044 89.58 37.004 282.423C36.526 282.509 35.993 282.537 35.396 282.499C27.585 282.001 26.717 275.549 23.679 276.546C20.641 277.542 23.346 282.37 21.943 284.515C20.8 286.265 17.312 285.801 15.599 285.703C17.022 286.336 18.492 287.326 19.756 288.316C22.331 290.335 27.911 292.354 31.345 291.85C33.884 291.477 35.25 289.172 37.003 287.792 M48.515 290.336C52.808 289.831 54.954 287.813 58.388 284.28C58.872 283.782 59.39 283.274 59.928 282.78C56.917 283.567 56.004 283.739 53.189 283.021C50.017 282.212 49.528 277.642 48.156 274.665C48.196 279.783 48.236 285.013 48.276 290.359C48.355 290.353 48.435 290.345 48.515 290.336 M37.003 287.792C37.003 285.989 37.004 284.2 37.004 282.423 V287.792"></path></g></g></g><g id="g-root-cp_2_g-2_1lxdwjqnxizus-stroke" data-item-order="-390490" transform="translate(269.60498046875, 291.434814453125)"><g id="cp_2_g-2_1lxdwjqnxizus-stroke" fill="none" stroke-linecap="round" stroke-linejoin="round" stroke-miterlimit="4" stroke="#2c2c2c" stroke-width="2" stroke-opacity="1"><g><path d="M 20.614 293.867554C 30.9553 295.436354 34.5723 307.927154 35.164 314.499554C 35.1963 314.858354 35.3758 315.189954 35.6632 315.407154C 40.0716 318.737954 46.1914 318.765254 50.5998 315.434354C 50.909 315.200854 51.0894 314.837454 51.0954 314.450054C 51.265 303.462154 55.9621 290.223054 63.9682 286.801854C 67.5125 285.287354 69.878 283.539454 68.69 280.747854C 67.3048 277.492754 63.6848 279.489254 60.5343 282.237354C 60.3299 282.415554 60.1276 282.596954 59.9279 282.780254C 59.3901 283.274154 58.872 283.782054 58.388 284.279954C 54.954 287.812754 52.8078 289.831154 48.5153 290.335854C 48.4347 290.345354 48.3548 290.353054 48.2757 290.358954C 44.1419 290.671654 42.02 286.306754 39.0717 286.801854C 38.2882 286.933454 37.6215 287.305354 37.0031 287.792154C 35.2496 289.172354 33.8839 291.476754 31.3453 291.849854C 27.9113 292.354454 22.3309 290.334954 19.7555 288.316254C 18.492 287.325954 17.0218 286.335654 15.5985 285.702854C 15.4092 285.618654 15.2208 285.540854 15.0338 285.470154C 13.7604 284.989054 12.553 284.839954 11.5997 285.288254C 9.4535 286.297554 7.3072 291.848954 20.614 293.867554ZM 13.001 267.063554C 13.001 269.548854 15.0157 271.563554 17.501 271.563554C 19.9863 271.563554 22.001 269.548854 22.001 267.063554C 22.001 264.578254 19.9863 262.563554 17.501 262.563554C 15.0157 262.563554 13.001 264.578254 13.001 267.063554ZM 30.001 256.063554C 30.001 257.444254 31.1203 258.563554 32.501 258.563554C 33.8817 258.563554 35.001 257.444254 35.001 256.063554C 35.001 254.682854 33.8817 253.563554 32.501 253.563554C 31.1203 253.563554 30.001 254.682854 30.001 256.063554ZM 69.001 266.063554C 69.001 267.996554 70.568 269.563554 72.501 269.563554C 74.434 269.563554 76.001 267.996554 76.001 266.063554C 76.001 264.130554 74.434 262.563554 72.501 262.563554C 70.568 262.563554 69.001 264.130554 69.001 266.063554ZM 35.3961 282.499354C 27.5849 282.001254 26.7171 275.549354 23.6792 276.545654C 20.6414 277.541854 23.3457 282.370154 21.9434 284.515354C 20.7997 286.264954 17.312 285.800954 15.5985 285.702854C 17.0218 286.335654 18.492 287.325954 19.7555 288.316254C 22.3309 290.334954 27.9113 292.354454 31.3453 291.849854C 33.8839 291.476754 35.2496 289.172354 37.0031 287.792154L 37.0041 282.423454C 36.5258 282.508754 35.9926 282.537354 35.3961 282.499354ZM 43.3945 13.563454C 43.2146 9.067154 38.8943 8.563954 38.8943 13.563454C 37.4701 51.066754 37.0436 89.580254 37.0041 282.423454L 37.0031 287.792154C 37.6215 287.305354 38.2882 286.933454 39.0717 286.801854C 42.02 286.306754 44.1419 290.671654 48.2757 290.358954C 48.2362 285.013154 48.1964 279.782854 48.1563 274.664954C 46.6504 82.193954 44.8023 48.759354 43.3945 13.563454ZM 48.5153 290.335854C 52.8078 289.831154 54.954 287.812754 58.388 284.279954C 58.872 283.782054 59.3901 283.274154 59.9279 282.780254C 56.917 283.567454 56.0043 283.739054 53.1887 283.020954C 50.0174 282.212154 49.5275 277.641854 48.1563 274.664954C 48.1964 279.782854 48.2362 285.013154 48.2757 290.358954C 48.3548 290.353054 48.4347 290.345354 48.5153 290.335854ZM 37.0031 287.792154C 37.0034 285.989354 37.0037 284.199854 37.0041 282.423454"></path></g></g></g><g id="g-root-cp_3_g-3_1lxdwjqnxizur-fill" data-item-order="-390484" transform="translate(355.3179931640625, 329.60791015625)"><g id="cp_3_g-3_1lxdwjqnxizur-fill-merged" stroke="none" fill="#43dd93" fill-opacity="1"><g><path d="M98.789 171.52C110.704 173.057 114.956 185.183 115.713 191.747C115.77 192.236 116.035 192.679 116.447 192.947C121.639 196.314 128.382 196.351 133.574 192.983C134.02 192.694 134.286 192.2 134.299 191.669C134.573 180.831 140.032 167.884 149.289 164.519C153.417 163.019 156.173 161.287 154.789 158.521C153.175 155.296 148.959 157.274 145.289 159.997C144.41 160.649 143.562 161.344 142.789 162.021C138.789 165.521 136.289 167.52 131.289 168.02C130.914 168.058 130.553 168.067 130.205 168.053C125.909 167.874 123.527 164.057 120.289 164.519C119.596 164.618 118.982 164.854 118.411 165.173C116.098 166.465 114.498 169.119 111.289 169.52C107.289 170.02 100.789 168.02 97.789 166.02C96.121 164.908 94.145 163.796 92.289 163.2C90.806 162.723 89.399 162.576 88.289 163.02C85.789 164.02 83.289 169.52 98.789 171.52 M89.289 139.52C89.289 142.006 91.304 144.02 93.789 144.02C96.274 144.02 98.289 142.006 98.289 139.52C98.289 137.035 96.274 135.02 93.789 135.02C91.304 135.02 89.289 137.035 89.289 139.52 M71.289 163.52C71.289 164.901 72.408 166.02 73.789 166.02C75.17 166.02 76.289 164.901 76.289 163.52C76.289 162.14 75.17 161.02 73.789 161.02C72.408 161.02 71.289 162.14 71.289 163.52 M97.789 166.02C100.789 168.02 107.289 170.02 111.289 169.52C114.498 169.119 116.098 166.465 118.411 165.173C118.293 163.385 118.164 161.611 118.022 159.85C117.377 159.989 116.639 160.044 115.789 159.997C106.789 159.497 105.789 153.02 102.289 154.02C98.789 155.02 101.905 159.867 100.289 162.021C98.789 164.02 93.789 163.14 92.289 163.2C94.145 163.796 96.121 164.908 97.789 166.02 M12.182 10.391C9.979 10.614 8.739 13.268 11.953 13.854C12.103 13.881 12.262 13.884 12.413 13.871C69.486 9.09 110.442 65.354 118.022 159.85C118.164 161.611 118.293 163.385 118.411 165.173C118.982 164.854 119.596 164.618 120.289 164.519C123.527 164.057 125.909 167.874 130.205 168.053C129.725 161.794 129.096 155.72 128.326 149.831C115.51 51.874 63.695 5.188 12.182 10.391 M145.289 159.997C140.789 161.02 139.889 161.32 136.289 160.52C131.375 159.428 132.049 151.506 128.326 149.831C129.096 155.72 129.725 161.794 130.205 168.053C130.553 168.067 130.914 168.058 131.289 168.02C136.289 167.52 138.789 165.521 142.789 162.021C143.562 161.344 144.41 160.649 145.289 159.997"></path></g></g></g><g id="g-root-cp_3_g-3_1lxdwjqnxizur-stroke" data-item-order="-390484" transform="translate(355.3179931640625, 329.60791015625)"><g id="cp_3_g-3_1lxdwjqnxizur-stroke" fill="none" stroke-linecap="round" stroke-linejoin="round" stroke-miterlimit="4" stroke="#2c2c2c" stroke-width="2" stroke-opacity="1"><g><path d="M 98.7887 171.5197C 110.7042 173.0571 114.9556 185.1828 115.7133 191.7475C 115.7696 192.2356 116.0347 192.6792 116.4468 192.9465C 121.6386 196.3142 128.382 196.351 133.5738 192.9834C 134.0196 192.6942 134.2861 192.1998 134.2995 191.6686C 134.5734 180.831 140.0324 167.8836 149.2887 164.5193C 153.4172 163.0187 156.1726 161.287 154.7888 158.5212C 153.1752 155.2962 148.9588 157.2741 145.2891 159.9968C 144.4099 160.6491 143.5621 161.3441 142.789 162.0206C 138.7891 165.5206 136.2891 167.5204 131.2891 168.0204C 130.9143 168.0579 130.5535 168.0673 130.2053 168.0528C 125.9086 167.8737 123.5266 164.0566 120.2889 164.5192C 119.5964 164.6181 118.9822 164.8541 118.4114 165.173C 116.0975 166.4655 114.4976 169.1193 111.2891 169.5204C 107.2891 170.0204 100.7889 168.0195 97.7889 166.0195C 96.1215 164.9079 94.1451 163.7963 92.2891 163.1998C 90.8058 162.7231 89.3991 162.5755 88.2887 163.0197C 85.7887 164.0197 83.2887 169.5197 98.7887 171.5197ZM 89.2891 139.5204C 89.2891 142.0057 91.3038 144.0204 93.7891 144.0204C 96.2743 144.0204 98.2891 142.0057 98.2891 139.5204C 98.2891 137.0351 96.2743 135.0204 93.7891 135.0204C 91.3038 135.0204 89.2891 137.0351 89.2891 139.5204ZM 71.2891 163.5204C 71.2891 164.9011 72.4084 166.0204 73.7891 166.0204C 75.1698 166.0204 76.2891 164.9011 76.2891 163.5204C 76.2891 162.1397 75.1698 161.0204 73.7891 161.0204C 72.4084 161.0204 71.2891 162.1397 71.2891 163.5204ZM 97.7889 166.0195C 100.7889 168.0195 107.2891 170.0204 111.2891 169.5204C 114.4976 169.1193 116.0975 166.4655 118.4114 165.173C 118.2934 163.3855 118.1638 161.6113 118.0225 159.8503C 117.3774 159.9888 116.6389 160.044 115.7889 159.9968C 106.7891 159.4968 105.7892 153.0198 102.2891 154.0199C 98.7889 155.0201 101.9047 159.867 100.2891 162.0206C 98.7889 164.0201 93.7891 163.1397 92.2891 163.1998C 94.1451 163.7963 96.1215 164.9079 97.7889 166.0195ZM 12.1824 10.3914C 9.9795 10.6139 8.7388 13.2677 11.9534 13.854C 12.1033 13.8813 12.2616 13.8841 12.4135 13.8714C 69.4864 9.0895 110.442 65.3535 118.0225 159.8503C 118.1638 161.6113 118.2934 163.3855 118.4114 165.173C 118.9822 164.8541 119.5964 164.6181 120.2889 164.5192C 123.5266 164.0566 125.9086 167.8737 130.2053 168.0528C 129.7253 161.7937 129.0959 155.7197 128.3255 149.8311C 115.5104 51.8738 63.695 5.1882 12.1824 10.3914ZM 145.2891 159.9968C 140.7891 161.0204 139.8891 161.3204 136.2891 160.5204C 131.375 159.4284 132.0489 151.5064 128.3255 149.8311C 129.0959 155.7197 129.7253 161.7937 130.2053 168.0528C 130.5535 168.0673 130.9143 168.0579 131.2891 168.0204C 136.2891 167.5204 138.7891 165.5206 142.789 162.0206C 143.5621 161.3441 144.4099 160.6491 145.2891 159.9968Z"></path></g></g></g><g id="g-root-tx_globalst_1d1qwaunxj0ni-fill" data-item-order="0" transform="translate(82.890625, 38)"><g id="tx_globalst_1d1qwaunxj0ni-fill-merged" stroke="none" fill="#f4f4f4" fill-opacity="1"><g><text style="font: bold 25px Roboto, sans-serif; white-space: pre;" transform="translate(229.109375, 25)" font-weight="bold" font-size="25px" font-family="Roboto, sans-serif"><tspan x="-217.11" y="14.5" dominant-baseline="ideographic">Global Stablecoin Payment Challenges</tspan></text></g></g></g><g id="g-root-tx_globalst_1d1qwaunxj0ni-stroke" data-item-order="0" transform="translate(82.890625, 38)"></g><g id="g-root-tx_consumer_1hcklqenxlssr-fill" data-item-order="0" transform="translate(83.24609375, 536)"><g id="tx_consumer_1hcklqenxlssr-fill-merged" stroke="none" fill="#f79438" fill-opacity="1"><g><text style="font: bold 20px Roboto, sans-serif; white-space: pre;" transform="translate(60.75390625, 34)" font-weight="bold" font-size="20px" font-family="Roboto, sans-serif"><tspan x="-48.75" y="-0.5" dominant-baseline="ideographic">Consumer </tspan><tspan x="-36.65" y="23.5" dominant-baseline="ideographic">Friction</tspan></text></g></g></g><g id="g-root-tx_consumer_1hcklqenxlssr-stroke" data-item-order="0" transform="translate(83.24609375, 536)"></g><g id="g-root-tx_economic_18lxe6enxj1fr-fill" data-item-order="0" transform="translate(421.34765625, 536)"><g id="tx_economic_18lxe6enxj1fr-fill-merged" stroke="none" fill="#43dd93" fill-opacity="1"><g><text style="font: bold 20px Roboto, sans-serif; white-space: pre;" transform="translate(58.65234375, 34)" font-weight="bold" font-size="20px" font-family="Roboto, sans-serif"><tspan x="-46.65" y="-0.5" dominant-baseline="ideographic">Economic </tspan><tspan x="-33.37" y="23.5" dominant-baseline="ideographic">Reality</tspan></text></g></g></g><g id="g-root-tx_economic_18lxe6enxj1fr-stroke" data-item-order="0" transform="translate(421.34765625, 536)"></g><g id="g-root-tx_gascompl_1cwr3lynxltl1-fill" data-item-order="0" transform="translate(75.63671875, 596)"><g id="tx_gascompl_1cwr3lynxltl1-fill-merged" stroke="none" fill="#f4f4f4" fill-opacity="1"><g><text style="font: 15px Roboto, sans-serif; white-space: pre;" transform="translate(68.36328125, 28)" font-size="15px" font-family="Roboto, sans-serif"><tspan x="-55" y="-0.5" dominant-baseline="ideographic">Gas, complexity, </tspan><tspan x="-56.36" y="17.5" dominant-baseline="ideographic">costs, mismatch</tspan></text></g></g></g><g id="g-root-tx_gascompl_1cwr3lynxltl1-stroke" data-item-order="0" transform="translate(75.63671875, 596)"></g><g id="g-root-tx_highfees_1463w1ynxj280-fill" data-item-order="0" transform="translate(415.46875, 596)"><g id="tx_highfees_1463w1ynxj280-fill-merged" stroke="none" fill="#f4f4f4" fill-opacity="1"><g><text style="font: 15px Roboto, sans-serif; white-space: pre;" transform="translate(64.53125, 28)" font-size="15px" font-family="Roboto, sans-serif"><tspan x="-52.53" y="-0.5" dominant-baseline="ideographic">High fees, slow </tspan><tspan x="-37.57" y="17.5" dominant-baseline="ideographic">settlement</tspan></text></g></g></g><g id="g-root-tx_highfees_1463w1ynxj280-stroke" data-item-order="0" transform="translate(415.46875, 596)"></g><g id="g-root-tx_merchant_13z8o3qnxlvd8-fill" data-item-order="0" transform="translate(236.7578125, 620)"><g id="tx_merchant_13z8o3qnxlvd8-fill-merged" stroke="none" fill="#ffe711" fill-opacity="1"><g><text style="font: bold 20px Roboto, sans-serif; white-space: pre;" transform="translate(75.2421875, 34)" font-weight="bold" font-size="20px" font-family="Roboto, sans-serif"><tspan x="-42.88" y="-0.5" dominant-baseline="ideographic">Merchant </tspan><tspan x="-63.24" y="23.5" dominant-baseline="ideographic">Abandonment</tspan></text></g></g></g><g id="g-root-tx_merchant_13z8o3qnxlvd8-stroke" data-item-order="0" transform="translate(236.7578125, 620)"></g><g id="g-root-tx_highaban_qoemtinxltsd-fill" data-item-order="0" transform="translate(232.97265625, 680)"><g id="tx_highaban_qoemtinxltsd-fill-merged" stroke="none" fill="#f4f4f4" fill-opacity="1"><g><text style="font: 15px Roboto, sans-serif; white-space: pre;" transform="translate(79.02734375, 28)" font-size="15px" font-family="Roboto, sans-serif"><tspan x="-67.03" y="-0.5" dominant-baseline="ideographic">High abandonment, </tspan><tspan x="-53.94" y="17.5" dominant-baseline="ideographic">failures, latency</tspan></text></g></g></g><g id="g-root-tx_highaban_qoemtinxltsd-stroke" data-item-order="0" transform="translate(232.97265625, 680)"></g></g></g><path id="w1d0iaxjq5fqbu" d="M65.283 12.757a.35.35 0 0 0 .584.157l5.203-5.141-6.183 3.523.396 1.461zm-2.216-11.7a.35.35 0 0 0-.522.305v3.111l3.276-1.868-2.754-1.548zm3.728 2.105l-4.25 2.421v2.445l6.391-3.644-2.141-1.222zm4.708 3.303a.35.35 0 0 0 0-.609l-1.592-.9-7.365 4.199v1.782a.35.35 0 0 0 .523.305l8.435-4.777z M44.542 2.513c0-.433.355-.783.792-.783s.792.35.792.783-.355.783-.792.783-.792-.35-.792-.783zm59.171 0c0-.433.355-.783.792-.783s.792.35.792.783-.355.783-.792.783-.792-.35-.792-.783zm-85.951 7.636h-1.27v-.487c-.276.201-.864.609-1.881.609-1.202 0-2.274-.794-2.137-2.078.118-1.106 1.153-1.584 1.848-1.727l2.17-.345c0-.539-.29-.956-1.064-1.006s-1.21.305-1.571 1.017l-1.124-.605c1.218-2.631 5.029-1.764 5.029.414v4.207zm-1.27-2.86c.006.396-.062 1.112-.819 1.59-.587.37-1.841.299-1.903-.395-.049-.555.461-.791.906-.898l1.816-.297zm72.662 2.86h-1.27v-.487c-.276.201-.864.609-1.881.609-1.202 0-2.274-.794-2.137-2.078.118-1.106 1.153-1.584 1.848-1.727l2.17-.345c0-.539-.29-.956-1.064-1.006s-1.21.305-1.571 1.017l-1.124-.605c1.218-2.631 5.029-1.764 5.029.414v4.207zm-1.27-2.86c.006.396-.062 1.112-.82 1.59-.587.37-1.841.299-1.903-.395-.049-.555.461-.791.906-.898l1.816-.297zM99.096 10.149H97.85v-8.45h1.246v4.895l2.68-2.559h1.738l-2.633 2.535 2.715 3.578h-1.556l-2.077-2.707-.867.844v1.863zm6.053-6.114h-1.255v6.113h1.255V4.035zm-59.2 0h-1.255v6.113h1.255V4.035zm5.584 6.113V1.697h1.255v2.695c.361-.346 1-.485 1.47-.485 1.452 0 2.477 1.082 2.457 2.448v3.792h-1.27v-3.68c0-.408-.214-1.339-1.315-1.339-.968 0-1.342.756-1.342 1.339v3.681h-1.255zm-4.76-4.894V4.039h.621a.45.45 0 0 0 .45-.45v-.855h1.251v1.305h1.309v1.215h-1.309v3.109c0 .293.105.664.648.664.365 0 .531-.035.736-.07v1.137s-.361.113-.857.113c-1.398 0-1.777-1.051-1.777-1.788V5.254h-1.071zM36.528 4.039h-1.394l2.191 6.106h1.125l1.234-3.918 1.238 3.918h1.129l2.188-6.106h-1.383l-1.359 3.93-1.256-3.93h-1.124l-1.242 3.957-1.348-3.957zM26.212 7.141c-.02 1.566 1.187 3.129 3.223 3.129 1.566 0 2.383-.918 2.734-1.719L31.172 8c-.315.399-.801 1.094-1.738 1.094-1.145 0-1.825-.781-1.891-1.52h4.625c.074-.284.148-.995-.03-1.559-.336-1.064-1.221-2.102-2.839-2.102s-3.088 1.152-3.088 3.227zm1.363-.75h3.348c-.055-.43-.566-1.301-1.623-1.301a1.79 1.79 0 0 0-1.725 1.301zm-8.758.75c.038 1.758 1.277 3.133 3.145 3.133 1.074 0 1.723-.477 1.961-.672v.547h1.242V1.703h-1.258v2.888c-.414-.36-1.062-.68-1.93-.68-1.91 0-3.198 1.473-3.16 3.23zm1.309-.08c0 1.119.723 1.978 1.836 1.978a1.88 1.88 0 0 0 1.94-1.904c0-1.371-1.011-1.99-1.972-1.99s-1.805.798-1.805 1.916zm76.683-.028C96.771 5.275 95.532 3.9 93.664 3.9c-1.074 0-1.723.477-1.961.672v-.547h-1.242v8.22h1.258V9.583c.414.36 1.063.68 1.93.68 1.91 0 3.198-1.473 3.16-3.23zm-1.309.08c0-1.119-.723-1.978-1.836-1.978a1.88 1.88 0 0 0-1.94 1.904c0 1.371 1.011 1.99 1.972 1.99S95.5 8.231 95.5 7.113zM106.441 10.173V4.036h1.254v.382c.361-.346 1-.485 1.47-.485 1.452 0 2.477 1.082 2.457 2.448v3.792h-1.27V6.492c0-.408-.214-1.339-1.315-1.339-.969 0-1.342.756-1.342 1.339v3.681h-1.254zm-30.383-.021V1.824h1.084l4.215 5.777V1.824h1.32v8.328h-1.094l-4.207-5.796v5.796h-1.319zM5.24 10.149H4V2.377h1.014l2.664 3.597 2.654-3.592h1.03v7.766h-1.256V4.762L7.678 8.068 5.24 4.742v5.407z" transform="translate(488, 740)" fill="#ababab88" stroke="none"></path></svg>