<?xml version="1.0" encoding="utf-8" standalone="yes"?>
<!DOCTYPE svg PUBLIC "-//W3C//DTD SVG 1.1//EN" "http://www.w3.org/Graphics/SVG/1.1/DTD/svg11.dtd">
<svg style="fill:none;stroke:none;fill-rule:evenodd;clip-rule:evenodd;stroke-linecap:round;stroke-linejoin:round;stroke-miterlimit:1.5;" version="1.1" xmlns="http://www.w3.org/2000/svg" xmlns:xlink="http://www.w3.org/1999/xlink" width="1009" height="672" viewBox="0 0 1009 672"><style class="text-font-style fontImports" data-font-family="Roboto">@import url(https://fonts.googleapis.com/css2?family=Roboto:wght@400;700&amp;amp;display=block);</style><g id="items" style="isolation: isolate"><g id="blend" style="mix-blend-mode: normal"><g id="g-root-cp_0f_g-0f_1uqjsxyndqw3k-fill" data-item-order="-553526" transform="translate(554, 472.25390625)"><g id="cp_0f_g-0f_1uqjsxyndqw3k-fill-merged" stroke="none" fill="#ababab" fill-opacity="1"><g><path d="M12.344 60.086L11.172 58.913C9.609 57.351 9.609 54.818 11.172 53.256L12.342 52.086L24.341 40.086L30.586 33.842C31.711 32.717 33.237 32.084 34.828 32.084 H134.343C134.381 28.764 137.053 26.085 140.343 26.085C142.735 26.085 144.8 27.501 145.764 29.551L146.176 82.444C145.54 85.106 143.17 87.085 140.343 87.085C137.029 87.085 134.343 84.366 134.343 81.013 V66.086C134.344 62.772 131.657 60.086 128.344 60.086C131.657 60.086 134.344 62.772 134.344 66.086 V74.086 H117.172C116.642 74.086 116.133 73.875 115.758 73.5L110.344 68.086L105.758 72.672C104.977 73.453 103.71 73.453 102.929 72.672L98.344 68.086L92.929 73.5C92.554 73.875 92.046 74.086 91.515 74.086 H87.172C86.642 74.086 86.133 73.875 85.758 73.5L80.344 68.086L74.929 73.5C74.554 73.875 74.046 74.086 73.515 74.086 H69.172C68.642 74.086 68.133 73.875 67.758 73.5L62.344 68.086L54.929 75.5C54.554 75.875 54.046 76.086 53.515 76.086 H47.172C46.642 76.086 46.133 75.875 45.758 75.5L38.344 68.086L30.758 75.672C29.977 76.453 28.71 76.453 27.929 75.672L12.344 60.086 M12.342 52.086L24.341 40.086 H125.342C128.656 40.086 131.342 42.773 131.342 46.086C131.342 49.4 128.656 52.086 125.342 52.086L24.341 40.086 H125.342C128.656 40.086 131.342 42.773 131.342 46.086C131.342 49.4 128.656 52.086 125.342 52.086 M163.399 28.54C161.711 29.508 162.398 32.086 164.344 32.086C167.657 32.086 170.344 34.772 170.344 38.086 V74.086C170.344 77.4 167.657 80.086 164.344 80.086C162.4 80.086 161.714 82.662 163.4 83.629L194.36 101.374C196.208 102.433 198.479 102.433 200.327 101.374L235.327 81.313C237.193 80.244 238.344 78.258 238.344 76.108 V36.061C238.344 33.911 237.193 31.925 235.327 30.855L200.327 10.795C198.479 9.735 196.208 9.735 194.36 10.795L163.399 28.54 M210.342 62.308C210.342 66.604 213.924 70.086 218.342 70.086C222.761 70.086 226.342 66.604 226.342 62.308 V49.864C226.342 45.569 222.761 42.086 218.342 42.086C213.924 42.086 210.342 45.569 210.342 49.864 V62.308"></path></g></g></g><g id="g-root-cp_0f_g-0f_1uqjsxyndqw3k-stroke" data-item-order="-553526" transform="translate(554, 472.25390625)"><g id="cp_0f_g-0f_1uqjsxyndqw3k-stroke" fill="none" stroke-linecap="round" stroke-linejoin="round" stroke-miterlimit="4" stroke="#2c2c2c" stroke-width="2" stroke-opacity="1"><g><path d="M 134.3436 66.0859L 134.3436 74.0859L 117.172 74.0859C 116.6416 74.0859 116.1329 73.8752 115.7578 73.5001L 110.3436 68.0859L 105.7578 72.6717C 104.9767 73.4528 103.7104 73.4528 102.9294 72.6717L 98.3436 68.0859L 92.9294 73.5001C 92.5543 73.8752 92.0456 74.0859 91.5151 74.0859L 87.172 74.0859C 86.6416 74.0859 86.1329 73.8752 85.7578 73.5001L 80.3436 68.0859L 74.9294 73.5001C 74.5543 73.8752 74.0456 74.0859 73.5151 74.0859L 69.172 74.0859C 68.6416 74.0859 68.1329 73.8752 67.7578 73.5001L 62.3436 68.0859L 54.9294 75.5002C 54.5543 75.8752 54.0456 76.0859 53.5151 76.0859L 47.172 76.0859C 46.6416 76.0859 46.1329 75.8752 45.7578 75.5002L 38.3436 68.0859L 30.7578 75.6717C 29.9767 76.4528 28.7104 76.4528 27.9294 75.6717L 12.3436 60.0859L 128.3436 60.0859C 131.6573 60.0859 134.3436 62.7722 134.3436 66.0859ZM 140.343 87.0845C 143.1698 87.0845 145.54 85.1065 146.1755 82.4436L 145.764 29.5505C 144.8003 27.5012 142.7352 26.0846 140.343 26.0846C 137.0529 26.0846 134.3812 28.7643 134.3434 32.0845L 34.8283 32.0845C 33.237 32.0845 31.7109 32.7167 30.5857 33.8419L 24.3413 40.0863L 12.3424 52.0863L 11.1716 53.2561C 9.6095 54.8182 9.6095 57.3509 11.1716 58.913L 12.3436 60.0859L 128.3436 60.0859C 131.6573 60.0859 134.3436 62.7722 134.3436 66.0859L 134.3436 74.0859L 134.343 81.0132C 134.343 84.3663 137.0293 87.0845 140.343 87.0845ZM 125.3424 52.0863L 12.3424 52.0863L 24.3413 40.0863L 125.3424 40.0863C 128.6562 40.0863 131.3424 42.7726 131.3424 46.0863C 131.3424 49.4 128.6562 52.0863 125.3424 52.0863ZM 131.3424 46.0863C 131.3424 42.7726 128.6562 40.0863 125.3424 40.0863L 24.3413 40.0863L 12.3424 52.0863L 125.3424 52.0863C 128.6562 52.0863 131.3424 49.4 131.3424 46.0863ZM 163.3994 28.5401C 161.7113 29.5077 162.3979 32.0861 164.3436 32.0861C 167.6573 32.0861 170.3436 34.7724 170.3436 38.0861L 170.3436 74.0861C 170.3436 77.3998 167.6573 80.0861 164.3436 80.0861C 162.3996 80.0861 161.7137 82.6623 163.4003 83.629L 194.3599 101.3742C 196.208 102.4334 198.4792 102.4334 200.3273 101.3742L 235.3273 81.3132C 237.1929 80.2439 238.3436 78.2579 238.3436 76.1076L 238.3436 36.061C 238.3436 33.9107 237.1929 31.9247 235.3273 30.8554L 200.3273 10.7945C 198.4792 9.7352 196.208 9.7352 194.3599 10.7945L 163.3994 28.5401ZM 210.3424 62.3085C 210.3424 66.6041 213.9242 70.0863 218.3424 70.0863C 222.7607 70.0863 226.3424 66.6041 226.3424 62.3085L 226.3424 49.8641C 226.3424 45.5685 222.7607 42.0863 218.3424 42.0863C 213.9242 42.0863 210.3424 45.5685 210.3424 49.8641L 210.3424 62.3085Z"></path></g></g></g><g id="g-root-cp_0e_g-0e_1uqjsxyndqw3l-fill" data-item-order="-553522" transform="translate(541.9630126953125, 327.98095703125)"><g id="cp_0e_g-0e_1uqjsxyndqw3l-fill-merged" stroke="none" fill="#ababab" fill-opacity="1"><g><path d="M117.257 99.739C115.31 97.057 111.558 96.462 108.877 98.409L15.01 166.564L36.779 170.018C37.87 170.192 38.895 169.448 39.068 168.357L40.75 157.761L48.312 158.961C48.836 159.044 49.371 158.916 49.8 158.605L53.315 156.053C53.744 155.741 54.032 155.272 54.115 154.748L55.315 147.186L61.72 148.202C62.811 148.375 63.836 147.631 64.009 146.54L65.025 140.135L69.881 136.61L76.286 137.626C77.377 137.799 78.401 137.055 78.574 135.964L79.591 129.559L87.153 130.759C87.677 130.842 88.212 130.714 88.642 130.402L97.682 123.839L99.657 124.152C100.181 124.235 100.716 124.107 101.145 123.795L106.278 120.068C106.707 119.757 106.995 119.287 107.078 118.763L108.722 108.408L116.284 109.608C116.808 109.691 117.343 109.563 117.773 109.251L121.957 106.212L117.257 99.739 M103.078 85.318C101.131 82.637 97.379 82.041 94.698 83.988L12.969 143.33L10.31 160.091L101.748 93.699C104.43 91.752 105.025 88 103.078 85.318 M134.45 113.207C135.641 112.343 136.417 111.117 136.739 109.784L102.272 62.714C101.001 62.679 99.713 63.046 98.61 63.847C95.948 65.78 95.36 69.518 97.281 72.227L16.754 130.696C15.466 131.631 14.602 133.039 14.353 134.611L12.969 143.33L94.698 83.988C97.379 82.041 101.131 82.637 103.078 85.318C105.025 88 104.43 91.752 101.748 93.699L10.31 160.091L10.05 161.727C9.704 163.909 11.192 165.958 13.374 166.305L15.01 166.564L108.877 98.409C111.558 96.462 115.31 97.057 117.257 99.739L121.957 106.212L126.028 111.82C127.998 114.533 131.769 115.154 134.45 113.207 M146.338 11.89C148.508 10.315 151.158 9.515 153.718 10.314C159.693 12.177 171.665 18.087 185.24 36.784C198.815 55.48 200.728 68.694 200.651 74.952C200.618 77.633 199.037 79.905 196.867 81.481L161.833 106.918C159.664 108.494 157.014 109.294 154.454 108.495C153.257 108.121 151.819 107.586 150.175 106.817C144.744 104.276 144.906 96.965 149.758 93.441C152.44 91.494 153.035 87.742 151.088 85.061L129.937 55.93C127.99 53.249 124.238 52.653 121.556 54.6C116.426 58.325 109.018 56.228 108.009 49.969C107.611 47.496 107.501 45.451 107.521 43.856C107.554 41.175 109.135 38.903 111.305 37.327L146.338 11.89 M159.973 34.122L160.59 33.674C162.804 32.066 165.565 31.287 167.971 32.592C170.508 33.969 174.05 36.692 177.957 42.072C181.864 47.453 183.356 51.664 183.88 54.503C184.376 57.194 182.781 59.578 180.566 61.186L179.949 61.634C177.735 63.242 174.974 64.021 172.568 62.716C170.031 61.339 166.489 58.616 162.582 53.236C158.675 47.855 157.183 43.644 156.66 40.805C156.163 38.114 157.758 35.729 159.973 34.122"></path></g></g></g><g id="g-root-cp_0e_g-0e_1uqjsxyndqw3l-stroke" data-item-order="-553522" transform="translate(541.9630126953125, 327.98095703125)"><g id="cp_0e_g-0e_1uqjsxyndqw3l-stroke" fill="none" stroke-linecap="round" stroke-linejoin="round" stroke-miterlimit="4" stroke="#2c2c2c" stroke-width="2" stroke-opacity="1"><g><path d="M 117.2571 99.7389C 115.3101 97.0574 111.5581 96.462 108.8767 98.409L 15.0102 166.5639L 36.7795 170.0185C 37.8704 170.1916 38.8951 169.4476 39.0682 168.3567L 40.7496 157.7613L 48.3118 158.9614C 48.8357 159.0445 49.3712 158.9161 49.8004 158.6045L 53.3148 156.0527C 53.744 155.7411 54.0319 155.2717 54.115 154.7478L 55.3151 147.1856L 61.7202 148.202C 62.8111 148.3751 63.8358 147.6311 64.009 146.5402L 65.0254 140.1351L 69.8806 136.6098L 76.2857 137.6262C 77.3766 137.7994 78.4013 137.0553 78.5744 135.9644L 79.5909 129.5593L 87.1531 130.7594C 87.677 130.8425 88.2124 130.7141 88.6417 130.4025L 97.6816 123.8387L 99.6569 124.1521C 100.1808 124.2353 100.7162 124.1069 101.1454 123.7952L 106.2783 120.0684C 106.7075 119.7567 106.9953 119.2873 107.0785 118.7635L 108.7218 108.4078L 116.2841 109.6078C 116.808 109.691 117.3434 109.5626 117.7726 109.2509L 121.9574 106.2124L 117.2571 99.7389ZM 103.0784 85.3182C 101.1314 82.6368 97.3794 82.0414 94.698 83.9883L 12.9694 143.3301L 10.3096 160.091L 101.7485 93.6987C 104.4299 91.7517 105.0253 87.9997 103.0784 85.3182ZM 134.4503 113.2072C 135.6411 112.3426 136.4168 111.1168 136.7387 109.7836L 102.2717 62.7144C 101.001 62.6792 99.7134 63.0455 98.6103 63.8465C 95.9479 65.7796 95.3605 69.5177 97.2806 72.2266L 16.7537 130.6959C 15.466 131.6309 14.6025 133.0391 14.3531 134.6107L 12.9694 143.3301L 94.698 83.9883C 97.3794 82.0414 101.1314 82.6368 103.0784 85.3182C 105.0253 87.9997 104.4299 91.7517 101.7485 93.6987L 10.3096 160.091L 10.05 161.7272C 9.7038 163.909 11.1918 165.9584 13.3737 166.3047L 15.0102 166.5639L 108.8767 98.409C 111.5581 96.462 115.3101 97.0574 117.2571 99.7389L 121.9574 106.2124L 126.028 111.8196C 127.9981 114.5329 131.7689 115.1542 134.4503 113.2072ZM 146.3384 11.8903C 148.5082 10.3148 151.1582 9.5149 153.7181 10.3135C 159.6925 12.1773 171.6646 18.0873 185.2399 36.7838C 198.8152 55.4804 200.7284 68.6939 200.651 74.9519C 200.6178 77.6332 199.0369 79.9054 196.867 81.4809L 161.8335 106.9182C 159.6636 108.4937 157.0137 109.2935 154.4538 108.4949C 153.2567 108.1215 151.8187 107.5855 150.1753 106.8168C 144.7436 104.2762 144.9061 96.9645 149.7585 93.4413C 152.4399 91.4943 153.0353 87.7423 151.0884 85.0609L 129.9368 55.9299C 127.9899 53.2485 124.2379 52.6531 121.5564 54.6C 116.4264 58.3249 109.0179 56.2276 108.0091 49.9686C 107.6106 47.4961 107.5012 45.4506 107.5209 43.8565C 107.5541 41.1752 109.135 38.903 111.3049 37.3275L 146.3384 11.8903ZM 159.9729 34.1216L 160.5897 33.6737C 162.8042 32.0658 165.5654 31.2871 167.9708 32.5923C 170.5077 33.9689 174.05 36.6916 177.9569 42.0723C 181.8637 47.453 183.356 51.6643 183.8796 54.5027C 184.376 57.194 182.7807 59.5784 180.5662 61.1863L 179.9494 61.6342C 177.7348 63.2421 174.9737 64.0208 172.5683 62.7156C 170.0314 61.3391 166.4891 58.6163 162.5822 53.2356C 158.6754 47.8549 157.1831 43.6437 156.6595 40.8053C 156.1631 38.114 157.7584 35.7295 159.9729 34.1216Z"></path></g></g></g><g id="g-root-cp_0d_g-0d_1lvj9s6ndqtqi-fill" data-item-order="-553518" transform="translate(497.625, 243.9892578125)"><g id="cp_0d_g-0d_1lvj9s6ndqtqi-fill-merged" stroke="none" fill="#ababab" fill-opacity="1"><g><path d="M73.981 111.278C70.837 110.232 67.44 111.933 66.394 115.077L29.779 225.147L49.488 215.278C50.476 214.783 50.875 213.581 50.381 212.594L45.577 203.001L51.376 200.098C52.364 199.603 52.763 198.401 52.269 197.414L49.365 191.615L51.259 185.922L60.634 181.227C61.109 180.989 61.469 180.573 61.637 180.07L63.639 174.051C63.806 173.548 63.767 172.998 63.529 172.524L58.834 163.149L65.681 159.72C66.155 159.483 66.515 159.066 66.683 158.563L68.054 154.442C68.221 153.939 68.182 153.389 67.944 152.915L66.415 149.862L69.468 148.334C69.943 148.096 70.303 147.68 70.471 147.176L71.841 143.055C72.009 142.552 71.969 142.003 71.732 141.529L68.303 134.682L74.102 131.778C75.09 131.284 75.49 130.082 74.995 129.094L72.091 123.296L78.938 119.867C79.412 119.63 79.772 119.214 79.94 118.71L81.572 113.803L73.981 111.278 M54.056 107.813C50.912 106.767 47.515 108.468 46.469 111.612L14.589 207.449L22.188 222.623L57.856 115.4C58.902 112.256 57.201 108.859 54.056 107.813 M89.969 103.954L45.47 89.151C42.318 88.163 38.953 89.851 37.919 92.961C36.88 96.083 38.579 99.464 41.718 100.548L10.307 194.976C9.804 196.486 9.923 198.133 10.635 199.556L22.929 224.106C23.918 226.081 26.321 226.88 28.296 225.891L29.779 225.147L66.394 115.077C67.44 111.933 70.837 110.232 73.981 111.278L81.572 113.803L88.145 115.992C91.327 117.051 94.754 115.36 95.8 112.215C97.27 107.796 93.6 105.161 89.969 103.954 M57.856 115.4L22.188 222.623L14.589 207.449L46.469 111.612C47.515 108.468 50.912 106.767 54.056 107.813C57.201 108.859 58.902 112.256 57.856 115.4 M49.9 22.094C50.579 20.054 52.298 18.533 54.406 18.107L93.949 10.119C96.036 9.697 98.191 10.414 99.611 12.002L126.489 42.085C127.922 43.689 128.387 45.937 127.708 47.977L115.068 85.976C114.389 88.017 112.671 89.538 110.563 89.964L95.003 93.107C94.896 93.128 94.806 93.027 94.84 92.924C95.886 89.78 94.185 86.383 91.041 85.337L56.882 73.974C53.737 72.928 50.34 74.629 49.294 77.773C49.26 77.876 49.128 77.903 49.055 77.822L38.479 65.985C37.046 64.382 36.581 62.134 37.26 60.093L49.9 22.094 M95.493 24.299L102.176 31.705C103.777 33.478 104.3 35.976 103.546 38.243C102.389 41.72 98.633 43.6 95.157 42.444L79.28 37.163C75.804 36.006 73.923 32.25 75.079 28.774C75.834 26.507 77.748 24.82 80.093 24.359L89.88 22.431C91.949 22.024 94.08 22.733 95.493 24.299"></path></g></g></g><g id="g-root-cp_0d_g-0d_1lvj9s6ndqtqi-stroke" data-item-order="-553518" transform="translate(497.625, 243.9892578125)"><g id="cp_0d_g-0d_1lvj9s6ndqtqi-stroke" fill="none" stroke-linecap="round" stroke-linejoin="round" stroke-miterlimit="4" stroke="#2c2c2c" stroke-width="2" stroke-opacity="1"><g><path d="M 73.9812 111.2779C 70.8369 110.2319 67.4401 111.933 66.3941 115.0773L 29.7795 225.1471L 49.488 215.2777C 50.4757 214.7831 50.8754 213.5815 50.3808 212.5938L 45.5772 203.0014L 51.376 200.0976C 52.3637 199.603 52.7634 198.4014 52.2688 197.4137L 49.3649 191.6149L 51.2588 185.9216L 60.6342 181.2267C 61.1085 180.9892 61.469 180.573 61.6365 180.0697L 63.6386 174.0508C 63.8061 173.5475 63.7667 172.9983 63.5292 172.524L 58.8342 163.1486L 65.6806 159.7201C 66.1549 159.4826 66.5154 159.0664 66.6829 158.5631L 68.0537 154.442C 68.2212 153.9387 68.1818 153.3895 67.9443 152.9152L 66.4155 149.8623L 69.4684 148.3336C 69.9426 148.0961 70.3032 147.6799 70.4706 147.1765L 71.8415 143.0554C 72.0089 142.5521 71.9695 142.0029 71.732 141.5286L 68.3035 134.6822L 74.1024 131.7784C 75.09 131.2838 75.4897 130.0822 74.9951 129.0945L 72.0913 123.2957L 78.9377 119.8672C 79.4119 119.6297 79.7725 119.2135 79.9399 118.7102L 81.5723 113.803L 73.9812 111.2779ZM 54.0565 107.8127C 50.9122 106.7668 47.5153 108.4678 46.4694 111.6121L 14.5894 207.4488L 22.1882 222.623L 57.8559 115.3999C 58.9019 112.2556 57.2008 108.8587 54.0565 107.8127ZM 89.9693 103.9536L 45.4704 89.1511C 42.3181 88.1626 38.9532 89.8508 37.9186 92.9612C 36.88 96.0832 38.5795 99.4641 41.718 100.548L 10.3067 194.9756C 9.8045 196.4856 9.9226 198.1332 10.6351 199.5561L 22.9289 224.1057C 23.9181 226.0809 26.3212 226.8804 28.2965 225.8912L 29.7795 225.1471L 66.3941 115.0773C 67.4401 111.933 70.8369 110.2319 73.9812 111.2779L 81.5723 113.803L 88.1452 115.9924C 91.3269 117.0507 94.7541 115.3598 95.8 112.2155C 97.2703 107.7955 93.6004 105.1615 89.9693 103.9536ZM 57.8559 115.3999L 22.1882 222.623L 14.5894 207.4488L 46.4694 111.6121C 47.5153 108.4678 50.9122 106.7668 54.0565 107.8127C 57.2008 108.8587 58.9019 112.2556 57.8559 115.3999ZM 49.9004 22.0942C 50.5792 20.0538 52.2979 18.5326 54.4057 18.1068L 93.9485 10.1189C 96.0365 9.6972 98.1915 10.414 99.6108 12.0025L 126.4894 42.0854C 127.9221 43.6889 128.3871 45.9365 127.7084 47.9769L 115.0679 85.9763C 114.3892 88.0167 112.6705 89.5379 110.5627 89.9637L 95.0025 93.1069C 94.8961 93.1284 94.8062 93.0268 94.8405 92.9238C 95.8864 89.7795 94.1854 86.3827 91.0411 85.3367L 56.8815 73.9735C 53.7372 72.9276 50.3403 74.6286 49.2944 77.7729C 49.2602 77.8757 49.1276 77.9032 49.0554 77.8224L 38.479 65.9851C 37.0463 64.3815 36.5812 62.1339 37.26 60.0935L 49.9004 22.0942ZM 95.4935 24.2989L 102.1761 31.7046C 103.7767 33.4784 104.2999 35.9759 103.5457 38.243C 102.3892 41.7196 98.6334 43.6004 95.1567 42.444L 79.2803 37.1627C 75.8037 36.0062 73.9229 32.2503 75.0794 28.7737C 75.8335 26.5066 77.7484 24.8202 80.0927 24.3586L 89.8798 22.4315C 91.9492 22.024 94.0805 22.733 95.4935 24.2989Z"></path></g></g></g><g id="g-root-cp_0c_g-0c_1lvj9s6ndqtqj-fill" data-item-order="-553514" transform="translate(374.983154296875, 240.98486328125)"><g id="cp_0c_g-0c_1lvj9s6ndqtqj-fill-merged" stroke="none" fill="#ababab" fill-opacity="1"><g><path d="M81.668 108.001C78.511 109.009 76.77 112.385 77.778 115.542L113.07 226.041L123.176 206.453C123.682 205.472 123.297 204.265 122.315 203.759L112.781 198.841L116.291 192.036C116.534 191.565 116.58 191.016 116.419 190.511L115.098 186.373C114.936 185.868 114.581 185.448 114.109 185.204L107.305 181.694L112.111 172.376C112.355 171.904 112.401 171.356 112.239 170.85L110.309 164.808C110.148 164.303 109.792 163.882 109.321 163.639L100.002 158.832L102.976 153.068C103.482 152.087 103.097 150.88 102.115 150.374L96.351 147.401L99.862 140.596C100.105 140.125 100.151 139.576 99.989 139.071L98.668 134.933C98.507 134.428 98.151 134.008 97.68 133.765L90.875 130.254L93.848 124.491C94.355 123.509 93.969 122.303 92.988 121.796L87.224 118.823L90.734 112.018C90.977 111.547 91.023 110.998 90.862 110.493L89.289 105.567L81.668 108.001 M63.529 116.944C60.373 117.952 58.631 121.328 59.639 124.485L90.368 220.695L105.45 228.475L71.07 120.834C70.062 117.677 66.686 115.936 63.529 116.944 M77.778 115.542C76.77 112.385 78.511 109.009 81.668 108.001L89.289 105.567L95.888 103.457C99.082 102.437 100.854 99.051 99.846 95.895C98.838 92.738 95.431 91.006 92.237 92.026L44.998 107.161C42.25 108.421 40.806 111.536 41.738 114.454C42.739 117.588 46.105 119.318 49.279 118.344L79.557 213.141C80.041 214.657 81.107 215.918 82.521 216.648L90.368 220.695L59.639 124.485C58.631 121.328 60.373 117.952 63.529 116.944C66.686 115.936 70.062 117.677 71.07 120.834L105.45 228.475L106.922 229.235C108.885 230.247 111.298 229.477 112.311 227.514L113.07 226.041L77.778 115.542 M40.152 89.767C39.144 86.61 40.886 83.234 44.042 82.226L78.336 71.273C81.492 70.264 84.868 72.006 85.877 75.163C86.757 77.92 90.295 78.544 91.755 76.046C97.817 65.679 99.623 52.879 95.682 40.538C88.309 17.455 63.621 4.72 40.538 12.092C17.455 19.464 4.719 44.153 12.092 67.236C16.033 79.577 24.925 88.96 35.874 93.894C38.512 95.083 41.033 92.524 40.152 89.767 M49.628 40.552C54.889 38.871 57.792 33.244 56.111 27.983C54.431 22.722 48.804 19.82 43.543 21.5C38.282 23.18 35.379 28.807 37.059 34.068C38.74 39.329 44.367 42.232 49.628 40.552"></path></g></g></g><g id="g-root-cp_0c_g-0c_1lvj9s6ndqtqj-stroke" data-item-order="-553514" transform="translate(374.983154296875, 240.98486328125)"><g id="cp_0c_g-0c_1lvj9s6ndqtqj-stroke" fill="none" stroke-linecap="round" stroke-linejoin="round" stroke-miterlimit="4" stroke="#2c2c2c" stroke-width="2" stroke-opacity="1"><g><path d="M 81.667704 108.000504C 78.511104 109.008704 76.769504 112.384904 77.777704 115.541604L 113.070304 226.040804L 113.070704 226.042204L 123.175704 206.453404C 123.682004 205.471704 123.296804 204.265404 122.315104 203.759004L 112.781004 198.840804L 116.291204 192.036004C 116.534404 191.564604 116.580304 191.015904 116.419004 190.510604L 115.097604 186.373404C 114.936204 185.868104 114.580704 185.447604 114.109304 185.204404L 107.304504 181.694204L 112.111404 172.375704C 112.354604 171.904304 112.400504 171.355604 112.239104 170.850304L 110.309204 164.807904C 110.147904 164.302604 109.792304 163.882104 109.320904 163.638904L 100.002404 158.832004L 102.975604 153.068404C 103.482004 152.086704 103.096704 150.880404 102.115104 150.374004L 96.351404 147.400904L 99.861704 140.596104C 100.104904 140.124704 100.150804 139.575904 99.989404 139.070704L 98.668004 134.933404C 98.506604 134.428104 98.151204 134.007704 97.679704 133.764504L 90.874904 130.254204L 93.848104 124.490604C 94.354504 123.508904 93.969204 122.302704 92.987504 121.796304L 87.223904 118.823104L 90.734204 112.018304C 90.977404 111.546904 91.023304 110.998204 90.861904 110.492904L 89.288504 105.566504L 81.667704 108.000504ZM 63.529104 116.943704C 60.372504 117.951904 58.630904 121.328204 59.639104 124.484804L 90.368004 220.695404L 90.368304 220.696604L 105.450004 228.475404L 71.070204 120.833804C 70.062004 117.677204 66.685704 115.935504 63.529104 116.943704ZM 77.777704 115.541604C 76.769504 112.384904 78.511104 109.008704 81.667704 108.000504L 89.288504 105.566504L 95.888204 103.457404C 99.082304 102.437304 100.854304 99.051304 99.846104 95.894704C 98.837904 92.738104 95.431304 91.006204 92.237104 92.026304L 44.997904 107.161404C 42.250404 108.421004 40.806004 111.535504 41.738104 114.453904C 42.739104 117.588104 46.104704 119.317804 49.279004 118.343604L 79.556504 213.140904C 80.040604 214.656704 81.107104 215.918204 82.521304 216.647704L 90.368004 220.695404L 59.639104 124.484804C 58.630904 121.328204 60.372504 117.951904 63.529104 116.943704C 66.685704 115.935504 70.062004 117.677204 71.070204 120.833804L 105.450004 228.475404L 106.921904 229.234704C 108.885204 230.247404 111.297804 229.476904 112.310604 227.513604L 113.070304 226.040804L 77.777704 115.541604ZM 40.152104 89.766704C 39.143904 86.610104 40.885504 83.233804 44.042104 82.225604L 78.335504 71.272604C 81.492104 70.264404 84.868304 72.006004 85.876504 75.162604C 86.757004 77.919504 90.294604 78.544204 91.755404 76.045904C 97.817304 65.678604 99.623304 52.878704 95.681804 40.537904C 88.309304 17.455204 63.620504 4.719504 40.537804 12.091904C 17.455104 19.464404 4.719404 44.153204 12.091804 67.235904C 16.033404 79.576704 24.924504 88.960004 35.873604 93.894104C 38.512104 95.083104 41.032604 92.523504 40.152104 89.766704ZM 49.627704 40.551604C 54.888804 38.871304 57.791504 33.244204 56.111204 27.983204C 54.430804 22.722204 48.803804 19.819504 43.542704 21.499804C 38.281704 23.180104 35.379004 28.807204 37.059304 34.068204C 38.739604 39.329304 44.366704 42.232004 49.627704 40.551604ZM 92.079604 92.076604L 92.237104 92.026304"></path></g></g></g><g id="g-root-cp_0b_g-0b_1lvj9s6ndqtqk-fill" data-item-order="-553510" transform="translate(259.2819519042969, 339.27392578125)"><g id="cp_0b_g-0b_1lvj9s6ndqtqk-fill-merged" stroke="none" fill="#ababab" fill-opacity="1"><g><path d="M101.829 72.022C99.873 74.697 100.456 78.451 103.131 80.407L196.764 148.881L194.035 131.293C193.865 130.201 192.843 129.454 191.752 129.623L185.343 130.618L184.169 123.051C184.087 122.527 183.801 122.057 183.373 121.744L179.867 119.18C179.439 118.867 178.904 118.737 178.38 118.818L170.814 119.992L165.971 116.451L164.796 108.884C164.715 108.36 164.429 107.89 164.001 107.577L160.495 105.013C160.067 104.7 159.532 104.57 159.007 104.651L151.441 105.825L149.796 95.224C149.627 94.133 148.604 93.385 147.513 93.554L136.912 95.2L135.917 88.791C135.748 87.7 134.726 86.952 133.634 87.122L131.418 87.465L130.461 81.297C130.379 80.773 130.093 80.302 129.665 79.989L124.545 76.245C124.117 75.932 123.582 75.801 123.058 75.883L112.696 77.491L111.522 69.925C111.441 69.4 111.154 68.93 110.726 68.617L106.552 65.564L101.829 72.022 M92.446 89.936C90.49 92.611 91.072 96.365 93.747 98.321L175.273 157.941L192.043 155.339L100.831 88.635C98.156 86.679 94.402 87.262 92.446 89.936 M100.939 52.911L71.542 93.109 H71.636C70.257 95.707 70.944 98.99 73.374 100.767C76.03 102.71 79.769 102.123 81.759 99.466L162.086 158.209C163.371 159.149 164.976 159.539 166.548 159.295L175.273 157.941L93.747 98.321C91.072 96.365 90.49 92.611 92.446 89.936C94.402 87.262 98.156 86.679 100.831 88.635L192.043 155.339L193.679 155.084C195.862 154.746 197.357 152.701 197.018 150.518L196.764 148.881L103.131 80.407C100.456 78.451 99.873 74.697 101.829 72.022L106.552 65.564L110.642 59.972C112.621 57.265 112.057 53.485 109.383 51.529C106.708 49.573 102.935 50.181 100.956 52.888 M32.51 95.66C23.594 89.14 21.652 76.627 28.172 67.711C29.15 66.373 28.859 64.496 27.521 63.518L21.064 58.796C9.027 49.993 6.406 33.1 15.208 21.064C24.01 9.027 40.903 6.405 52.94 15.208L59.397 19.93C60.735 20.908 62.612 20.617 63.59 19.279C70.11 10.364 82.624 8.422 91.54 14.942C100.455 21.462 102.398 33.975 95.877 42.891L60.459 91.323C53.939 100.239 41.426 102.181 32.51 95.66 M39.677 26.569C44.135 29.829 45.106 36.086 41.846 40.544C38.586 45.002 32.329 45.973 27.871 42.713C23.413 39.452 22.442 33.196 25.702 28.738C28.962 24.28 35.219 23.309 39.677 26.569"></path></g></g></g><g id="g-root-cp_0b_g-0b_1lvj9s6ndqtqk-stroke" data-item-order="-553510" transform="translate(259.2819519042969, 339.27392578125)"><g id="cp_0b_g-0b_1lvj9s6ndqtqk-stroke" fill="none" stroke-linecap="round" stroke-linejoin="round" stroke-miterlimit="4" stroke="#2c2c2c" stroke-width="2" stroke-opacity="1"><g><path d="M 101.829431 72.0217C 99.873331 74.6965 100.456031 78.4505 103.130731 80.4066L 196.764331 148.881L 194.034631 131.2926C 193.865231 130.2011 192.843031 129.4536 191.751531 129.623L 185.343031 130.6176L 184.168731 123.0513C 184.087431 122.5272 183.801131 122.0568 183.373031 121.7437L 179.867231 119.1799C 179.439131 118.8668 178.904031 118.7366 178.379931 118.818L 170.813631 119.9922L 165.970531 116.4505L 164.796231 108.8842C 164.714931 108.36 164.428631 107.8897 164.000531 107.5766L 160.494831 105.0128C 160.066631 104.6997 159.531631 104.5695 159.007431 104.6508L 151.441231 105.8251L 149.795931 95.2241C 149.626531 94.1326 148.604331 93.3851 147.512831 93.5545L 136.911831 95.1998L 135.917231 88.7912C 135.747831 87.6997 134.725631 86.9522 133.634131 87.1216L 131.418031 87.4655L 130.460631 81.2968C 130.379331 80.7726 130.093031 80.3022 129.664931 79.9891L 124.544831 76.2448C 124.116631 75.9317 123.581631 75.8015 123.057531 75.8828L 112.696231 77.4909L 111.521931 69.9246C 111.440631 69.4004 111.154431 68.9301 110.726231 68.6169L 106.551831 65.5642L 101.829431 72.0217ZM 92.445731 89.9364C 90.489631 92.6111 91.072231 96.3652 93.747031 98.3213L 175.272831 157.9413L 192.042631 155.3386L 100.830631 88.635C 98.155831 86.679 94.401731 87.2616 92.445731 89.9364ZM 100.955531 52.888L 100.938531 52.9111L 71.541931 93.1088L 71.635731 93.092C 70.256631 95.7074 70.944231 98.9901 73.374431 100.7673C 76.030231 102.7095 79.768531 102.1235 81.759031 99.4658L 162.086231 158.2093C 163.370631 159.1486 164.975731 159.5393 166.548131 159.2952L 175.272831 157.9413L 93.747031 98.3213C 91.072231 96.3652 90.489631 92.6111 92.445731 89.9364C 94.401731 87.2616 98.155831 86.679 100.830631 88.635L 192.042631 155.3386L 193.679131 155.0844C 195.862131 154.7456 197.357131 152.7013 197.018331 150.5183L 196.764331 148.881L 103.130731 80.4066C 100.456031 78.4505 99.873331 74.6965 101.829431 72.0217L 106.551831 65.5642L 110.641731 59.9715C 112.621131 57.265 112.057331 53.4851 109.382531 51.5291C 106.707731 49.573 102.934831 50.1814 100.955531 52.888ZM 32.509831 95.6604C 23.593831 89.1401 21.651731 76.6266 28.172031 67.7107C 29.150031 66.3733 28.858731 64.4963 27.521331 63.5182L 21.063831 58.7959C 9.027331 49.9935 6.405531 33.1003 15.207831 21.0638C 24.010131 9.0273 40.903431 6.4055 52.939931 15.2078L 59.397431 19.9302C 60.734731 20.9082 62.611831 20.6169 63.589831 19.2795C 70.110031 10.3636 82.623531 8.4215 91.539531 14.9417C 100.455431 21.462 102.397531 33.9755 95.877331 42.8914L 60.459431 91.3226C 53.939231 100.2385 41.425731 102.1806 32.509831 95.6604ZM 39.676731 26.5689C 44.134731 29.829 45.105731 36.0857 41.845631 40.5437C 38.585531 45.0017 32.328731 45.9727 27.870831 42.7126C 23.412831 39.4525 22.441831 33.1957 25.701931 28.7378C 28.962031 24.2798 35.218731 23.3088 39.676731 26.5689Z"></path></g></g></g><g id="g-root-cp_0a_g-0a_1hfprnqndquit-fill" data-item-order="-553506" transform="translate(208.32803344726562, 469.92578125)"><g id="cp_0a_g-0a_1hfprnqndquit-fill-merged" stroke="none" fill="#ababab" fill-opacity="1"><g><path d="M120.702 62.106C117.388 62.106 114.702 64.792 114.702 68.106C114.702 71.42 117.388 74.106 120.702 74.106 H221.7L233.702 62.106L234.873 60.933C236.435 59.371 236.435 56.839 234.873 55.276L233.703 54.106L218.288 38.692C217.913 38.317 217.405 38.106 216.874 38.106 H210.531C210.001 38.106 209.492 38.317 209.117 38.692L201.703 46.106L196.288 40.692C195.913 40.317 195.405 40.106 194.874 40.106 H190.531C190.001 40.106 189.492 40.317 189.117 40.692L183.703 46.106L179.117 41.521C178.336 40.739 177.069 40.739 176.288 41.521L171.703 46.106L164.117 38.521C163.336 37.739 162.069 37.739 161.288 38.521L153.703 46.106L149.117 41.521C148.336 40.739 147.069 40.739 146.288 41.521L141.703 46.106L136.288 40.692C135.913 40.317 135.405 40.106 134.874 40.106 H130.531C130.001 40.106 129.492 40.317 129.117 40.692L123.703 46.106L118.288 40.692C117.913 40.317 117.405 40.106 116.874 40.106 H111.703 V48.106C111.703 51.42 114.389 54.106 117.703 54.106C114.389 54.106 111.703 51.42 111.703 48.106 V33.176C111.701 29.823 109.015 27.105 105.701 27.105C102.388 27.105 99.701 29.823 99.701 33.176 V82.109C99.742 85.427 102.413 88.105 105.701 88.105C108.992 88.105 111.663 85.425 111.701 82.105 H211.216C212.807 82.105 214.334 81.473 215.459 80.347L221.7 74.106 H120.702C117.388 74.106 114.702 71.42 114.702 68.106C114.702 64.792 117.388 62.106 120.702 62.106 M63.749 103.841C60.625 106.965 55.56 106.965 52.435 103.841L12.343 63.749C9.219 60.625 9.219 55.56 12.343 52.435L52.435 12.343C55.56 9.219 60.625 9.219 63.749 12.343L85.449 34.043C87.699 36.294 88.964 39.341 88.964 42.524C88.964 51.677 88.964 64.085 88.964 73.659C88.964 76.842 87.699 79.891 85.449 82.141L63.749 103.841 M43.306 48.489C48.829 48.489 53.306 52.966 53.306 58.489C53.306 64.012 48.829 68.489 43.306 68.489C37.783 68.489 33.306 64.012 33.306 58.489C33.306 52.966 37.783 48.489 43.306 48.489"></path></g></g></g><g id="g-root-cp_0a_g-0a_1hfprnqndquit-stroke" data-item-order="-553506" transform="translate(208.32803344726562, 469.92578125)"><g id="cp_0a_g-0a_1hfprnqndquit-stroke" fill="none" stroke-linecap="round" stroke-linejoin="round" stroke-miterlimit="4" stroke="#2c2c2c" stroke-width="2" stroke-opacity="1"><g><path d="M 111.702569 48.1063C 111.702569 51.42 114.388869 54.1063 117.702569 54.1063L 233.702569 54.1063L 218.288369 38.6921C 217.913269 38.317 217.404569 38.1063 216.874169 38.1063L 210.531069 38.1063C 210.000569 38.1063 209.491869 38.317 209.116869 38.6921L 201.702569 46.1063L 196.288369 40.6921C 195.913269 40.317 195.404569 40.1063 194.874169 40.1063L 190.531069 40.1063C 190.000569 40.1063 189.491869 40.317 189.116869 40.6921L 183.702569 46.1063L 179.116869 41.5205C 178.335769 40.7395 177.069469 40.7395 176.288369 41.5205L 171.702569 46.1063L 164.116869 38.5205C 163.335769 37.7395 162.069469 37.7395 161.288369 38.5205L 153.702569 46.1063L 149.116869 41.5205C 148.335769 40.7395 147.069469 40.7395 146.288369 41.5205L 141.702569 46.1063L 136.288369 40.6921C 135.913269 40.317 135.404569 40.1063 134.874169 40.1063L 130.531069 40.1063C 130.000569 40.1063 129.491869 40.317 129.116869 40.6921L 123.702569 46.1063L 118.288369 40.6921C 117.913269 40.317 117.404569 40.1063 116.874169 40.1063L 111.702569 40.1063L 111.702569 48.1063ZM 114.701669 68.106C 114.701669 71.4197 117.387969 74.106 120.701669 74.106L 221.700169 74.106L 221.701669 74.106L 233.701669 62.106L 233.700169 62.106L 120.701669 62.106C 117.387969 62.106 114.701669 64.7923 114.701669 68.106ZM 99.701469 33.1761L 99.701969 82.1087C 99.741769 85.4271 102.412569 88.1047 105.701469 88.1047C 108.991669 88.1047 111.663269 85.425 111.701069 82.1048L 211.216169 82.1048C 212.807469 82.1048 214.333569 81.4726 215.458769 80.3474L 221.700169 74.106L 120.701669 74.106C 117.387969 74.106 114.701669 71.4197 114.701669 68.106C 114.701669 64.7923 117.387969 62.106 120.701669 62.106L 233.700169 62.106L 234.872869 60.9332C 236.434969 59.3711 236.434969 56.8385 234.872869 55.2764L 233.702569 54.1063L 117.702569 54.1063C 114.388869 54.1063 111.702569 51.42 111.702569 48.1063L 111.702769 46.1048L 111.701469 46.1035L 111.701469 33.1761C 111.701469 29.823 109.015169 27.1048 105.701469 27.1048C 102.387769 27.1048 99.701469 29.823 99.701469 33.1761ZM 63.749069 103.8413C 60.624869 106.9655 55.559569 106.9655 52.435369 103.8413L 12.343069 63.7491C 9.218969 60.6249 9.218969 55.5596 12.343069 52.4354L 52.435369 12.3431C 55.559569 9.219 60.624869 9.219 63.749069 12.3431L 85.449069 34.0431C 87.699469 36.2936 88.963769 39.3413 88.963769 42.5239C 88.963769 51.6767 88.963769 64.085 88.963769 73.6591C 88.963769 76.8417 87.699469 79.8909 85.449069 82.1413L 63.749069 103.8413ZM 43.306169 48.4888C 48.829069 48.4888 53.306169 52.966 53.306169 58.4888C 53.306169 64.0117 48.829069 68.4888 43.306169 68.4888C 37.783369 68.4888 33.306169 64.0117 33.306169 58.4888C 33.306169 52.966 37.783369 48.4888 43.306169 48.4888Z"></path></g></g></g><g id="g-root-cp_6_g-6_1hfprnqndquiu-fill" data-item-order="-553502" transform="translate(689.7607421875, 461.0009765625)"><g id="cp_6_g-6_1hfprnqndquiu-fill-merged" stroke="none" fill="#fb6762" fill-opacity="1"><g><path d="M66.865 11.566C63.189 9.478 58.687 9.478 55.012 11.566L15.512 34C12.844 35.515 10.901 37.965 10 40.806L10.411 93.699C11.428 96.066 13.197 98.085 15.512 99.399L55.012 121.834C58.687 123.921 63.189 123.921 66.865 121.834L106.365 99.399C110.119 97.267 112.438 93.282 112.438 88.965 V44.435C112.438 40.117 110.119 36.132 106.365 34L66.865 11.566 M27.635 39.795L58.596 22.049C60.444 20.99 62.715 20.99 64.563 22.049L99.563 42.111C101.429 43.18 102.58 45.166 102.58 47.316 V87.363C102.58 89.513 101.429 91.499 99.563 92.568L64.563 112.629C62.715 113.688 60.444 113.688 58.596 112.629L27.636 94.884C25.95 93.917 26.636 91.341 28.58 91.341C31.893 91.341 34.58 88.655 34.58 85.341 V49.341C34.58 46.028 31.893 43.341 28.58 43.341C26.634 43.341 25.947 40.763 27.635 39.795"></path></g></g></g><g id="g-root-cp_6_g-6_1hfprnqndquiu-stroke" data-item-order="-553502" transform="translate(689.7607421875, 461.0009765625)"><g id="cp_6_g-6_1hfprnqndquiu-stroke" fill="none" stroke-linecap="round" stroke-linejoin="round" stroke-miterlimit="4" stroke="#2c2c2c" stroke-width="2" stroke-opacity="1"><g><path d="M 66.8648 11.5655C 63.1895 9.4782 58.6872 9.4782 55.012 11.5655L 15.512 34C 12.8445 35.515 10.9014 37.9652 10 40.8056L 10.4115 93.6987C 11.428 96.0656 13.1973 98.0845 15.512 99.3992L 55.012 121.8336C 58.6872 123.921 63.1895 123.921 66.8648 121.8336L 106.3648 99.3992C 110.119 97.2669 112.4384 93.2822 112.4384 88.9647L 112.4384 44.4345C 112.4384 40.117 110.119 36.1323 106.3648 34L 66.8648 11.5655ZM 27.6354 39.7952L 58.5959 22.0495C 60.444 20.9902 62.7152 20.9902 64.5633 22.0495L 99.5633 42.1105C 101.4289 43.1798 102.5796 45.1657 102.5796 47.316L 102.5796 87.3627C 102.5796 89.513 101.4289 91.4989 99.5633 92.5682L 64.5633 112.6292C 62.7152 113.6885 60.444 113.6885 58.5959 112.6292L 27.6363 94.884C 25.9497 93.9173 26.6356 91.3412 28.5796 91.3412C 31.8933 91.3412 34.5796 88.6549 34.5796 85.3412L 34.5796 49.3412C 34.5796 46.0275 31.8933 43.3412 28.5796 43.3412C 26.6339 43.3412 25.9473 40.7628 27.6354 39.7952Z"></path></g></g></g><g id="g-root-cp_5_g-5_1hfprnqndquiv-fill" data-item-order="-553498" transform="translate(630.2744140625, 317.0908203125)"><g id="cp_5_g-5_1hfprnqndquiv-fill-merged" stroke="none" fill="#f366bb" fill-opacity="1"><g><path d="M62.621 10.113C60.256 9.69 57.929 10.491 55.986 11.903L14.093 42.32C12.149 43.731 10.667 45.696 10.337 48.075C9.701 52.652 9.52 61.452 13.96 73.602L48.427 120.671C58.306 128.249 66.464 130.708 70.912 131.503C73.277 131.925 75.604 131.124 77.547 129.713L119.44 99.295C121.384 97.884 122.866 95.92 123.196 93.54C124.214 86.208 124.067 68.029 105.608 42.606C87.149 17.183 69.908 11.415 62.621 10.113 M58.027 22.778C60.197 21.202 62.847 20.403 65.407 21.201C71.381 23.065 83.353 28.975 96.928 47.672C110.504 66.368 112.417 79.582 112.34 85.84C112.307 88.521 110.726 90.793 108.556 92.368L73.522 117.806C71.352 119.381 68.702 120.181 66.143 119.383C64.945 119.009 63.507 118.473 61.864 117.704C56.432 115.164 56.595 107.852 61.447 104.329C64.129 102.382 64.724 98.63 62.777 95.949L41.625 66.817C39.679 64.136 35.926 63.541 33.245 65.488C28.115 69.213 20.707 67.115 19.698 60.856C19.299 58.384 19.19 56.338 19.209 54.744C19.243 52.063 20.824 49.791 22.993 48.215L58.027 22.778"></path></g></g></g><g id="g-root-cp_5_g-5_1hfprnqndquiv-stroke" data-item-order="-553498" transform="translate(630.2744140625, 317.0908203125)"><g id="cp_5_g-5_1hfprnqndquiv-stroke" fill="none" stroke-linecap="round" stroke-linejoin="round" stroke-miterlimit="4" stroke="#2c2c2c" stroke-width="2" stroke-opacity="1"><g><path d="M 62.6207 10.1128C 60.2563 9.6903 57.9292 10.4914 55.9856 11.9025L 14.0927 42.3203C 12.1492 43.7315 10.6671 45.6963 10.3368 48.0753C 9.7015 52.6516 9.52 61.4524 13.9603 73.6021L 48.4274 120.6712C 58.3065 128.2491 66.4637 130.7081 70.9123 131.503C 73.2767 131.9254 75.6037 131.1244 77.5473 129.7132L 119.4402 99.2954C 121.3838 97.8842 122.8659 95.9195 123.1962 93.5405C 124.2142 86.2077 124.0668 68.0286 105.6077 42.6058C 87.1487 17.183 69.9083 11.4149 62.6207 10.1128ZM 58.027 22.7779C 60.1969 21.2024 62.8468 20.4025 65.4067 21.2011C 71.3812 23.0649 83.3533 28.9749 96.9285 47.6715C 110.5038 66.368 112.4171 79.5816 112.3397 85.8395C 112.3065 88.5209 110.7255 90.793 108.5557 92.3685L 73.5222 117.8058C 71.3523 119.3813 68.7023 120.1811 66.1425 119.3826C 64.9453 119.0091 63.5074 118.4732 61.8639 117.7045C 56.4322 115.1638 56.5948 107.8521 61.4471 104.3289C 64.1285 102.382 64.724 98.6299 62.777 95.9485L 41.6255 66.8175C 39.6785 64.1361 35.9265 63.5407 33.2451 65.4876C 28.115 69.2125 20.7066 67.1152 19.6978 60.8562C 19.2993 58.3837 19.1898 56.3383 19.2095 54.7441C 19.2427 52.0628 20.8236 49.7907 22.9935 48.2152L 58.027 22.7779Z"></path></g></g></g><g id="g-root-cp_4_g-4_1czw9jandqvb4-fill" data-item-order="-553494" transform="translate(513.587890625, 233.4853515625)"><g id="cp_4_g-4_1czw9jandqvb4-fill-merged" stroke="none" fill="#8769fd" fill-opacity="1"><g><path d="M89.094 14.007C86.255 10.828 81.942 9.393 77.764 10.238L33.698 19.153C29.484 20.005 26.048 23.047 24.691 27.127L10.614 69.444C9.257 73.524 10.186 78.018 13.05 81.225L29.507 99.654L74.177 114.512L98.392 109.614C102.606 108.761 106.042 105.72 107.399 101.64L121.476 59.322C122.833 55.243 121.904 50.749 119.04 47.542L89.094 14.007 M38.442 28.61L77.985 20.622C80.073 20.2 82.228 20.917 83.647 22.505L110.526 52.588C111.958 54.192 112.424 56.439 111.745 58.48L99.104 96.479C98.425 98.52 96.707 100.041 94.599 100.467L79.039 103.61C78.933 103.631 78.843 103.53 78.877 103.427C79.923 100.283 78.222 96.886 75.077 95.84L40.918 84.477C37.773 83.431 34.377 85.132 33.331 88.276C33.297 88.379 33.164 88.406 33.092 88.325L22.515 76.488C21.083 74.884 20.618 72.637 21.296 70.596L33.937 32.597C34.616 30.557 36.334 29.036 38.442 28.61"></path></g></g></g><g id="g-root-cp_4_g-4_1czw9jandqvb4-stroke" data-item-order="-553494" transform="translate(513.587890625, 233.4853515625)"><g id="cp_4_g-4_1czw9jandqvb4-stroke" fill="none" stroke-linecap="round" stroke-linejoin="round" stroke-miterlimit="4" stroke="#2c2c2c" stroke-width="2" stroke-opacity="1"><g><path d="M 89.0942 14.0074C 86.255 10.828 81.9423 9.3934 77.7644 10.2385L 33.6979 19.1526C 29.4838 20.005 26.0477 23.0469 24.6906 27.1266L 10.6137 69.4443C 9.2566 73.524 10.1858 78.018 13.0496 81.2249L 29.5067 99.654L 74.1766 114.5125L 98.3919 109.614C 102.6061 108.7615 106.0421 105.7197 107.3992 101.64L 121.4762 59.3223C 122.8333 55.2426 121.904 50.7486 119.0403 47.5416L 89.0942 14.0074ZM 38.442 28.6098L 77.9848 20.6219C 80.0728 20.2001 82.2279 20.917 83.6471 22.5054L 110.5257 52.5884C 111.9584 54.1919 112.4235 56.4395 111.7448 58.4799L 99.1043 96.4793C 98.4255 98.5197 96.7068 100.0408 94.5991 100.4666L 79.0389 103.6099C 78.9325 103.6314 78.8426 103.5298 78.8768 103.4268C 79.9228 100.2825 78.2217 96.8856 75.0774 95.8397L 40.9178 84.4765C 37.7735 83.4306 34.3766 85.1316 33.3307 88.2759C 33.2965 88.3787 33.164 88.4061 33.0918 88.3253L 22.5153 76.488C 21.0826 74.8845 20.6176 72.6369 21.2963 70.5965L 33.9368 32.5971C 34.6155 30.5567 36.3342 29.0356 38.442 28.6098Z"></path></g></g></g><g id="g-root-cp_3_g-3_1czw9jandqvb5-fill" data-item-order="-553490" transform="translate(364.85546875, 230.8564453125)"><g id="cp_3_g-3_1czw9jandqvb5-fill-merged" stroke="none" fill="#1ac3fb" fill-opacity="1"><g><path d="M102.208 102.205C116.019 88.369 121.813 67.492 115.454 47.585C106.381 19.176 75.994 3.501 47.585 12.575C19.176 21.648 3.501 52.035 12.575 80.444C18.943 100.384 35.811 114.051 55.126 117.289L102.208 102.205 M50.28 99.895C49.272 96.738 51.014 93.362 54.17 92.354L88.464 81.401C91.62 80.393 94.996 82.134 96.005 85.291C96.885 88.048 100.423 88.672 101.884 86.174C107.946 75.807 109.752 63.007 105.81 50.666C98.438 27.583 73.749 14.847 50.666 22.22C27.583 29.592 14.848 54.281 22.22 77.364C26.162 89.705 35.053 99.088 46.002 104.022C48.64 105.211 51.161 102.652 50.28 99.895"></path></g></g></g><g id="g-root-cp_3_g-3_1czw9jandqvb5-stroke" data-item-order="-553490" transform="translate(364.85546875, 230.8564453125)"><g id="cp_3_g-3_1czw9jandqvb5-stroke" fill="none" stroke-linecap="round" stroke-linejoin="round" stroke-miterlimit="4" stroke="#2c2c2c" stroke-width="2" stroke-opacity="1"><g><path d="M 102.2078 102.2047C 116.0193 88.3693 121.8126 67.4919 115.4545 47.585C 106.3807 19.1755 75.9945 3.5008 47.585 12.5745C 19.1755 21.6483 3.5008 52.0345 12.5745 80.444C 18.9433 100.3842 35.8114 114.0507 55.1261 117.2895L 102.2078 102.2047ZM 50.2803 99.8947C 49.2721 96.7381 51.0137 93.3619 54.1703 92.3537L 88.4636 81.4007C 91.6202 80.3925 94.9965 82.1341 96.0047 85.2907C 96.8852 88.0476 100.4227 88.6723 101.8836 86.1739C 107.9455 75.8066 109.7515 63.0068 105.81 50.666C 98.4375 27.5833 73.7487 14.8475 50.666 22.22C 27.5833 29.5924 14.8476 54.2812 22.22 77.364C 26.1616 89.7048 35.0527 99.088 46.0018 104.0221C 48.6403 105.2112 51.1608 102.6516 50.2803 99.8947Z"></path></g></g></g><g id="g-root-cp_2_g-2_14499aendqw3u-fill" data-item-order="-553486" transform="translate(249.4736328125, 329.6806640625)"><g id="cp_2_g-2_14499aendqw3u-fill-merged" stroke="none" fill="#a6da37" fill-opacity="1"><g><path d="M69.352 18.479L67.253 16.944C51.204 5.207 28.68 8.703 16.944 24.752C5.207 40.8 8.703 63.325 24.752 75.061L26.851 76.596C21.011 89.29 24.699 104.756 36.415 113.323C49.789 123.104 68.559 120.19 78.339 106.816L113.757 58.385C123.537 45.011 120.624 26.241 107.25 16.461C95.535 7.893 79.679 9.066 69.352 18.479 M42.318 105.251C33.402 98.731 31.459 86.217 37.98 77.302C38.958 75.964 38.667 74.087 37.329 73.109L30.872 68.387C18.835 59.584 16.213 42.691 25.016 30.655C33.818 18.618 50.711 15.996 62.748 24.799L69.205 29.521C70.543 30.499 72.42 30.208 73.398 28.87C79.918 19.955 92.431 18.012 101.347 24.533C110.263 31.053 112.205 43.566 105.685 52.482L70.267 100.913C63.747 109.829 51.234 111.771 42.318 105.251"></path></g></g></g><g id="g-root-cp_2_g-2_14499aendqw3u-stroke" data-item-order="-553486" transform="translate(249.4736328125, 329.6806640625)"><g id="cp_2_g-2_14499aendqw3u-stroke" fill="none" stroke-linecap="round" stroke-linejoin="round" stroke-miterlimit="4" stroke="#2c2c2c" stroke-width="2" stroke-opacity="1"><g><path d="M 69.3519 18.478601L 67.2532 16.943801C 51.2045 5.2073 28.6802 8.703101 16.9438 24.751801C 5.2073 40.8004 8.7031 63.324701 24.7518 75.061201L 26.8505 76.596001C 21.011 89.290001 24.6993 104.755701 36.4146 113.323101C 49.7885 123.103501 68.5587 120.190401 78.3391 106.816501L 113.7569 58.385301C 123.5373 45.011401 120.6241 26.241201 107.2502 16.460801C 95.5349 7.893401 79.6788 9.0662 69.3519 18.478601ZM 42.3176 105.251301C 33.4016 98.731001 31.4595 86.217501 37.9798 77.301601C 38.9578 75.964201 38.6665 74.0872 37.3291 73.109201L 30.8716 68.386801C 18.8351 59.584501 16.2133 42.691201 25.0156 30.654701C 33.8179 18.618201 50.7112 15.996399 62.7477 24.798701L 69.2052 29.521101C 70.5425 30.499101 72.4196 30.207801 73.3976 28.870401C 79.9179 19.954501 92.4313 18.012401 101.3473 24.532701C 110.2632 31.052901 112.2053 43.566401 105.6851 52.482301L 70.2672 100.913501C 63.747 109.829401 51.2335 111.771501 42.3176 105.251301Z"></path></g></g></g><g id="g-root-cp_1_g-1_14499aendqw3v-fill" data-item-order="-553482" transform="translate(194.99996948242188, 457.0009765625)"><g id="cp_1_g-1_14499aendqw3v-fill-merged" stroke="none" fill="#43dd93" fill-opacity="1"><g><path d="M13.515 62.546C8.828 67.232 8.828 74.83 13.515 79.516L62.546 128.547C67.232 133.233 74.83 133.233 79.516 128.547L113.03 95.033 V47.028L79.516 13.515C74.83 8.828 67.232 8.828 62.546 13.515L13.515 62.546 M65.763 116.766L25.671 76.674C22.547 73.549 22.547 68.484 25.671 65.36L65.763 25.268C68.888 22.143 73.953 22.143 77.077 25.268L98.777 46.968C101.028 49.218 102.292 52.266 102.292 55.449C102.292 64.265 102.292 77.799 102.292 86.584C102.292 89.767 101.028 92.815 98.777 95.066L77.077 116.766C73.953 119.89 68.888 119.89 65.763 116.766"></path></g></g></g><g id="g-root-cp_1_g-1_14499aendqw3v-stroke" data-item-order="-553482" transform="translate(194.99996948242188, 457.0009765625)"><g id="cp_1_g-1_14499aendqw3v-stroke" fill="none" stroke-linecap="round" stroke-linejoin="round" stroke-miterlimit="4" stroke="#2c2c2c" stroke-width="2" stroke-opacity="1"><g><path d="M 13.514731 62.5456C 8.828431 67.2319 8.828431 74.8299 13.514731 79.5162L 62.545631 128.5471C 67.231931 133.2334 74.829931 133.2334 79.516231 128.5471L 113.030031 95.0332L 113.029531 47.0281L 79.516231 13.5147C 74.829931 8.8284 67.231931 8.8284 62.545631 13.5147L 13.514731 62.5456ZM 65.763431 116.7658L 25.671231 76.6736C 22.547031 73.5494 22.547031 68.4841 25.671231 65.3599L 65.763431 25.2677C 68.887631 22.1435 73.952931 22.1435 77.077131 25.2677L 98.777131 46.9677C 101.027631 49.2181 102.291831 52.2663 102.291831 55.4489C 102.291831 64.2652 102.291831 77.7989 102.291831 86.5841C 102.291831 89.7667 101.027631 92.8154 98.777131 95.0659L 77.077131 116.7658C 73.952931 119.89 68.887631 119.89 65.763431 116.7658Z"></path></g></g></g><g id="g-root-tx_aiselect_dju4w6ndqv4a-fill" data-item-order="0" transform="translate(541.7899780273438, 152)"><g id="tx_aiselect_dju4w6ndqv4a-fill-merged" stroke="none" fill="#f4f4f4" fill-opacity="1"><g><text style="font: 15px Roboto, sans-serif; white-space: pre;" transform="translate(10, 37)" font-size="15px" font-family="Roboto, sans-serif"><tspan x="2" y="-9.5" dominant-baseline="ideographic">AI selects optimal </tspan><tspan x="2" y="8.5" dominant-baseline="ideographic">liquidity pools and </tspan><tspan x="2" y="26.5" dominant-baseline="ideographic">forecasts gas prices.</tspan></text></g></g></g><g id="g-root-tx_aiselect_dju4w6ndqv4a-stroke" data-item-order="0" transform="translate(541.7899780273438, 152)"></g><g id="g-root-tx_atomicse_dhypmundqw3x-fill" data-item-order="0" transform="translate(758.0499877929688, 230)"><g id="tx_atomicse_dhypmundqw3x-fill-merged" stroke="none" fill="#f366bb" fill-opacity="1"><g><text style="font: bold 20px Roboto, sans-serif; white-space: pre;" transform="translate(10, 34)" font-weight="bold" font-size="20px" font-family="Roboto, sans-serif"><tspan x="2" y="-0.5" dominant-baseline="ideographic">Atomic </tspan><tspan x="2" y="23.5" dominant-baseline="ideographic">Settlement</tspan></text></g></g></g><g id="g-root-tx_atomicse_dhypmundqw3x-stroke" data-item-order="0" transform="translate(758.0499877929688, 230)"></g><g id="g-root-tx_autoswap_14803t2ndqu4l-fill" data-item-order="0" transform="translate(126.828125, 272)"><g id="tx_autoswap_14803t2ndqu4l-fill-merged" stroke="none" fill="#a6da37" fill-opacity="1"><g><text style="font: bold 20px Roboto, sans-serif; white-space: pre;" transform="translate(113.171875, 22)" font-weight="bold" font-size="20px" font-family="Roboto, sans-serif"><tspan x="-101.17" y="11.5" dominant-baseline="ideographic">Auto-Swap</tspan></text></g></g></g><g id="g-root-tx_autoswap_14803t2ndqu4l-stroke" data-item-order="0" transform="translate(126.828125, 272)"></g><g id="g-root-tx_stableco_vcd3k6ndquxa-fill" data-item-order="0" transform="translate(65.6796875, 308)"><g id="tx_stableco_vcd3k6ndquxa-fill-merged" stroke="none" fill="#f4f4f4" fill-opacity="1"><g><text style="font: 15px Roboto, sans-serif; white-space: pre;" transform="translate(174.3203125, 37)" font-size="15px" font-family="Roboto, sans-serif"><tspan x="-104.86" y="-9.5" dominant-baseline="ideographic">Stablecoins are </tspan><tspan x="-162.32" y="8.5" dominant-baseline="ideographic">automatically converted </tspan><tspan x="-156.56" y="26.5" dominant-baseline="ideographic">to merchant's currency.</tspan></text></g></g></g><g id="g-root-tx_stableco_vcd3k6ndquxa-stroke" data-item-order="0" transform="translate(65.6796875, 308)"></g><g id="g-root-tx_gasspons_1usf87andqv46-fill" data-item-order="0" transform="translate(758.0499877929688, 290)"><g id="tx_gasspons_1usf87andqv46-fill-merged" stroke="none" fill="#f4f4f4" fill-opacity="1"><g><text style="font: 15px Roboto, sans-serif; white-space: pre;" transform="translate(10, 46)" font-size="15px" font-family="Roboto, sans-serif"><tspan x="2" y="-18.5" dominant-baseline="ideographic">Gas sponsorship, swap, </tspan><tspan x="2" y="-0.5" dominant-baseline="ideographic">and transfer occur in a </tspan><tspan x="2" y="17.5" dominant-baseline="ideographic">single, all-or-nothing </tspan><tspan x="2" y="35.5" dominant-baseline="ideographic">transaction.</tspan></text></g></g></g><g id="g-root-tx_gasspons_1usf87andqv46-stroke" data-item-order="0" transform="translate(758.0499877929688, 290)"></g><g id="g-root-tx_simpleso_1hiu53andqvpg-fill" data-item-order="0" transform="translate(288.0390625, 152)"><g id="tx_simpleso_1hiu53andqvpg-fill-merged" stroke="none" fill="#f4f4f4" fill-opacity="1"><g><text style="font: 15px Roboto, sans-serif; white-space: pre;" transform="translate(167.9609375, 37)" font-size="15px" font-family="Roboto, sans-serif"><tspan x="-155.96" y="-9.5" dominant-baseline="ideographic">Simple social login and </tspan><tspan x="-114.57" y="8.5" dominant-baseline="ideographic">QR scan for easy </tspan><tspan x="-71.57" y="26.5" dominant-baseline="ideographic">payments.</tspan></text></g></g></g><g id="g-root-tx_simpleso_1hiu53andqvpg-stroke" data-item-order="0" transform="translate(288.0390625, 152)"></g><g id="g-root-tx_aioptimi_qvan9indqtjd-fill" data-item-order="0" transform="translate(541.7899780273438, 92)"><g id="tx_aioptimi_qvan9indqtjd-fill-merged" stroke="none" fill="#8769fd" fill-opacity="1"><g><text style="font: bold 20px Roboto, sans-serif; white-space: pre;" transform="translate(10, 34)" font-weight="bold" font-size="20px" font-family="Roboto, sans-serif"><tspan x="2" y="-0.5" dominant-baseline="ideographic">AI-Optimized </tspan><tspan x="2" y="23.5" dominant-baseline="ideographic">Routing</tspan></text></g></g></g><g id="g-root-tx_aioptimi_qvan9indqtjd-stroke" data-item-order="0" transform="translate(541.7899780273438, 92)"></g><g id="g-root-tx_oneclick_1uuangmndqu4j-fill" data-item-order="0" transform="translate(322.671875, 116)"><g id="tx_oneclick_1uuangmndqu4j-fill-merged" stroke="none" fill="#1ac3fb" fill-opacity="1"><g><text style="font: bold 20px Roboto, sans-serif; white-space: pre;" transform="translate(133.328125, 22)" font-weight="bold" font-size="20px" font-family="Roboto, sans-serif"><tspan x="-121.33" y="11.5" dominant-baseline="ideographic">One-Click UX</tspan></text></g></g></g><g id="g-root-tx_oneclick_1uuangmndqu4j-stroke" data-item-order="0" transform="translate(322.671875, 116)"></g><g id="g-root-tx_vessel_dgprgmnds83v-fill" data-item-order="0" transform="translate(462.48828125, 566)"><g id="tx_vessel_dgprgmnds83v-fill-merged" stroke="none" fill="#f4f4f4" fill-opacity="1"><g><text style="font: 20px Roboto, sans-serif; white-space: pre;" transform="translate(41.51171875, 22)" font-size="20px" font-family="Roboto, sans-serif"><tspan x="-29.51" y="11.5" dominant-baseline="ideographic">Vessel</tspan></text></g></g></g><g id="g-root-tx_vessel_dgprgmnds83v-stroke" data-item-order="0" transform="translate(462.48828125, 566)"></g><g id="g-root-ic_smar_1ulk092ndsav5-fill" data-item-order="0" transform="translate(458, 482)"></g><g id="g-root-ic_smar_1ulk092ndsav5-stroke" data-item-order="0" transform="translate(458, 482)"><g id="ic_smar_1ulk092ndsav5-stroke" fill="none" stroke-linecap="round" stroke-linejoin="round" stroke-miterlimit="4" stroke="#f4f4f4" stroke-width="2" stroke-opacity="1"><g><path d="M 38.5 50.5L 14.5 50.5L 17.083 35.008003C 17.324234 33.556915 18.58201 32.494793 20.052999 32.5L 32.971001 32.5C 34.437454 32.500675 35.688499 33.561401 35.929001 35.008003ZM 11.5 50.5L 40 50.5C 40.828426 50.5 41.5 51.171574 41.5 52L 41.5 80.5M 23.512001 38.5L 29.512001 38.5M 26.512001 32.5L 26.512001 26.5M 19.011999 20.5L 34.012001 20.5C 34.012001 20.5 35.512001 20.5 35.512001 22L 35.512001 25C 35.512001 25 35.512001 26.5 34.012001 26.5L 19.011999 26.5C 19.011999 26.5 17.511999 26.5 17.511999 25L 17.511999 22C 17.511999 22 17.511999 20.5 19.011999 20.5M 55.012001 32.5L 76.012001 32.5C 76.012001 32.5 80.512001 32.5 80.512001 37L 80.512001 76C 80.512001 76 80.512001 80.5 76.012001 80.5L 55.012001 80.5C 55.012001 80.5 50.512001 80.5 50.512001 76L 50.512001 37C 50.512001 37 50.512001 32.5 55.012001 32.5M 50.512001 68.5L 80.512001 68.5M 76 15.745C 69.001602 10.083615 58.998398 10.083615 52 15.745M 57.013 22.974998C 61.095432 19.674747 66.928566 19.674747 71.011002 22.974998M 66.262001 73C 66.676208 73 67.012001 73.335785 67.012001 73.75C 67.012001 74.164215 66.676208 74.5 66.262001 74.5C 65.847786 74.5 65.512001 74.164215 65.512001 73.75C 65.512001 73.335785 65.847786 73 66.262001 73M 11.512 56.5L 41.512001 56.5M 65.512001 56.5L 65.512001 59.5M 65.512001 41.5L 65.512001 44.5M 59.5 56.5L 68.5 56.5C 70.156853 56.5 71.5 55.156857 71.5 53.5C 71.5 51.843143 70.156853 50.5 68.5 50.5L 62.5 50.5C 60.843147 50.5 59.5 49.156857 59.5 47.5C 59.5 45.843143 60.843147 44.5 62.5 44.5L 71.5 44.5"></path></g></g></g><g id="g-root-tx_vesselsc_14499aendqw3w-fill" data-item-order="0" transform="translate(365.3359375, 38)"><g id="tx_vesselsc_14499aendqw3w-fill-merged" stroke="none" fill="#f4f4f4" fill-opacity="1"><g><text style="font: bold 25px Roboto, sans-serif; white-space: pre;" transform="translate(139.1640625, 25)" font-weight="bold" font-size="25px" font-family="Roboto, sans-serif"><tspan x="-127.16" y="14.5" dominant-baseline="ideographic">Vessel's Core Features</tspan></text></g></g></g><g id="g-root-tx_vesselsc_14499aendqw3w-stroke" data-item-order="0" transform="translate(365.3359375, 38)"></g><g id="g-root-tx_gaslesst_dbpyrqnds8p3-fill" data-item-order="0" transform="translate(61.109375, 470)"><g id="tx_gaslesst_dbpyrqnds8p3-fill-merged" stroke="none" fill="#43dd93" fill-opacity="1"><g><text style="font: bold 20px Roboto, sans-serif; white-space: pre;" transform="translate(130.890625, 34)" font-weight="bold" font-size="20px" font-family="Roboto, sans-serif"><tspan x="-73.27" y="-0.5" dominant-baseline="ideographic">Gasless </tspan><tspan x="-118.89" y="23.5" dominant-baseline="ideographic">Transactions</tspan></text></g></g></g><g id="g-root-tx_gaslesst_dbpyrqnds8p3-stroke" data-item-order="0" transform="translate(61.109375, 470)"></g><g id="g-root-tx_enterpri_1hhl6x2ndqtjb-fill" data-item-order="0" transform="translate(806.3200073242188, 461)"><g id="tx_enterpri_1hhl6x2ndqtjb-fill-merged" stroke="none" fill="#fb6762" fill-opacity="1"><g><text style="font: bold 20px Roboto, sans-serif; white-space: pre;" transform="translate(10, 34)" font-weight="bold" font-size="20px" font-family="Roboto, sans-serif"><tspan x="2" y="-0.5" dominant-baseline="ideographic">Enterprise </tspan><tspan x="2" y="23.5" dominant-baseline="ideographic">Security</tspan></text></g></g></g><g id="g-root-tx_enterpri_1hhl6x2ndqtjb-stroke" data-item-order="0" transform="translate(806.3200073242188, 461)"></g><g id="g-root-tx_usersdon_8vwgnands9hc-fill" data-item-order="0" transform="translate(23.75, 530)"><g id="tx_usersdon_8vwgnands9hc-fill-merged" stroke="none" fill="#f4f4f4" fill-opacity="1"><g><text style="font: 15px Roboto, sans-serif; white-space: pre;" transform="translate(168.25, 28)" font-size="15px" font-family="Roboto, sans-serif"><tspan x="-156.25" y="-0.5" dominant-baseline="ideographic">Users don't need native </tspan><tspan x="-133.73" y="17.5" dominant-baseline="ideographic">tokens for gas fees.</tspan></text></g></g></g><g id="g-root-tx_usersdon_8vwgnands9hc-stroke" data-item-order="0" transform="translate(23.75, 530)"></g><g id="g-root-tx_robustse_1464ojqndqv48-fill" data-item-order="0" transform="translate(806.3200073242188, 521)"><g id="tx_robustse_1464ojqndqv48-fill-merged" stroke="none" fill="#f4f4f4" fill-opacity="1"><g><text style="font: 15px Roboto, sans-serif; white-space: pre;" transform="translate(10, 37)" font-size="15px" font-family="Roboto, sans-serif"><tspan x="2" y="-9.5" dominant-baseline="ideographic">Robust security </tspan><tspan x="2" y="8.5" dominant-baseline="ideographic">measures protect </tspan><tspan x="2" y="26.5" dominant-baseline="ideographic">transactions and data.</tspan></text></g></g></g><g id="g-root-tx_robustse_1464ojqndqv48-stroke" data-item-order="0" transform="translate(806.3200073242188, 521)"></g></g></g><path id="wdcbh7rn3u41z" d="M65.283 12.757a.35.35 0 0 0 .584.157l5.203-5.141-6.183 3.523.396 1.461zm-2.216-11.7a.35.35 0 0 0-.522.305v3.111l3.276-1.868-2.754-1.548zm3.728 2.105l-4.25 2.421v2.445l6.391-3.644-2.141-1.222zm4.708 3.303a.35.35 0 0 0 0-.609l-1.592-.9-7.365 4.199v1.782a.35.35 0 0 0 .523.305l8.435-4.777z M44.542 2.513c0-.433.355-.783.792-.783s.792.35.792.783-.355.783-.792.783-.792-.35-.792-.783zm59.171 0c0-.433.355-.783.792-.783s.792.35.792.783-.355.783-.792.783-.792-.35-.792-.783zm-85.951 7.636h-1.27v-.487c-.276.201-.864.609-1.881.609-1.202 0-2.274-.794-2.137-2.078.118-1.106 1.153-1.584 1.848-1.727l2.17-.345c0-.539-.29-.956-1.064-1.006s-1.21.305-1.571 1.017l-1.124-.605c1.218-2.631 5.029-1.764 5.029.414v4.207zm-1.27-2.86c.006.396-.062 1.112-.819 1.59-.587.37-1.841.299-1.903-.395-.049-.555.461-.791.906-.898l1.816-.297zm72.662 2.86h-1.27v-.487c-.276.201-.864.609-1.881.609-1.202 0-2.274-.794-2.137-2.078.118-1.106 1.153-1.584 1.848-1.727l2.17-.345c0-.539-.29-.956-1.064-1.006s-1.21.305-1.571 1.017l-1.124-.605c1.218-2.631 5.029-1.764 5.029.414v4.207zm-1.27-2.86c.006.396-.062 1.112-.82 1.59-.587.37-1.841.299-1.903-.395-.049-.555.461-.791.906-.898l1.816-.297zM99.096 10.149H97.85v-8.45h1.246v4.895l2.68-2.559h1.738l-2.633 2.535 2.715 3.578h-1.556l-2.077-2.707-.867.844v1.863zm6.053-6.114h-1.255v6.113h1.255V4.035zm-59.2 0h-1.255v6.113h1.255V4.035zm5.584 6.113V1.697h1.255v2.695c.361-.346 1-.485 1.47-.485 1.452 0 2.477 1.082 2.457 2.448v3.792h-1.27v-3.68c0-.408-.214-1.339-1.315-1.339-.968 0-1.342.756-1.342 1.339v3.681h-1.255zm-4.76-4.894V4.039h.621a.45.45 0 0 0 .45-.45v-.855h1.251v1.305h1.309v1.215h-1.309v3.109c0 .293.105.664.648.664.365 0 .531-.035.736-.07v1.137s-.361.113-.857.113c-1.398 0-1.777-1.051-1.777-1.788V5.254h-1.071zM36.528 4.039h-1.394l2.191 6.106h1.125l1.234-3.918 1.238 3.918h1.129l2.188-6.106h-1.383l-1.359 3.93-1.256-3.93h-1.124l-1.242 3.957-1.348-3.957zM26.212 7.141c-.02 1.566 1.187 3.129 3.223 3.129 1.566 0 2.383-.918 2.734-1.719L31.172 8c-.315.399-.801 1.094-1.738 1.094-1.145 0-1.825-.781-1.891-1.52h4.625c.074-.284.148-.995-.03-1.559-.336-1.064-1.221-2.102-2.839-2.102s-3.088 1.152-3.088 3.227zm1.363-.75h3.348c-.055-.43-.566-1.301-1.623-1.301a1.79 1.79 0 0 0-1.725 1.301zm-8.758.75c.038 1.758 1.277 3.133 3.145 3.133 1.074 0 1.723-.477 1.961-.672v.547h1.242V1.703h-1.258v2.888c-.414-.36-1.062-.68-1.93-.68-1.91 0-3.198 1.473-3.16 3.23zm1.309-.08c0 1.119.723 1.978 1.836 1.978a1.88 1.88 0 0 0 1.94-1.904c0-1.371-1.011-1.99-1.972-1.99s-1.805.798-1.805 1.916zm76.683-.028C96.771 5.275 95.532 3.9 93.664 3.9c-1.074 0-1.723.477-1.961.672v-.547h-1.242v8.22h1.258V9.583c.414.36 1.063.68 1.93.68 1.91 0 3.198-1.473 3.16-3.23zm-1.309.08c0-1.119-.723-1.978-1.836-1.978a1.88 1.88 0 0 0-1.94 1.904c0 1.371 1.011 1.99 1.972 1.99S95.5 8.231 95.5 7.113zM106.441 10.173V4.036h1.254v.382c.361-.346 1-.485 1.47-.485 1.452 0 2.477 1.082 2.457 2.448v3.792h-1.27V6.492c0-.408-.214-1.339-1.315-1.339-.969 0-1.342.756-1.342 1.339v3.681h-1.254zm-30.383-.021V1.824h1.084l4.215 5.777V1.824h1.32v8.328h-1.094l-4.207-5.796v5.796h-1.319zM5.24 10.149H4V2.377h1.014l2.664 3.597 2.654-3.592h1.03v7.766h-1.256V4.762L7.678 8.068 5.24 4.742v5.407z" transform="translate(873, 638)" fill="#ababab88" stroke="none"></path></svg>